<?xml version="1.0" encoding="utf-8"?>
<!-- Generator: Adobe Illustrator 19.2.1, SVG Export Plug-In . SVG Version: 6.00 Build 0)  -->
<svg version="1.1" id="layer" xmlns="http://www.w3.org/2000/svg" xmlns:xlink="http://www.w3.org/1999/xlink" x="0px" y="0px"
	 viewBox="0 0 652 652" style="enable-background:new 0 0 652 652;" xml:space="preserve">
<style type="text/css">
	.st0{fill-rule:evenodd;clip-rule:evenodd;fill:#F8E027;}
	.st1{fill-rule:evenodd;clip-rule:evenodd;}
	.st2{fill:#F8E027;}
</style>
<path class="st0" d="M447.6,264.3v87.7h-41.4L447.6,264.3 M269.2,264.2v87.7h-41.4L269.2,264.2z M79.3,81.4h487.6v485.5H79.3V81.4z
	 M316.2,445.7H363l22.8-46.2h61.8v46.2h46.9V197h-66.1L316.2,445.7V197H250L137.4,445.7h47.2l22.8-46.3h61.8v46.3H316.2z"/>
<path class="st1" d="M87.2,88.2h477.2v477.2H87.2V88.2z M75.8,76.7h499.9v500H75.8V76.7z"/>
<rect x="111.6" y="134.2" class="st2" width="436.2" height="395"/>
<path class="st1" d="M137.4,445.7L250,197h66.1v248.7h-46.9v-46.3h-61.8l-22.8,46.3H137.4 M269.2,264.2v87.7h-41.4L269.2,264.2z"/>
<path class="st1" d="M316.2,445.7L428.4,197h66.1v248.7h-46.9v-46.2h-61.8L363,445.7H316.2 M447.6,264.3v87.7h-41.4L447.6,264.3z"/>
</svg>
