<svg width="738" height="513" viewBox="0 0 738 513" fill="none" xmlns="http://www.w3.org/2000/svg">
<g clip-path="url(#clip0)">
<path d="M23.2646 29.2976H103.195V110.856H23.2646V29.2976Z" fill="#2F2E41"/>
<path d="M144.839 52.2607H373.883V276.348H144.839V52.2607Z" fill="#333246"/>
<path d="M213.686 89.4766H305.035V102.938H213.686V89.4766Z" fill="white"/>
<path d="M279.176 121.15H342.65V129.068H279.176V121.15Z" fill="white"/>
<path d="M228.128 173.41H291.602V181.329H228.128V173.41Z" fill="white"/>
<path d="M177.08 121.15H240.554V129.068H177.08V121.15Z" fill="#3C60B9"/>
<path d="M34.6832 75.2236H92.4479V78.8895H34.6832V75.2236Z" fill="#3C60B9"/>
<path d="M35.3548 83.2886H93.1194V86.9544H35.3548V83.2886Z" fill="#3C60B9"/>
<path d="M34.6832 91.3535H92.4479V95.0194H34.6832V91.3535Z" fill="#3C60B9"/>
<path d="M34.6832 48.3015H92.4479V51.9674H34.6832V48.3015Z" fill="#3C60B9"/>
<path d="M35.3548 56.3665H93.1194V60.0323H35.3548V56.3665Z" fill="#3C60B9"/>
<path d="M34.6832 64.4314H92.4479V68.0973H34.6832V64.4314Z" fill="#3C60B9"/>
<path d="M0.427246 56.2197H80.3575V137.778H0.427246V56.2197Z" fill="#333246"/>
<path d="M11.8459 102.146H69.6106V105.812H11.8459V102.146Z" fill="#3C60B9"/>
<path d="M12.5176 110.211H70.2823V113.877H12.5176V110.211Z" fill="#3C60B9"/>
<path d="M11.8459 118.276H69.6106V121.942H11.8459V118.276Z" fill="#3C60B9"/>
<path d="M11.8459 75.2236H69.6106V78.8895H11.8459V75.2236Z" fill="#3C60B9"/>
<path d="M12.5176 83.2886H70.2823V86.9544H12.5176V83.2886Z" fill="#3C60B9"/>
<path d="M11.8459 91.3535H69.6106V95.0194H11.8459V91.3535Z" fill="#3C60B9"/>
<path d="M474.635 87.8931H554.565V169.451H474.635V87.8931Z" fill="#333246"/>
<path d="M486.054 133.819H543.818V137.485H486.054V133.819Z" fill="#3C60B9"/>
<path d="M486.726 141.884H544.49V145.55H486.726V141.884Z" fill="#3C60B9"/>
<path d="M486.054 149.949H543.818V153.615H486.054V149.949Z" fill="#3C60B9"/>
<path d="M486.054 106.897H543.818V110.563H486.054V106.897Z" fill="#3C60B9"/>
<path d="M486.726 114.962H544.49V118.628H486.726V114.962Z" fill="#3C60B9"/>
<path d="M486.054 123.027H543.818V126.692H486.054V123.027Z" fill="#3C60B9"/>
<path d="M176.072 147.28H342.65V155.198H176.072V147.28Z" fill="white"/>
<path d="M305.371 173.41H342.65V181.329H305.371V173.41Z" fill="#3C60B9"/>
<path d="M305.371 225.671H342.65V233.589H305.371V225.671Z" fill="white"/>
<path d="M177.08 173.41H214.358V181.329H177.08V173.41Z" fill="white"/>
<path d="M176.072 225.671H273.802V233.589H176.072V225.671Z" fill="white"/>
<path d="M191.995 125.59L193.062 124.628L120.319 12.6689H48.1165V14.2532H119.655L191.995 125.59Z" fill="#2F2E41"/>
<path d="M338.72 177.971L445.329 70.4727H516.951V68.8892H444.833L337.847 176.768L338.72 177.971Z" fill="#2F2E41"/>
<path d="M47.864 24C41.7889 24 36.864 19.0751 36.864 13C36.864 6.92487 41.7889 2 47.864 2C53.9391 2 58.864 6.92487 58.864 13C58.864 19.0751 53.9391 24 47.864 24Z" fill="#3C60B9"/>
<path d="M515.698 80.0117C509.623 80.0117 504.698 75.0868 504.698 69.0117C504.698 62.9366 509.623 58.0117 515.698 58.0117C521.773 58.0117 526.698 62.9366 526.698 69.0117C526.698 75.0868 521.773 80.0117 515.698 80.0117Z" fill="#3C60B9"/>
</g>
<path d="M708.576 492.639C700.122 510.412 256.328 508.92 257.001 492.638C265.454 474.866 709.248 476.358 708.576 492.639Z" fill="#C7D4E7"/>
<path d="M664.955 480.679C664.955 480.679 679.561 425.193 624.017 393.602L664.955 480.679Z" fill="#C7D4E7"/>
<path d="M666.776 480.976C666.776 480.976 672.565 426.213 737.254 422.781L666.776 480.976Z" fill="#C7D4E7"/>
<path d="M418.602 472.212L403.504 471.076L408.537 496.645L425.647 488.69L418.602 472.212Z" fill="#FFB9B9"/>
<path d="M556.998 424.481L521.77 385.842L501.64 403.457L461.882 457.438L466.411 465.392L514.725 428.459L547.436 476.758L578.638 459.142L556.998 424.481Z" fill="#2F2E41"/>
<path opacity="0.1" d="M556.998 424.481L521.77 385.842L501.64 403.457L461.882 457.438L466.411 465.392L514.725 428.459L547.436 476.758L578.638 459.142L556.998 424.481Z" fill="black"/>
<path d="M560.017 450.051L555.488 454.028L518.75 439.823L510.195 435.845L493.084 439.823C493.084 439.823 493.084 423.912 509.188 424.481L525.796 429.026L545.423 430.731L560.017 450.051Z" fill="#FFB9B9"/>
<path d="M592.729 492.1L581.658 500.055H568.573L507.678 474.484L418.602 492.668L416.085 471.076L497.613 430.732L569.076 457.438L592.729 492.1Z" fill="#2F2E41"/>
<path d="M521.267 390.956L513.718 392.66L512.073 390.493C510.771 388.778 509.946 386.667 509.701 384.424C509.457 382.182 509.804 379.907 510.699 377.887L531.836 346.634C531.836 346.634 537.875 331.292 547.437 337.543C556.999 343.793 539.385 354.021 539.385 354.021L528.816 372.773L529.823 382.432L521.267 390.956Z" fill="#FFB9B9"/>
<path d="M569.076 354.022C579.916 354.022 588.704 344.1 588.704 331.861C588.704 319.622 579.916 309.7 569.076 309.7C558.237 309.7 549.449 319.622 549.449 331.861C549.449 344.1 558.237 354.022 569.076 354.022Z" fill="#FFB9B9"/>
<path d="M560.269 348.055L569.327 372.489L590.968 362.261C590.968 362.261 583.922 342.941 583.922 342.373C583.922 341.805 560.269 348.055 560.269 348.055Z" fill="#FFB9B9"/>
<path d="M619.86 420.338C619.86 433.713 617.993 447.004 614.329 459.722L612.86 464.825L605.814 501.191L598.265 503.464L592.729 495.509L581.658 486.417L573.605 471.643L566.701 458.654L564.547 454.597L556.998 411.98L528.312 393.797L518.75 392.092L520.763 385.842L529.319 372.773L537.874 371.636L540.39 369.363L542.403 370.5L550.455 365.386L552.972 366.522L567.687 368.068L576.625 365.954L589.478 358.164L594.742 359.135L612.86 376.182C617.491 390.316 619.861 405.268 619.86 420.338Z" fill="#2AA9B7"/>
<path d="M408.139 481.01C408.139 481.01 412.646 472.384 410.742 471.377C408.838 470.37 400.753 466.356 400.753 466.356L388.895 461.919C388.895 461.919 371.786 433.209 371.411 458.176C371.035 483.143 383.868 489.144 383.868 489.144C383.868 489.144 395.314 516.956 401.797 512.521C408.281 508.086 414.769 493.031 414.769 493.031C414.769 493.031 403.077 485.935 408.139 481.01Z" fill="#2F2E41"/>
<path opacity="0.1" d="M614.37 415.39L595.246 429.595L566.701 458.654L564.547 454.597L558.508 420.503H560.018L575.619 388.115L614.37 415.39Z" fill="black"/>
<path d="M575.618 384.706L560.017 417.094H554.481L550.959 428.459L542.906 430.732L564.546 457.438L595.245 426.185L614.369 411.98L575.618 384.706Z" fill="#2AA9B7"/>
<path d="M553.811 315.383L551.684 316.307C551.357 316.057 551.077 315.736 550.862 315.362C550.646 314.989 550.498 314.57 550.428 314.131C550.357 313.692 550.365 313.242 550.45 312.807C550.535 312.371 550.697 311.959 550.925 311.595L546.995 311.388C549.518 307.594 552.725 304.449 556.405 302.16C560.085 299.87 564.153 298.489 568.341 298.108C572.529 297.727 576.741 298.354 580.698 299.949C584.655 301.543 588.267 304.068 591.296 307.356C591.475 306.66 593.425 308.014 594.221 309.387C594.489 308.254 596.318 313.727 596.964 317.596C597.264 316.308 598.415 318.387 597.407 320.383C598.046 320.277 598.334 322.123 597.84 323.152C598.539 322.781 598.421 324.985 597.663 326.458C598.661 326.358 589.794 341.895 586.204 350.975C585.162 345.567 583.99 339.873 580.628 335.845C580.057 335.16 579.432 334.537 578.807 333.914L575.429 330.547C571.5 326.632 567.927 321.799 562.693 320.336C559.097 319.331 556.823 319.104 558.783 314.528C557.012 315.362 555.358 316.603 553.572 317.378C553.596 316.738 553.845 316.023 553.811 315.383Z" fill="#2F2E41"/>
<path d="M578.889 338.395C580.835 338.395 582.412 336.614 582.412 334.418C582.412 332.221 580.835 330.44 578.889 330.44C576.944 330.44 575.366 332.221 575.366 334.418C575.366 336.614 576.944 338.395 578.889 338.395Z" fill="#FFB9B9"/>
<defs>
<clipPath id="clip0">
<rect width="554.791" height="277" fill="white" transform="matrix(-1 0 0 1 554.791 0)"/>
</clipPath>
</defs>
</svg>
