<svg width="386" height="382" viewBox="0 0 386 382" fill="none" xmlns="http://www.w3.org/2000/svg">
<path d="M196 23H316C343.614 23 366 45.3858 366 73V193H196V23Z" fill="#1A5373"/>
<path d="M196 23H76C48.3858 23 26 45.3858 26 73V193H196V23Z" fill="#42B1CA"/>
<path d="M196 363H76C48.3858 363 26 340.614 26 313V193H196V363Z" fill="#4FC0BA"/>
<path d="M196 363H316C343.614 363 366 340.614 366 313V193H196V363Z" fill="#1D6A71"/>
<g opacity="0.7">
<path d="M196 23.009L184.92 42.2007L207.08 42.2007L196 23.009ZM196 363L207.08 343.808L184.92 343.808L196 363ZM194.081 40.2816L194.081 345.728L197.919 345.728L197.919 40.2816L194.081 40.2816Z" fill="white" fill-opacity="0.5"/>
<path d="M26.0002 193L46.484 204.826L46.484 181.174L26.0002 193ZM366 193L345.516 181.174L345.516 204.826L366 193ZM44.4356 195.048L347.565 195.048L347.565 190.952L44.4356 190.952L44.4356 195.048Z" fill="white" fill-opacity="0.5"/>
</g>
<path d="M155.369 4.4979L155.367 7.32067L158.929 7.32392L158.927 8.78106L155.365 8.77781L155.363 11.6569L159.882 11.661L159.881 13.1745L153.461 13.1686L153.47 2.98975L159.89 2.9956L159.888 4.50202L155.369 4.4979ZM169.83 13.1835L167.943 13.1818C167.812 13.1817 167.706 13.1488 167.627 13.083C167.552 13.0172 167.491 12.9421 167.444 12.8576L165.089 8.94858C165.052 9.06587 165.007 9.16673 164.955 9.25115L162.692 12.8532C162.636 12.933 162.57 13.008 162.495 13.0783C162.425 13.1439 162.331 13.1767 162.213 13.1766L160.446 13.175L163.83 7.94081L160.589 2.99624L162.476 2.99796C162.607 2.99808 162.701 3.01694 162.758 3.05453C162.819 3.08744 162.875 3.1438 162.926 3.22363L165.239 6.95659C165.286 6.83931 165.342 6.72204 165.408 6.60477L167.537 3.26303C167.589 3.17391 167.645 3.10826 167.706 3.06608C167.767 3.0239 167.845 3.00285 167.939 3.00294L169.748 3.00459L166.47 7.86578L169.83 13.1835ZM174.317 8.12635C174.664 8.12667 174.967 8.08471 175.225 8.00047C175.484 7.91155 175.697 7.78738 175.866 7.62797C176.04 7.46388 176.169 7.2669 176.254 7.03702C176.339 6.80246 176.381 6.54204 176.381 6.25577C176.382 5.98358 176.34 5.73717 176.255 5.51653C176.171 5.29588 176.045 5.10805 175.876 4.95303C175.707 4.79801 175.494 4.6805 175.235 4.60048C174.977 4.51578 174.672 4.47326 174.32 4.47294L172.906 4.47165L172.902 8.12506L174.317 8.12635ZM174.322 3.00876C175.002 3.00938 175.591 3.0897 176.088 3.24971C176.586 3.40972 176.996 3.63301 177.32 3.91957C177.643 4.20613 177.882 4.54893 178.037 4.94796C178.196 5.34701 178.275 5.78352 178.275 6.2575C178.275 6.75025 178.192 7.20304 178.027 7.61587C177.863 8.024 177.616 8.37574 177.287 8.67109C176.958 8.96644 176.545 9.19602 176.048 9.35982C175.555 9.52362 174.977 9.60522 174.316 9.60462L172.901 9.60333L172.898 13.1863L171.004 13.1846L171.013 3.00574L174.322 3.00876ZM185.684 11.6353L185.683 13.198L179.721 13.1926L179.73 3.01369L181.624 3.01542L181.616 11.6316L185.684 11.6353ZM196.389 8.11832C196.389 8.86449 196.264 9.55658 196.014 10.1946C195.77 10.8279 195.422 11.3767 194.971 11.8408C194.52 12.305 193.978 12.6682 193.344 12.9305C192.71 13.188 192.006 13.3164 191.232 13.3157C190.462 13.315 189.761 13.1853 189.127 12.9266C188.494 12.6632 187.95 12.299 187.495 11.834C187.045 11.369 186.696 10.8196 186.448 10.1859C186.2 9.5474 186.076 8.85509 186.077 8.10892C186.077 7.36275 186.202 6.67301 186.452 6.03969C186.701 5.40169 187.051 4.85059 187.502 4.38641C187.958 3.92223 188.502 3.56137 189.136 3.30384C189.77 3.04162 190.472 2.91085 191.241 2.91156C191.758 2.91203 192.243 2.97348 192.698 3.09591C193.153 3.21364 193.571 3.38297 193.951 3.60388C194.331 3.8201 194.671 4.08556 194.971 4.40026C195.276 4.71026 195.533 5.05777 195.744 5.44278C195.955 5.82779 196.114 6.24561 196.222 6.69622C196.334 7.14684 196.39 7.62087 196.389 8.11832ZM194.454 8.11656C194.454 7.5581 194.379 7.05824 194.23 6.61697C194.08 6.17101 193.867 5.79304 193.59 5.48306C193.314 5.17307 192.976 4.93577 192.577 4.77116C192.183 4.60655 191.737 4.52402 191.24 4.52356C190.742 4.52311 190.294 4.60483 189.895 4.76871C189.501 4.9326 189.163 5.16929 188.881 5.47876C188.604 5.78824 188.39 6.16582 188.239 6.61151C188.089 7.05251 188.013 7.55223 188.013 8.11068C188.012 8.66914 188.087 9.17135 188.237 9.61731C188.386 10.0586 188.599 10.4342 188.876 10.7442C189.157 11.0495 189.495 11.2844 189.889 11.449C190.288 11.6137 190.736 11.6962 191.233 11.6966C191.731 11.6971 192.177 11.6154 192.571 11.4515C192.97 11.2876 193.308 11.0533 193.585 10.7485C193.863 10.439 194.076 10.0638 194.227 9.62277C194.378 9.17708 194.453 8.67501 194.454 8.11656ZM201.129 7.87626C201.485 7.87659 201.795 7.83229 202.058 7.74336C202.326 7.65444 202.544 7.53263 202.713 7.37792C202.887 7.21852 203.016 7.03092 203.101 6.81512C203.185 6.59933 203.228 6.36237 203.228 6.10427C203.229 5.58805 203.058 5.19134 202.715 4.91415C202.378 4.63696 201.859 4.49805 201.16 4.49741L199.949 4.49631L199.946 7.87519L201.129 7.87626ZM205.995 13.2165L204.285 13.215C203.961 13.2147 203.726 13.0877 203.581 12.8342L201.444 9.57303C201.364 9.45095 201.275 9.36405 201.177 9.31233C201.083 9.26063 200.942 9.23469 200.754 9.23452L199.945 9.23378L199.941 13.211L198.048 13.2093L198.057 3.0304L201.161 3.03323C201.851 3.03386 202.442 3.10714 202.935 3.25307C203.432 3.39431 203.838 3.59412 204.152 3.85252C204.471 4.11092 204.706 4.42086 204.855 4.78235C205.005 5.13915 205.08 5.53342 205.08 5.96517C205.079 6.30775 205.027 6.63151 204.924 6.93645C204.825 7.2414 204.679 7.51815 204.487 7.7667C204.299 8.01525 204.064 8.23325 203.782 8.42071C203.505 8.60818 203.188 8.75571 202.831 8.86332C202.953 8.93383 203.066 9.0184 203.169 9.11705C203.272 9.211 203.366 9.32372 203.45 9.45519L205.995 13.2165ZM212.476 9.37895L211.24 5.9919C211.179 5.84167 211.116 5.66329 211.051 5.45674C210.985 5.25019 210.92 5.02722 210.854 4.78782C210.793 5.0271 210.729 5.2523 210.663 5.46342C210.597 5.66985 210.534 5.85047 210.473 6.00528L209.238 9.376L212.476 9.37895ZM215.816 13.2255L214.352 13.2241C214.188 13.224 214.054 13.184 213.951 13.1041C213.848 13.0195 213.77 12.9162 213.719 12.7942L212.96 10.7169L208.744 10.713L207.982 12.7889C207.944 12.8968 207.871 12.9953 207.763 13.0844C207.655 13.1735 207.521 13.2179 207.362 13.2178L205.884 13.2164L209.898 3.04119L211.827 3.04295L215.816 13.2255ZM222.997 4.60883L219.928 4.60603L219.92 13.2292L218.027 13.2275L218.035 4.60431L214.965 4.60151L214.967 3.04581L222.999 3.05314L222.997 4.60883ZM227.403 7.90022C227.759 7.90054 228.069 7.85624 228.332 7.76732C228.599 7.6784 228.818 7.55658 228.987 7.40187C229.161 7.24247 229.29 7.05487 229.375 6.83908C229.459 6.62328 229.502 6.38633 229.502 6.12822C229.502 5.612 229.331 5.2153 228.989 4.9381C228.651 4.66091 228.133 4.522 227.434 4.52136L226.223 4.52026L226.22 7.89914L227.403 7.90022ZM232.269 13.2405L230.558 13.2389C230.235 13.2386 230 13.1117 229.855 12.8581L227.718 9.59699C227.638 9.4749 227.549 9.388 227.451 9.33629C227.357 9.28458 227.216 9.25864 227.028 9.25847L226.219 9.25773L226.215 13.235L224.321 13.2332L224.331 3.05435L227.435 3.05718C228.125 3.05781 228.716 3.13109 229.209 3.27702C229.706 3.41826 230.112 3.61808 230.426 3.87647C230.745 4.13487 230.979 4.44482 231.129 4.80631C231.279 5.1631 231.354 5.55737 231.353 5.98912C231.353 6.3317 231.301 6.65546 231.198 6.96041C231.099 7.26535 230.953 7.5421 230.76 7.79065C230.572 8.0392 230.338 8.25721 230.056 8.44467C229.779 8.63213 229.462 8.77967 229.105 8.88728C229.227 8.95778 229.34 9.04236 229.443 9.141C229.546 9.23495 229.64 9.34767 229.724 9.47915L232.269 13.2405ZM237.276 9.30301L237.272 13.245L235.386 13.2433L235.389 9.30129L231.685 3.06106L233.353 3.06258C233.518 3.06273 233.647 3.10273 233.74 3.1826C233.839 3.26247 233.921 3.36344 233.987 3.48552L235.842 6.88721C235.95 7.0891 236.043 7.27925 236.123 7.45765C236.207 7.63606 236.282 7.81446 236.348 7.99285C236.409 7.81457 236.479 7.63631 236.559 7.45805C236.639 7.27979 236.731 7.08981 236.834 6.88811L238.689 3.4898C238.741 3.38661 238.818 3.29047 238.921 3.2014C239.025 3.11233 239.156 3.06787 239.316 3.06801L240.991 3.06954L237.276 9.30301Z" fill="#D0CDE1"/>
<path d="M7.61175 242.29C8.1702 242.29 8.67241 242.216 9.11837 242.066C9.55964 241.916 9.93526 241.703 10.2452 241.426C10.5505 241.145 10.7855 240.808 10.9501 240.413C11.1147 240.015 11.1973 239.567 11.1977 239.069C11.1982 238.572 11.1164 238.126 10.9525 237.731C10.7887 237.332 10.5543 236.994 10.2495 236.717C9.94006 236.44 9.56482 236.226 9.12383 236.076C8.67814 235.925 8.17607 235.849 7.61762 235.849C7.05916 235.848 6.5593 235.923 6.11803 236.073C5.67207 236.223 5.2941 236.436 4.98412 236.712C4.67413 236.989 4.43684 237.327 4.27222 237.725C4.10761 238.119 4.02508 238.565 4.02462 239.063C4.02417 239.56 4.10589 240.008 4.26978 240.407C4.43367 240.802 4.67035 241.14 4.97982 241.422C5.2893 241.699 5.66689 241.913 6.11257 242.063C6.55357 242.214 7.05329 242.289 7.61175 242.29ZM14.7014 233.392L14.7 234.954C14.6998 235.18 14.6691 235.384 14.6079 235.567C14.5468 235.745 14.434 235.909 14.2696 236.059L12.621 237.55C12.6865 237.789 12.7356 238.036 12.7682 238.289C12.8008 238.538 12.817 238.798 12.8168 239.071C12.8161 239.84 12.6864 240.542 12.4277 241.175C12.1643 241.808 11.8001 242.352 11.3351 242.807C10.8701 243.257 10.3207 243.606 9.68692 243.855C9.04846 244.103 8.35615 244.226 7.60998 244.226C6.86381 244.225 6.17407 244.1 5.54076 243.851C4.90275 243.601 4.35165 243.251 3.88747 242.8C3.42329 242.345 3.06243 241.8 2.8049 241.166C2.54268 240.533 2.41192 239.831 2.41262 239.061C2.41309 238.545 2.47454 238.059 2.59697 237.604C2.71471 237.149 2.88403 236.732 3.10494 236.352C3.32116 235.972 3.58662 235.632 3.90132 235.332C4.21133 235.027 4.55884 234.769 4.94385 234.558C5.32885 234.347 5.74667 234.188 6.19728 234.081C6.6479 233.969 7.12194 233.913 7.61938 233.913C8.07459 233.914 8.51099 233.961 8.92857 234.055C9.34146 234.149 9.7285 234.286 10.0897 234.464C10.4509 234.638 10.7839 234.852 11.0887 235.106C11.3888 235.36 11.6537 235.648 11.8833 235.972L14.7014 233.392ZM11.1865 228.164C11.1869 227.798 11.1262 227.471 11.0044 227.185C10.8827 226.894 10.7116 226.65 10.4912 226.452C10.2708 226.255 10.0035 226.105 9.68912 226.001C9.3748 225.893 9.02288 225.839 8.63337 225.838L2.53731 225.833L2.53903 223.939L8.6351 223.945C9.24048 223.945 9.80119 224.044 10.3172 224.242C10.8286 224.435 11.2718 224.714 11.6469 225.081C12.0173 225.442 12.3079 225.884 12.5186 226.405C12.7246 226.926 12.8273 227.513 12.8267 228.165C12.8261 228.822 12.7223 229.411 12.5154 229.932C12.3037 230.452 12.0123 230.896 11.6413 231.261C11.2655 231.622 10.8218 231.901 10.3101 232.098C9.79367 232.29 9.23278 232.385 8.6274 232.385L2.53134 232.379L2.53306 230.486L8.62209 230.491C9.0116 230.492 9.36361 230.44 9.67813 230.337C9.99265 230.23 10.2626 230.077 10.4881 229.881C10.7088 229.679 10.8803 229.435 11.0026 229.149C11.1249 228.858 11.1862 228.53 11.1865 228.164ZM8.88106 216.679L5.49401 217.915C5.34378 217.975 5.16539 218.039 4.95885 218.104C4.7523 218.17 4.52933 218.235 4.28993 218.301C4.52921 218.362 4.75441 218.425 4.96553 218.491C5.17196 218.557 5.35258 218.621 5.50739 218.682L8.87811 219.917L8.88106 216.679ZM12.7276 213.339L12.7262 214.803C12.7261 214.967 12.6861 215.101 12.6062 215.204C12.5216 215.307 12.4183 215.384 12.2963 215.436L10.219 216.194L10.2151 220.411L12.291 221.173C12.3989 221.211 12.4974 221.283 12.5865 221.391C12.6756 221.499 12.72 221.633 12.7199 221.793L12.7185 223.271L2.5433 219.256L2.54506 217.328L12.7276 213.339ZM2.55749 203.695L12.7364 203.704L12.7355 204.675C12.7353 204.826 12.7118 204.952 12.6647 205.056C12.613 205.154 12.5285 205.25 12.4111 205.344L5.6203 210.652C5.93006 210.625 6.21633 210.611 6.47914 210.611L12.7301 210.617L12.7285 212.285L2.54967 212.276L2.55057 211.283C2.55064 211.203 2.5554 211.135 2.56484 211.079C2.56958 211.018 2.58371 210.966 2.60721 210.924C2.62603 210.877 2.65657 210.833 2.69885 210.791C2.73643 210.748 2.78809 210.701 2.85384 210.65L9.67278 205.32C9.50852 205.334 9.3466 205.346 9.18703 205.355C9.02747 205.364 8.87964 205.369 8.74354 205.369L2.55597 205.363L2.55749 203.695ZM4.12173 194.32L4.11893 197.389L12.7421 197.397L12.7404 199.29L4.11721 199.282L4.11441 202.352L2.55872 202.35L2.56604 194.318L4.12173 194.32ZM12.7479 191.095L12.7461 192.996L2.56725 192.986L2.56899 191.086L12.7479 191.095ZM4.13324 181.698L4.13044 184.768L12.7536 184.775L12.7519 186.669L4.12871 186.661L4.12592 189.73L2.57022 189.729L2.57755 181.697L4.13324 181.698ZM8.91816 175.983L5.53111 177.218C5.38088 177.279 5.2025 177.343 4.99595 177.408C4.7894 177.474 4.56643 177.539 4.32703 177.605C4.56631 177.666 4.79152 177.729 5.00264 177.795C5.20906 177.861 5.38968 177.925 5.54449 177.986L8.91521 179.221L8.91816 175.983ZM12.7647 172.642L12.7634 174.107C12.7632 174.271 12.7232 174.405 12.6433 174.508C12.5588 174.611 12.4554 174.688 12.3334 174.74L10.2561 175.498L10.2522 179.715L12.3281 180.477C12.436 180.514 12.5345 180.587 12.6236 180.695C12.7127 180.803 12.7571 180.937 12.757 181.097L12.7556 182.575L2.5804 178.56L2.58216 176.632L12.7647 172.642ZM4.14804 165.461L4.14524 168.53L12.7684 168.538L12.7667 170.432L4.14352 170.424L4.14072 173.493L2.58503 173.492L2.59235 165.46L4.14804 165.461ZM12.7742 162.236L12.7724 164.137L2.59356 164.128L2.5953 162.227L12.7742 162.236ZM2.60533 151.226L12.7805 155.347L12.7789 157.057L2.59627 161.159L2.59766 159.638C2.59781 159.474 2.63782 159.34 2.71769 159.237C2.79756 159.134 2.90088 159.057 3.02763 159.005L9.23851 156.611C9.44038 156.531 9.66336 156.456 9.90746 156.386C10.1469 156.311 10.398 156.241 10.6609 156.175C10.3981 156.119 10.1471 156.058 9.90782 155.992C9.66385 155.926 9.441 155.853 9.23928 155.773L3.03276 153.381C2.92486 153.343 2.82637 153.27 2.73731 153.162C2.64825 153.05 2.60379 152.914 2.60393 152.754L2.60533 151.226ZM4.11444 148.274L6.93721 148.276L6.94046 144.714L8.3976 144.716L8.39435 148.278L11.2734 148.28L11.2776 143.761L12.791 143.762L12.7852 150.182L2.60629 150.173L2.61214 143.753L4.11856 143.754L4.11444 148.274Z" fill="#D0CDE1"/>
<path d="M158.605 372.502L158.602 375.325L162.164 375.328L162.163 376.785L158.601 376.782L158.598 379.661L163.118 379.665L163.116 381.179L156.696 381.173L156.706 370.994L163.126 371L163.124 372.506L158.605 372.502ZM173.525 371.009L169.405 381.185L167.695 381.183L163.593 371L165.113 371.002C165.278 371.002 165.411 371.042 165.515 371.122C165.618 371.202 165.695 371.305 165.747 371.432L168.141 377.643C168.221 377.845 168.296 378.068 168.366 378.312C168.441 378.551 168.511 378.802 168.577 379.065C168.633 378.802 168.694 378.551 168.76 378.312C168.826 378.068 168.899 377.845 168.979 377.643L171.371 371.437C171.409 371.329 171.482 371.231 171.59 371.141C171.702 371.052 171.838 371.008 171.998 371.008L173.525 371.009ZM179.14 377.35L177.904 373.963C177.843 373.813 177.78 373.634 177.715 373.428C177.649 373.221 177.584 372.998 177.518 372.759C177.457 372.998 177.393 373.223 177.328 373.434C177.262 373.641 177.198 373.822 177.137 373.976L175.902 377.347L179.14 377.35ZM182.48 381.197L181.016 381.195C180.852 381.195 180.718 381.155 180.615 381.075C180.512 380.991 180.435 380.887 180.383 380.765L179.625 378.688L175.408 378.684L174.646 380.76C174.608 380.868 174.535 380.966 174.427 381.055C174.319 381.145 174.186 381.189 174.026 381.189L172.548 381.187L176.563 371.012L178.491 371.014L182.48 381.197ZM189.498 379.64L189.496 381.203L183.534 381.198L183.543 371.019L185.437 371.02L185.429 379.636L189.498 379.64ZM194.672 379.68C195.038 379.68 195.364 379.62 195.65 379.498C195.941 379.376 196.185 379.205 196.383 378.985C196.58 378.764 196.73 378.497 196.834 378.183C196.942 377.868 196.997 377.516 196.997 377.127L197.002 371.031L198.896 371.033L198.89 377.129C198.89 377.734 198.791 378.295 198.593 378.811C198.4 379.322 198.121 379.765 197.754 380.14C197.393 380.511 196.951 380.801 196.43 381.012C195.909 381.218 195.322 381.321 194.67 381.32C194.013 381.32 193.424 381.216 192.903 381.009C192.383 380.797 191.94 380.506 191.574 380.135C191.213 379.759 190.934 379.315 190.737 378.804C190.545 378.287 190.45 377.726 190.45 377.121L190.456 371.025L192.349 371.027L192.344 377.116C192.344 377.505 192.395 377.857 192.498 378.172C192.605 378.486 192.758 378.756 192.955 378.982C193.156 379.202 193.4 379.374 193.686 379.496C193.977 379.618 194.306 379.68 194.672 379.68ZM206.156 377.375L204.921 373.988C204.86 373.837 204.796 373.659 204.731 373.452C204.665 373.246 204.6 373.023 204.534 372.784C204.473 373.023 204.41 373.248 204.344 373.459C204.278 373.666 204.214 373.846 204.153 374.001L202.918 377.372L206.156 377.375ZM209.497 381.221L208.032 381.22C207.868 381.22 207.734 381.18 207.631 381.1C207.528 381.015 207.451 380.912 207.399 380.79L206.641 378.713L202.424 378.709L201.662 380.785C201.625 380.893 201.552 380.991 201.444 381.08C201.336 381.169 201.202 381.214 201.042 381.213L199.564 381.212L203.579 371.037L205.507 371.039L209.497 381.221ZM216.678 372.605L213.609 372.602L213.601 381.225L211.707 381.223L211.715 372.6L208.646 372.597L208.647 371.042L216.679 371.049L216.678 372.605ZM219.903 381.231L218.002 381.229L218.011 371.05L219.912 371.052L219.903 381.231ZM230.913 371.062L226.792 381.237L225.082 381.235L220.98 371.053L222.501 371.054C222.665 371.054 222.799 371.094 222.902 371.174C223.005 371.254 223.082 371.357 223.134 371.484L225.528 377.695C225.608 377.897 225.683 378.12 225.753 378.364C225.828 378.603 225.898 378.854 225.964 379.117C226.02 378.855 226.081 378.604 226.147 378.364C226.213 378.12 226.286 377.897 226.366 377.696L228.758 371.489C228.796 371.381 228.869 371.283 228.977 371.194C229.089 371.105 229.225 371.06 229.385 371.06L230.913 371.062ZM233.865 372.571L233.863 375.394L237.425 375.397L237.423 376.854L233.861 376.851L233.859 379.73L238.378 379.734L238.377 381.248L231.957 381.242L231.966 371.063L238.386 371.069L238.385 372.575L233.865 372.571Z" fill="#D0CDE1"/>
<path d="M379.875 149.919C379.317 149.919 378.814 149.993 378.368 150.143C377.927 150.293 377.552 150.506 377.242 150.783C376.936 151.064 376.701 151.402 376.537 151.796C376.372 152.195 376.29 152.643 376.289 153.14C376.289 153.637 376.37 154.083 376.534 154.478C376.698 154.877 376.932 155.215 377.237 155.492C377.547 155.769 377.922 155.983 378.363 156.134C378.809 156.284 379.311 156.36 379.869 156.36C380.428 156.361 380.927 156.286 381.369 156.136C381.815 155.987 382.193 155.773 382.503 155.497C382.813 155.22 383.05 154.883 383.215 154.484C383.379 154.09 383.462 153.644 383.462 153.147C383.463 152.649 383.381 152.201 383.217 151.802C383.053 151.408 382.816 151.069 382.507 150.788C382.197 150.51 381.82 150.297 381.374 150.146C380.933 149.995 380.434 149.92 379.875 149.919ZM372.785 158.818L372.787 157.255C372.787 157.03 372.818 156.826 372.879 156.643C372.94 156.464 373.053 156.3 373.217 156.15L374.866 154.659C374.8 154.42 374.751 154.173 374.719 153.92C374.686 153.671 374.67 153.411 374.67 153.139C374.671 152.369 374.8 151.667 375.059 151.034C375.323 150.401 375.687 149.857 376.152 149.402C376.617 148.952 377.166 148.603 377.8 148.355C378.438 148.107 379.131 147.983 379.877 147.983C380.623 147.984 381.313 148.109 381.946 148.358C382.584 148.608 383.135 148.958 383.599 149.409C384.064 149.864 384.424 150.409 384.682 151.043C384.944 151.677 385.075 152.378 385.074 153.148C385.074 153.664 385.012 154.15 384.89 154.605C384.772 155.06 384.603 155.478 384.382 155.858C384.166 156.238 383.9 156.577 383.585 156.878C383.275 157.182 382.928 157.44 382.543 157.651C382.158 157.862 381.74 158.021 381.29 158.128C380.839 158.241 380.365 158.297 379.867 158.296C379.412 158.296 378.976 158.248 378.558 158.154C378.145 158.06 377.758 157.923 377.397 157.745C377.036 157.571 376.703 157.357 376.398 157.103C376.098 156.85 375.833 156.561 375.603 156.237L372.785 158.818ZM376.3 164.046C376.3 164.412 376.361 164.738 376.482 165.024C376.604 165.315 376.775 165.56 376.996 165.757C377.216 165.954 377.483 166.105 377.798 166.208C378.112 166.316 378.464 166.371 378.853 166.371L384.949 166.377L384.948 168.27L378.852 168.265C378.246 168.264 377.686 168.165 377.17 167.967C376.658 167.774 376.215 167.495 375.84 167.128C375.469 166.767 375.179 166.325 374.968 165.804C374.762 165.283 374.66 164.696 374.66 164.044C374.661 163.387 374.764 162.798 374.971 162.278C375.183 161.757 375.474 161.314 375.846 160.948C376.221 160.587 376.665 160.308 377.177 160.111C377.693 159.92 378.254 159.824 378.859 159.824L384.955 159.83L384.954 161.724L378.865 161.718C378.475 161.718 378.123 161.769 377.809 161.872C377.494 161.98 377.224 162.132 376.999 162.329C376.778 162.53 376.606 162.774 376.484 163.06C376.362 163.351 376.301 163.68 376.3 164.046ZM378.606 175.53L381.993 174.295C382.143 174.234 382.321 174.171 382.528 174.105C382.734 174.04 382.957 173.974 383.197 173.909C382.958 173.847 382.732 173.784 382.521 173.718C382.315 173.652 382.134 173.588 381.979 173.527L378.609 172.292L378.606 175.53ZM374.759 178.871L374.761 177.406C374.761 177.242 374.801 177.108 374.881 177.005C374.965 176.902 375.068 176.825 375.191 176.773L377.268 176.015L377.272 171.798L375.196 171.036C375.088 170.999 374.989 170.926 374.9 170.818C374.811 170.71 374.767 170.576 374.767 170.416L374.768 168.938L384.943 172.953L384.942 174.882L374.759 178.871ZM376.316 185.888L374.753 185.887L374.758 179.924L384.937 179.934L384.935 181.827L376.319 181.819L376.316 185.888ZM374.75 189.139L374.752 187.239L384.93 187.248L384.929 189.148L374.75 189.139ZM383.364 198.536L383.367 195.467L374.744 195.459L374.746 193.565L383.369 193.573L383.372 190.504L384.927 190.505L384.92 198.537L383.364 198.536ZM378.58 204.251L381.967 203.016C382.117 202.955 382.295 202.892 382.502 202.826C382.708 202.761 382.931 202.695 383.171 202.63C382.931 202.568 382.706 202.505 382.495 202.439C382.289 202.373 382.108 202.309 381.953 202.248L378.583 201.013L378.58 204.251ZM374.733 207.592L374.734 206.127C374.735 205.963 374.775 205.83 374.854 205.726C374.939 205.623 375.042 205.546 375.164 205.494L377.242 204.736L377.245 200.519L375.17 199.757C375.062 199.72 374.963 199.647 374.874 199.539C374.785 199.431 374.741 199.297 374.741 199.137L374.742 197.659L384.917 201.674L384.916 203.603L374.733 207.592ZM383.35 214.773L383.352 211.704L374.729 211.696L374.731 209.802L383.354 209.81L383.357 206.741L384.913 206.742L384.905 214.774L383.35 214.773ZM374.724 217.998L374.725 216.097L384.904 216.106L384.902 218.007L374.724 217.998ZM384.892 229.008L374.717 224.887L374.719 223.177L384.901 219.075L384.9 220.596C384.9 220.76 384.86 220.894 384.78 220.997C384.7 221.1 384.597 221.177 384.47 221.229L378.259 223.624C378.057 223.703 377.834 223.778 377.59 223.848C377.351 223.923 377.1 223.993 376.837 224.059C377.1 224.115 377.351 224.176 377.59 224.242C377.834 224.308 378.057 224.381 378.258 224.461L384.465 226.853C384.573 226.891 384.671 226.964 384.76 227.072C384.849 227.184 384.894 227.321 384.894 227.48L384.892 229.008ZM383.383 231.961L380.561 231.958L380.557 235.52L379.1 235.519L379.103 231.957L376.224 231.954L376.22 236.473L374.707 236.472L374.713 230.052L384.891 230.061L384.886 236.481L383.379 236.48L383.383 231.961Z" fill="#D0CDE1"/>
</svg>
