<svg width="1362" height="943" viewBox="0 0 1362 943" fill="none" xmlns="http://www.w3.org/2000/svg">
<path d="M314.476 824L199 651.5L314.476 479L695 479V824H314.476Z" fill="#4FC0BA"/>
<path d="M314 111.607L505.508 11L694 111.607V479H314V111.607Z" fill="#42B1CA"/>
<path d="M1061 824L877.5 916.053L695 824L694 479H1061L1061 824Z" fill="#1D6A71"/>
<path d="M1060.67 479L1178 296L1060.67 113L694 113V479L1060.67 479Z" fill="#1A5373"/>
<g opacity="0.7">
<mask maskUnits="userSpaceOnUse" x="0" y="0" width="0" height="0" fill="black">
<rect fill="white" width="0" height="0"/>
</mask>
<path d="M691.544 38L665.312 83.4349L717.775 83.4349L691.544 38ZM691.544 898L717.775 852.565L665.312 852.565L691.544 898ZM687 78.8914L687 857.109L696.087 857.109L696.087 78.8914L687 78.8914Z" fill="white" fill-opacity="0.4" mask="url(#)"/>
<path d="M220 483L265.435 509.232V456.768L220 483ZM1152 483L1106.57 456.768V509.232L1152 483ZM260.891 487.543H1111.11V478.457H260.891V487.543Z" fill="white" fill-opacity="0.4"/>
</g>
<path d="M605.886 10.3414V16.4145H613.55V19.5495H605.886V25.7438H615.61V29H601.797V7.10037H615.61V10.3414H605.886ZM637.015 29H632.956C632.674 29 632.447 28.9293 632.275 28.788C632.113 28.6466 631.982 28.4851 631.881 28.3033L626.808 19.8979C626.727 20.1503 626.631 20.3674 626.52 20.5491L621.658 28.3033C621.537 28.475 621.396 28.6365 621.234 28.788C621.083 28.9293 620.881 29 620.628 29H616.827L624.097 17.7321L617.115 7.10037H621.174C621.456 7.10037 621.658 7.14075 621.779 7.22153C621.911 7.2922 622.032 7.41336 622.143 7.58501L627.126 15.6118C627.227 15.3594 627.348 15.107 627.489 14.8546L632.063 7.66073C632.174 7.4689 632.295 7.32754 632.426 7.23667C632.558 7.1458 632.724 7.10037 632.926 7.10037H636.818L629.776 17.5655L637.015 29ZM646.66 18.1108C647.407 18.1108 648.058 18.0199 648.613 17.8382C649.169 17.6463 649.628 17.3788 649.991 17.0355C650.365 16.6821 650.643 16.258 650.824 15.7633C651.006 15.2585 651.097 14.6981 651.097 14.0822C651.097 13.4966 651.006 12.9665 650.824 12.492C650.643 12.0174 650.37 11.6136 650.007 11.2804C649.643 10.9472 649.184 10.6948 648.628 10.5231C648.073 10.3414 647.417 10.2505 646.66 10.2505H643.615V18.1108H646.66ZM646.66 7.10037C648.124 7.10037 649.391 7.27201 650.461 7.6153C651.531 7.95858 652.415 8.43817 653.111 9.05407C653.808 9.66997 654.323 10.407 654.656 11.2652C654.999 12.1235 655.171 13.0624 655.171 14.0822C655.171 15.1423 654.994 16.1167 654.641 17.0052C654.288 17.8836 653.758 18.6408 653.051 19.2769C652.344 19.913 651.455 20.4078 650.385 20.7611C649.325 21.1145 648.083 21.2912 646.66 21.2912H643.615V29H639.541V7.10037H646.66ZM671.123 25.6378V29H658.295V7.10037H662.369V25.6378H671.123ZM694.148 18.0502C694.148 19.6556 693.88 21.1448 693.345 22.518C692.82 23.881 692.073 25.0623 691.103 26.0619C690.134 27.0614 688.968 27.8439 687.605 28.4093C686.242 28.9647 684.727 29.2423 683.061 29.2423C681.406 29.2423 679.896 28.9647 678.533 28.4093C677.17 27.8439 675.999 27.0614 675.019 26.0619C674.05 25.0623 673.298 23.881 672.763 22.518C672.228 21.1448 671.96 19.6556 671.96 18.0502C671.96 16.4448 672.228 14.9606 672.763 13.5976C673.298 12.2244 674.05 11.0381 675.019 10.0385C675.999 9.03892 677.17 8.26148 678.533 7.70617C679.896 7.14076 681.406 6.85805 683.061 6.85805C684.172 6.85805 685.217 6.98931 686.196 7.25182C687.176 7.50423 688.074 7.86771 688.892 8.34226C689.71 8.8067 690.442 9.37716 691.088 10.0536C691.745 10.72 692.3 11.4672 692.754 12.2951C693.209 13.123 693.552 14.0216 693.784 14.9909C694.026 15.9602 694.148 16.9799 694.148 18.0502ZM689.983 18.0502C689.983 16.8487 689.821 15.7734 689.498 14.8243C689.175 13.8651 688.716 13.0523 688.12 12.386C687.524 11.7196 686.797 11.2097 685.939 10.8563C685.091 10.5029 684.132 10.3262 683.061 10.3262C681.991 10.3262 681.027 10.5029 680.169 10.8563C679.321 11.2097 678.594 11.7196 677.988 12.386C677.392 13.0523 676.933 13.8651 676.61 14.8243C676.287 15.7734 676.125 16.8487 676.125 18.0502C676.125 19.2517 676.287 20.332 676.61 21.2912C676.933 22.2403 677.392 23.048 677.988 23.7144C678.594 24.3707 679.321 24.8755 680.169 25.2289C681.027 25.5823 681.991 25.759 683.061 25.759C684.132 25.759 685.091 25.5823 685.939 25.2289C686.797 24.8755 687.524 24.3707 688.12 23.7144C688.716 23.048 689.175 22.2403 689.498 21.2912C689.821 20.332 689.983 19.2517 689.983 18.0502ZM704.344 17.5201C705.111 17.5201 705.777 17.4242 706.343 17.2324C706.918 17.0405 707.388 16.778 707.751 16.4448C708.125 16.1015 708.403 15.6977 708.584 15.2332C708.766 14.7688 708.857 14.2589 708.857 13.7036C708.857 12.5929 708.488 11.7398 707.751 11.1441C707.024 10.5484 705.909 10.2505 704.404 10.2505H701.799V17.5201H704.344ZM714.824 29H711.144C710.447 29 709.942 28.7274 709.629 28.1822L705.025 21.17C704.854 20.9075 704.662 20.7207 704.45 20.6097C704.248 20.4986 703.945 20.4431 703.541 20.4431H701.799V29H697.725V7.10037H704.404C705.889 7.10037 707.161 7.25687 708.221 7.56986C709.291 7.87276 710.164 8.30187 710.841 8.85719C711.527 9.4125 712.032 10.0789 712.355 10.8563C712.679 11.6237 712.84 12.4718 712.84 13.4007C712.84 14.1377 712.729 14.8344 712.507 15.4907C712.295 16.147 711.982 16.7427 711.568 17.2778C711.164 17.8129 710.659 18.2824 710.053 18.6863C709.458 19.0901 708.776 19.4082 708.009 19.6404C708.271 19.7919 708.514 19.9736 708.736 20.1856C708.958 20.3876 709.16 20.6299 709.342 20.9126L714.824 29ZM728.76 20.7308L726.094 13.4461C725.963 13.123 725.827 12.7393 725.685 12.2951C725.544 11.8508 725.403 11.3713 725.261 10.8563C725.13 11.3713 724.994 11.8559 724.852 12.3102C724.711 12.7545 724.575 13.1432 724.443 13.4764L721.793 20.7308H728.76ZM735.954 29H732.803C732.45 29 732.162 28.9142 731.94 28.7425C731.718 28.5608 731.552 28.3387 731.44 28.0762L729.805 23.6084H720.733L719.097 28.0762C719.017 28.3084 718.86 28.5204 718.628 28.7122C718.396 28.9041 718.108 29 717.765 29H714.584L723.202 7.10037H727.351L735.954 29ZM751.387 10.4474H744.784V29H740.71V10.4474H734.107V7.10037H751.387V10.4474ZM760.871 17.5201C761.638 17.5201 762.305 17.4242 762.87 17.2324C763.446 17.0405 763.915 16.778 764.279 16.4448C764.652 16.1015 764.93 15.6977 765.112 15.2332C765.293 14.7688 765.384 14.2589 765.384 13.7036C765.384 12.5929 765.016 11.7398 764.279 11.1441C763.552 10.5484 762.436 10.2505 760.932 10.2505H758.327V17.5201H760.871ZM771.351 29H767.671C766.975 29 766.47 28.7274 766.157 28.1822L761.553 21.17C761.381 20.9075 761.189 20.7207 760.977 20.6097C760.775 20.4986 760.472 20.4431 760.068 20.4431H758.327V29H754.253V7.10037H760.932C762.416 7.10037 763.688 7.25687 764.748 7.56986C765.819 7.87276 766.692 8.30187 767.368 8.85719C768.055 9.4125 768.56 10.0789 768.883 10.8563C769.206 11.6237 769.367 12.4718 769.367 13.4007C769.367 14.1377 769.256 14.8344 769.034 15.4907C768.822 16.147 768.509 16.7427 768.095 17.2778C767.691 17.8129 767.187 18.2824 766.581 18.6863C765.985 19.0901 765.304 19.4082 764.536 19.6404C764.799 19.7919 765.041 19.9736 765.263 20.1856C765.485 20.3876 765.687 20.6299 765.869 20.9126L771.351 29ZM782.116 20.5188V29H778.057V20.5188L770.076 7.10037H773.665C774.018 7.10037 774.296 7.18619 774.498 7.35783C774.71 7.52948 774.887 7.74655 775.028 8.00907L779.026 15.3241C779.258 15.7582 779.46 16.1672 779.632 16.5508C779.814 16.9345 779.975 17.3182 780.117 17.7018C780.248 17.3182 780.399 16.9345 780.571 16.5508C780.743 16.1672 780.94 15.7582 781.162 15.3241L785.145 8.00907C785.256 7.78694 785.422 7.57996 785.645 7.38812C785.867 7.19629 786.149 7.10037 786.493 7.10037H790.097L782.116 20.5188Z" fill="#D0CDE1"/>
<path d="M611.055 923.341V929.415H618.719V932.55H611.055V938.744H620.778V942H606.966V920.1H620.778V923.341H611.055ZM643.153 920.1L634.309 942H630.628L621.784 920.1H625.055C625.408 920.1 625.696 920.186 625.918 920.358C626.14 920.529 626.307 920.752 626.418 921.024L631.583 934.382C631.754 934.816 631.916 935.296 632.067 935.821C632.229 936.336 632.38 936.876 632.522 937.441C632.643 936.876 632.774 936.336 632.915 935.821C633.057 935.296 633.213 934.816 633.385 934.382L638.519 921.024C638.6 920.792 638.756 920.58 638.988 920.388C639.231 920.196 639.524 920.1 639.867 920.1H643.153ZM655.246 933.731L652.58 926.446C652.449 926.123 652.313 925.739 652.171 925.295C652.03 924.851 651.889 924.371 651.747 923.856C651.616 924.371 651.48 924.856 651.338 925.31C651.197 925.754 651.061 926.143 650.929 926.476L648.279 933.731H655.246ZM662.44 942H659.289C658.936 942 658.648 941.914 658.426 941.743C658.204 941.561 658.037 941.339 657.926 941.076L656.291 936.608H647.219L645.583 941.076C645.502 941.308 645.346 941.52 645.114 941.712C644.881 941.904 644.594 942 644.25 942H641.07L649.687 920.1H653.837L662.44 942ZM677.534 938.638V942H664.706V920.1H668.78V938.638H677.534ZM688.666 938.714C689.453 938.714 690.155 938.582 690.771 938.32C691.397 938.057 691.922 937.689 692.346 937.214C692.77 936.74 693.093 936.164 693.315 935.488C693.547 934.811 693.663 934.054 693.663 933.216V920.1H697.737V933.216C697.737 934.518 697.525 935.725 697.101 936.836C696.687 937.936 696.087 938.89 695.299 939.698C694.522 940.496 693.573 941.122 692.452 941.576C691.331 942.02 690.069 942.242 688.666 942.242C687.252 942.242 685.985 942.02 684.864 941.576C683.744 941.122 682.789 940.496 682.002 939.698C681.224 938.89 680.624 937.936 680.2 936.836C679.786 935.725 679.579 934.518 679.579 933.216V920.1H683.653V933.201C683.653 934.039 683.764 934.796 683.986 935.473C684.218 936.149 684.546 936.73 684.97 937.214C685.404 937.689 685.929 938.057 686.545 938.32C687.171 938.582 687.878 938.714 688.666 938.714ZM713.37 933.731L710.705 926.446C710.574 926.123 710.437 925.739 710.296 925.295C710.155 924.851 710.013 924.371 709.872 923.856C709.741 924.371 709.604 924.856 709.463 925.31C709.322 925.754 709.185 926.143 709.054 926.476L706.404 933.731H713.37ZM720.564 942H717.414C717.061 942 716.773 941.914 716.551 941.743C716.329 941.561 716.162 941.339 716.051 941.076L714.415 936.608H705.344L703.708 941.076C703.627 941.308 703.471 941.52 703.238 941.712C703.006 941.904 702.718 942 702.375 942H699.195L707.812 920.1H711.962L720.564 942ZM735.998 923.447H729.394V942H725.32V923.447H718.717V920.1H735.998V923.447ZM742.953 942H738.863V920.1H742.953V942ZM766.62 920.1L757.776 942H754.095L745.251 920.1H748.522C748.875 920.1 749.163 920.186 749.385 920.358C749.607 920.529 749.774 920.752 749.885 921.024L755.05 934.382C755.221 934.816 755.383 935.296 755.534 935.821C755.696 936.336 755.847 936.876 755.989 937.441C756.11 936.876 756.241 936.336 756.382 935.821C756.524 935.296 756.68 934.816 756.852 934.382L761.986 921.024C762.067 920.792 762.223 920.58 762.455 920.388C762.698 920.196 762.991 920.1 763.334 920.1H766.62ZM772.976 923.341V929.415H780.64V932.55H772.976V938.744H782.699V942H768.887V920.1H782.699V923.341H772.976Z" fill="#D0CDE1"/>
<path d="M16.4338 475.341V481.415H24.0972L24.0972 484.55H16.4338V490.744H26.1569V494H12.3447L12.3447 472.1H26.1569V475.341H16.4338ZM48.532 472.1L39.6873 494H36.0071L27.1624 472.1H30.4337C30.7871 472.1 31.0748 472.186 31.297 472.358C31.5191 472.529 31.6857 472.752 31.7968 473.024L36.9612 486.382C37.1328 486.816 37.2944 487.296 37.4458 487.821C37.6074 488.336 37.7588 488.876 37.9002 489.441C38.0213 488.876 38.1526 488.336 38.294 487.821C38.4353 487.296 38.5918 486.816 38.7634 486.382L43.8976 473.024C43.9784 472.792 44.1349 472.58 44.3671 472.388C44.6094 472.196 44.9022 472.1 45.2455 472.1H48.532ZM60.6243 485.731L57.9588 478.446C57.8275 478.123 57.6912 477.739 57.5498 477.295C57.4085 476.851 57.2671 476.371 57.1258 475.856C56.9945 476.371 56.8582 476.856 56.7169 477.31C56.5755 477.754 56.4392 478.143 56.3079 478.476L53.6576 485.731H60.6243ZM67.8181 494H64.668C64.3146 494 64.0268 493.914 63.8047 493.743C63.5826 493.561 63.416 493.339 63.3049 493.076L61.6693 488.608H52.5974L50.9618 493.076C50.881 493.308 50.7245 493.52 50.4923 493.712C50.2601 493.904 49.9723 494 49.629 494H46.4486L55.0661 472.1H59.2158L67.8181 494ZM82.9127 490.638V494H70.0849V472.1H74.1589V490.638H82.9127ZM94.0442 490.714C94.8318 490.714 95.5335 490.582 96.1494 490.32C96.7754 490.057 97.3004 489.689 97.7245 489.214C98.1485 488.74 98.4716 488.164 98.6938 487.488C98.926 486.811 99.0421 486.054 99.0421 485.216V472.1H103.116V485.216C103.116 486.518 102.904 487.725 102.48 488.836C102.066 489.936 101.465 490.89 100.678 491.698C99.9003 492.496 98.9512 493.122 97.8305 493.576C96.7098 494.02 95.4477 494.242 94.0442 494.242C92.6307 494.242 91.3636 494.02 90.2429 493.576C89.1221 493.122 88.168 492.496 87.3805 491.698C86.603 490.89 86.0023 489.936 85.5782 488.836C85.1642 487.725 84.9573 486.518 84.9573 485.216V472.1H89.0313V485.201C89.0313 486.039 89.1423 486.796 89.3645 487.473C89.5967 488.149 89.9248 488.73 90.3489 489.214C90.783 489.689 91.3081 490.057 91.924 490.32C92.5499 490.582 93.2567 490.714 94.0442 490.714ZM118.749 485.731L116.083 478.446C115.952 478.123 115.816 477.739 115.675 477.295C115.533 476.851 115.392 476.371 115.251 475.856C115.119 476.371 114.983 476.856 114.842 477.31C114.7 477.754 114.564 478.143 114.433 478.476L111.782 485.731H118.749ZM125.943 494H122.793C122.439 494 122.152 493.914 121.929 493.743C121.707 493.561 121.541 493.339 121.43 493.076L119.794 488.608H110.722L109.087 493.076C109.006 493.308 108.849 493.52 108.617 493.712C108.385 493.904 108.097 494 107.754 494H104.573L113.191 472.1H117.341L125.943 494ZM141.376 475.447H134.773V494H130.699V475.447H124.096V472.1H141.376V475.447ZM148.331 494H144.242V472.1H148.331V494ZM171.999 472.1L163.154 494H159.474L150.629 472.1H153.901C154.254 472.1 154.542 472.186 154.764 472.358C154.986 472.529 155.153 472.752 155.264 473.024L160.428 486.382C160.6 486.816 160.761 487.296 160.913 487.821C161.074 488.336 161.226 488.876 161.367 489.441C161.488 488.876 161.62 488.336 161.761 487.821C161.902 487.296 162.059 486.816 162.23 486.382L167.365 473.024C167.445 472.792 167.602 472.58 167.834 472.388C168.076 472.196 168.369 472.1 168.713 472.1H171.999ZM178.355 475.341V481.415H186.018V484.55H178.355V490.744H188.078V494H174.266V472.1L188.078 472.1V475.341L178.355 475.341Z" fill="#D0CDE1"/>
<path d="M1172.4 485.05C1172.4 486.252 1172.56 487.332 1172.89 488.291C1173.21 489.24 1173.67 490.048 1174.26 490.714C1174.87 491.371 1175.6 491.876 1176.44 492.229C1177.3 492.582 1178.27 492.759 1179.34 492.759C1180.41 492.759 1181.37 492.582 1182.22 492.229C1183.07 491.876 1183.8 491.371 1184.4 490.714C1184.99 490.048 1185.45 489.24 1185.77 488.291C1186.1 487.332 1186.26 486.252 1186.26 485.05C1186.26 483.849 1186.1 482.773 1185.77 481.824C1185.45 480.865 1184.99 480.052 1184.4 479.386C1183.8 478.72 1183.07 478.21 1182.22 477.856C1181.37 477.503 1180.41 477.326 1179.34 477.326C1178.27 477.326 1177.3 477.503 1176.44 477.856C1175.6 478.21 1174.87 478.72 1174.26 479.386C1173.67 480.052 1173.21 480.865 1172.89 481.824C1172.56 482.773 1172.4 483.849 1172.4 485.05ZM1191.56 500.286H1188.2C1187.71 500.286 1187.27 500.22 1186.88 500.089C1186.5 499.958 1186.14 499.716 1185.82 499.362L1182.61 495.818C1182.09 495.96 1181.56 496.066 1181.02 496.136C1180.48 496.207 1179.92 496.242 1179.34 496.242C1177.68 496.242 1176.17 495.965 1174.81 495.409C1173.45 494.844 1172.28 494.061 1171.3 493.062C1170.33 492.062 1169.57 490.881 1169.04 489.518C1168.5 488.145 1168.24 486.656 1168.24 485.05C1168.24 483.445 1168.5 481.961 1169.04 480.598C1169.57 479.224 1170.33 478.038 1171.3 477.038C1172.28 476.039 1173.45 475.261 1174.81 474.706C1176.17 474.141 1177.68 473.858 1179.34 473.858C1180.45 473.858 1181.49 473.989 1182.47 474.252C1183.45 474.504 1184.35 474.868 1185.17 475.342C1185.99 475.807 1186.72 476.377 1187.36 477.054C1188.02 477.72 1188.58 478.467 1189.03 479.295C1189.48 480.123 1189.83 481.022 1190.06 481.991C1190.3 482.96 1190.42 483.98 1190.42 485.05C1190.42 486.03 1190.32 486.969 1190.12 487.867C1189.92 488.756 1189.63 489.589 1189.24 490.366C1188.87 491.144 1188.41 491.86 1187.86 492.517C1187.32 493.163 1186.7 493.733 1186 494.228L1191.56 500.286ZM1202.8 492.714C1203.59 492.714 1204.29 492.582 1204.91 492.32C1205.53 492.057 1206.06 491.689 1206.48 491.214C1206.91 490.74 1207.23 490.164 1207.45 489.488C1207.68 488.811 1207.8 488.054 1207.8 487.216V474.1H1211.87V487.216C1211.87 488.518 1211.66 489.725 1211.24 490.836C1210.82 491.936 1210.22 492.89 1209.43 493.698C1208.66 494.496 1207.71 495.122 1206.59 495.576C1205.47 496.02 1204.2 496.242 1202.8 496.242C1201.39 496.242 1200.12 496.02 1199 495.576C1197.88 495.122 1196.92 494.496 1196.14 493.698C1195.36 492.89 1194.76 491.936 1194.33 490.836C1193.92 489.725 1193.71 488.518 1193.71 487.216V474.1H1197.79V487.201C1197.79 488.039 1197.9 488.796 1198.12 489.473C1198.35 490.149 1198.68 490.73 1199.11 491.214C1199.54 491.689 1200.06 492.057 1200.68 492.32C1201.31 492.582 1202.01 492.714 1202.8 492.714ZM1227.51 487.731L1224.84 480.446C1224.71 480.123 1224.57 479.739 1224.43 479.295C1224.29 478.851 1224.15 478.371 1224.01 477.856C1223.88 478.371 1223.74 478.856 1223.6 479.31C1223.46 479.754 1223.32 480.143 1223.19 480.476L1220.54 487.731H1227.51ZM1234.7 496H1231.55C1231.2 496 1230.91 495.914 1230.69 495.743C1230.46 495.561 1230.3 495.339 1230.19 495.076L1228.55 490.608H1219.48L1217.84 495.076C1217.76 495.308 1217.61 495.52 1217.37 495.712C1217.14 495.904 1216.85 496 1216.51 496H1213.33L1221.95 474.1H1226.1L1234.7 496ZM1249.79 492.638V496H1236.97V474.1H1241.04V492.638H1249.79ZM1256.79 496H1252.7V474.1H1256.79V496ZM1276.99 477.447H1270.39V496H1266.31V477.447H1259.71V474.1H1276.99V477.447ZM1289.3 487.731L1286.63 480.446C1286.5 480.123 1286.37 479.739 1286.22 479.295C1286.08 478.851 1285.94 478.371 1285.8 477.856C1285.67 478.371 1285.53 478.856 1285.39 479.31C1285.25 479.754 1285.11 480.143 1284.98 480.476L1282.33 487.731H1289.3ZM1296.49 496H1293.34C1292.99 496 1292.7 495.914 1292.48 495.743C1292.26 495.561 1292.09 495.339 1291.98 495.076L1290.34 490.608H1281.27L1279.64 495.076C1279.55 495.308 1279.4 495.52 1279.17 495.712C1278.93 495.904 1278.65 496 1278.3 496H1275.12L1283.74 474.1H1287.89L1296.49 496ZM1311.93 477.447H1305.32V496H1301.25V477.447H1294.65V474.1H1311.93V477.447ZM1318.88 496H1314.79V474.1H1318.88V496ZM1342.55 474.1L1333.7 496H1330.02L1321.18 474.1H1324.45C1324.8 474.1 1325.09 474.186 1325.31 474.358C1325.54 474.529 1325.7 474.752 1325.81 475.024L1330.98 488.382C1331.15 488.816 1331.31 489.296 1331.46 489.821C1331.62 490.336 1331.78 490.876 1331.92 491.441C1332.04 490.876 1332.17 490.336 1332.31 489.821C1332.45 489.296 1332.61 488.816 1332.78 488.382L1337.91 475.024C1337.99 474.792 1338.15 474.58 1338.38 474.388C1338.63 474.196 1338.92 474.1 1339.26 474.1H1342.55ZM1348.9 477.341V483.415H1356.57V486.55H1348.9V492.744H1358.63V496L1344.81 496V474.1L1358.63 474.1V477.341L1348.9 477.341Z" fill="#D0CDE1"/>
</svg>
