<svg width="332" height="361" viewBox="0 0 332 361" fill="none" xmlns="http://www.w3.org/2000/svg">
<g clip-path="url(#clip0)">
<path d="M92.7328 34.4549C88.5769 34.4549 85.2078 30.9112 85.2078 26.5399C85.2078 22.1686 88.5769 18.625 92.7328 18.625C96.8888 18.625 100.258 22.1686 100.258 26.5399C100.258 30.9112 96.8888 34.4549 92.7328 34.4549Z" fill="#F1F1F1"/>
<path d="M137.102 340.742C132.946 340.742 129.576 337.198 129.576 332.827C129.576 328.455 132.946 324.912 137.102 324.912C141.258 324.912 144.627 328.455 144.627 332.827C144.627 337.198 141.258 340.742 137.102 340.742Z" fill="#F1F1F1"/>
<path d="M324.266 110.624C320.11 110.624 316.741 107.081 316.741 102.709C316.741 98.3381 320.11 94.7944 324.266 94.7944C328.422 94.7944 331.791 98.3381 331.791 102.709C331.791 107.081 328.422 110.624 324.266 110.624Z" fill="#F1F1F1"/>
<path d="M6.30219 94.0007L267.128 11.6206L330.05 232.016L69.2243 314.396L6.30219 94.0007Z" fill="#F1F1F1"/>
<path d="M162.601 76.1121L100.821 102.377" stroke="#333246" stroke-width="2" stroke-miterlimit="10"/>
<path d="M161.031 81.512L160.106 81.0577L162.238 76.2671L157.539 74.38L157.905 73.3774L163.627 75.677L161.031 81.512Z" fill="#333246"/>
<path d="M105.518 105.113L105.883 104.11L101.185 102.224L103.317 97.4324L102.392 96.978L99.7959 102.814L105.518 105.113Z" fill="#333246"/>
<path d="M131.711 95.1449C128.613 95.1449 126.101 92.5032 126.101 89.2444C126.101 85.9857 128.613 83.344 131.711 83.344C134.809 83.344 137.321 85.9857 137.321 89.2444C137.321 92.5032 134.809 95.1449 131.711 95.1449Z" fill="#333246"/>
<path d="M167.309 258.198L110.393 221.75" stroke="#333246" stroke-width="2" stroke-miterlimit="10"/>
<path d="M162.253 260.098L162.047 259.046L166.974 257.985L165.609 252.894L166.591 252.603L168.253 258.804L162.253 260.098Z" fill="#333246"/>
<path d="M111.11 227.346L112.093 227.055L110.727 221.964L115.654 220.903L115.448 219.852L109.447 221.145L111.11 227.346Z" fill="#333246"/>
<path d="M138.851 245.874C135.753 245.874 133.241 243.233 133.241 239.974C133.241 236.715 135.753 234.073 138.851 234.073C141.949 234.073 144.461 236.715 144.461 239.974C144.461 243.233 141.949 245.874 138.851 245.874Z" fill="#333246"/>
<path d="M238.818 142.707L238.798 212.795" stroke="#333246" stroke-width="2" stroke-miterlimit="10"/>
<path d="M242.988 146.264L242.241 146.995L238.819 143.119L235.393 146.993L234.647 146.261L238.819 141.544L242.988 146.264Z" fill="#333246"/>
<path d="M242.97 209.242L242.223 208.509L238.799 212.383L235.375 208.507L234.628 209.239L238.798 213.958L242.97 209.242Z" fill="#333246"/>
<path d="M238.808 183.651C235.709 183.651 233.198 181.01 233.198 177.751C233.198 174.492 235.709 171.851 238.808 171.851C241.906 171.851 244.418 174.492 244.418 177.751C244.418 181.01 241.906 183.651 238.808 183.651Z" fill="#333246"/>
<path d="M193.284 0H286.101V121.227H193.284V0Z" fill="#333246"/>
<path d="M245.496 45.13H266.56C267.997 36.3895 267.997 27.4543 266.56 18.7139H245.496C247.869 27.3424 247.869 36.5015 245.496 45.13Z" fill="#34C1CF"/>
<path d="M233.89 58.5282H212.826C211.388 49.7877 211.388 40.8525 212.826 32.1121H233.89C231.517 40.7406 231.517 49.8997 233.89 58.5282Z" fill="#3C60B9"/>
<path d="M253.779 102.513H232.715C231.277 93.7728 231.277 84.8376 232.715 76.0972H253.779C251.406 84.7257 251.406 93.8848 253.779 102.513Z" fill="#3C60B9"/>
<path d="M-9.15527e-05 115.327H92.8171V236.554H-9.15527e-05V115.327Z" fill="#333246"/>
<path d="M13.2596 141.074H79.5576V144.293H13.2596V141.074Z" fill="#3C60B9"/>
<path d="M13.2596 152.339H79.5576V155.557H13.2596V152.339Z" fill="#3C60B9"/>
<path d="M13.2596 163.603H79.5576V166.822H13.2596V163.603Z" fill="#3C60B9"/>
<path d="M13.2596 174.868H79.5576V178.086H13.2596V174.868Z" fill="#3C60B9"/>
<path d="M13.2596 186.132H79.5576V189.351H13.2596V186.132Z" fill="#3C60B9"/>
<path d="M29.0693 197.933H63.7482V210.807H29.0693V197.933Z" fill="#3C60B9"/>
<path d="M185.124 239.773H277.942V361H185.124V239.773Z" fill="#333246"/>
<path d="M198.233 307.256H264.531V310.474H198.233V307.256Z" fill="#3C60B9"/>
<path d="M198.233 318.52H264.531V321.738H198.233V318.52Z" fill="#3C60B9"/>
<path d="M198.233 329.785H264.531V333.003H198.233V329.785Z" fill="#3C60B9"/>
<path d="M198.233 341.049H264.531V344.267H198.233V341.049Z" fill="#3C60B9"/>
<path opacity="0.3" d="M244.221 282.921H265.285C266.722 274.181 266.722 265.246 265.285 256.505H244.221C246.594 265.134 246.594 274.293 244.221 282.921Z" fill="#3C60B9"/>
<path opacity="0.3" d="M196.703 258.979H235.462V261.661H196.703V258.979Z" fill="#3C60B9"/>
<path opacity="0.3" d="M196.703 268.635H235.462V271.317H196.703V268.635Z" fill="#3C60B9"/>
<path opacity="0.3" d="M196.703 278.29H235.462V280.972H196.703V278.29Z" fill="#3C60B9"/>
<path opacity="0.3" d="M196.703 287.945H235.462V290.627H196.703V287.945Z" fill="#3C60B9"/>
</g>
<defs>
<clipPath id="clip0">
<rect width="332" height="361" transform="matrix(-1 0 0 1 332 0)" fill="white"/>
</clipPath>
</defs>
</svg>
