<svg width="327" height="253" viewBox="0 0 327 253" fill="none" xmlns="http://www.w3.org/2000/svg">
<path d="M0.000549316 233C6.12195 260.822 327.486 258.486 326.999 232.999C320.878 205.179 -0.486328 207.514 0.000549316 233Z" fill="#C7D4E7"/>
<g clip-path="url(#clip0)">
<path d="M134.379 143.672L172.323 98.4692L248.486 99.1663L294.688 144.231L293.754 144.832H294.088V238.567H134.482V144.832L134.379 143.672Z" fill="#333246"/>
<path d="M172.283 98.5657L219.685 154.217V238.567H134.482V143.63L172.283 98.5657Z" fill="#3C60BA"/>
<path d="M168.083 191.92H185.484V207.322H168.083V191.92Z" fill="white"/>
<path d="M168.083 165.261H185.484V180.419H168.083V165.261Z" fill="white"/>
<path d="M245.413 187.833H262.813V203.235H245.413V187.833Z" fill="white"/>
<path d="M245.413 161.175H262.813V176.332H245.413V161.175Z" fill="white"/>
<path d="M95.3042 91.1032H210.83C211.397 91.1025 211.941 90.8766 212.342 90.475C212.743 90.0733 212.969 89.5288 212.97 88.9608V35.8406C212.969 35.2726 212.743 34.7281 212.342 34.3265C211.941 33.9248 211.397 33.6989 210.83 33.6982H95.3042C94.737 33.6989 94.1932 33.9248 93.7921 34.3265C93.3911 34.7281 93.1655 35.2726 93.1648 35.8406V88.9608C93.1655 89.5288 93.3911 90.0733 93.7921 90.475C94.1932 90.8766 94.737 91.1025 95.3042 91.1032ZM210.83 34.5552C211.171 34.5556 211.497 34.6911 211.737 34.9321C211.978 35.1731 212.113 35.4998 212.114 35.8406V88.9608C212.113 89.3016 211.978 89.6284 211.737 89.8693C211.497 90.1103 211.171 90.2459 210.83 90.2462H95.3042C94.9638 90.2459 94.6376 90.1103 94.3969 89.8693C94.1563 89.6284 94.0209 89.3016 94.0205 88.9608V35.8406C94.0209 35.4998 94.1563 35.1731 94.3969 34.9321C94.6376 34.6911 94.9638 34.5556 95.3042 34.5552H210.83Z" fill="#E6E6E6"/>
<path d="M193.736 61.2428C188.923 61.2428 185.021 57.3356 185.021 52.5159C185.021 47.6962 188.923 43.7891 193.736 43.7891C198.549 43.7891 202.45 47.6962 202.45 52.5159C202.45 57.3356 198.549 61.2428 193.736 61.2428Z" fill="#34C1CF"/>
<path d="M173.609 46.698C173.8 46.6977 173.989 46.7351 174.165 46.8081C174.342 46.8811 174.502 46.9881 174.637 47.1232C174.773 47.2583 174.88 47.4188 174.953 47.5954C175.026 47.772 175.064 47.9613 175.064 48.1525C175.064 48.3437 175.026 48.533 174.953 48.7096C174.88 48.8862 174.773 49.0466 174.637 49.1817C174.502 49.3168 174.342 49.4239 174.165 49.4969C173.989 49.5698 173.8 49.6072 173.609 49.607H105.137C104.751 49.607 104.382 49.4537 104.11 49.181C103.837 48.9082 103.684 48.5382 103.684 48.1525C103.684 47.7667 103.837 47.3968 104.11 47.124C104.382 46.8512 104.751 46.698 105.137 46.698H173.609Z" fill="#E6E6E6"/>
<path d="M173.609 55.4248C173.8 55.4245 173.989 55.4619 174.165 55.5349C174.342 55.6079 174.502 55.715 174.637 55.85C174.773 55.9851 174.88 56.1456 174.953 56.3222C175.026 56.4988 175.064 56.6881 175.064 56.8793C175.064 57.0705 175.026 57.2598 174.953 57.4364C174.88 57.613 174.773 57.7734 174.637 57.9085C174.502 58.0436 174.342 58.1507 174.165 58.2237C173.989 58.2966 173.8 58.334 173.609 58.3338H144.145C143.954 58.334 143.765 58.2966 143.589 58.2237C143.412 58.1507 143.252 58.0436 143.117 57.9085C142.982 57.7734 142.874 57.613 142.801 57.4364C142.728 57.2598 142.691 57.0705 142.691 56.8793C142.691 56.6881 142.728 56.4988 142.801 56.3222C142.874 56.1456 142.982 55.9851 143.117 55.85C143.252 55.715 143.412 55.6079 143.589 55.5349C143.765 55.4619 143.954 55.4245 144.145 55.4248H173.609Z" fill="#E6E6E6"/>
<path d="M200.42 69.3765C201.525 69.3765 202.424 70.029 202.424 70.8309C202.424 71.6329 201.525 72.2854 200.42 72.2854H105.949C104.844 72.2854 103.945 71.6328 103.945 70.8309C103.945 70.029 104.844 69.3765 105.949 69.3765H200.42Z" fill="#E6E6E6"/>
<path d="M200.42 78.1033C201.525 78.1033 202.424 78.7558 202.424 79.5577C202.424 80.3597 201.525 81.0122 200.42 81.0122H105.949C104.844 81.0122 103.945 80.3597 103.945 79.5577C103.945 78.7558 104.844 78.1033 105.949 78.1033H200.42Z" fill="#E6E6E6"/>
<path d="M116.111 31.0406C107.551 31.0406 100.612 24.0919 100.612 15.5203C100.612 6.94868 107.551 0 116.111 0C124.671 0 131.61 6.94868 131.61 15.5203C131.61 24.0919 124.671 31.0406 116.111 31.0406Z" fill="#3C60BA"/>
<path d="M116.111 40.7505L120.957 32.3451L125.803 23.9397H116.111H106.419L111.265 32.3451L116.111 40.7505Z" fill="#3C60BA"/>
<path d="M115.986 20.9919C112.915 20.9919 110.425 18.4988 110.425 15.4234C110.425 12.3481 112.915 9.85498 115.986 9.85498C119.057 9.85498 121.547 12.3481 121.547 15.4234C121.547 18.4988 119.057 20.9919 115.986 20.9919Z" fill="white"/>
<path d="M231.803 235.508C231.803 235.508 231.442 227.928 224.031 228.809L231.803 235.508Z" fill="#E6E6E6"/>
<path d="M233.898 228.295C231.849 228.295 230.189 226.633 230.189 224.584C230.189 222.534 231.849 220.872 233.898 220.872C235.946 220.872 237.607 222.534 237.607 224.584C237.607 226.633 235.946 228.295 233.898 228.295Z" fill="#34C1CE"/>
<path d="M233.454 230.833H234.501V238.166H233.454V230.833Z" fill="#E6E6E6"/>
</g>
<path d="M66.6638 218.57L65.5301 224.238L71.1985 225.372L70.3482 218.287L66.6638 218.57Z" fill="#A0616A"/>
<path d="M48.8797 217.578L50.2846 224.663H57.028L54.2182 216.161L48.8797 217.578Z" fill="#A0616A"/>
<path d="M42.9137 168.642L41.7938 176.236L43.1937 192.829L44.3137 199.017L49.0734 219.266C49.0734 219.266 54.3932 219.266 55.2331 217.016L53.8332 205.485C53.8332 205.485 52.7133 196.204 52.9932 195.079C53.2732 193.954 57.473 175.955 57.473 175.955C57.473 175.955 63.6327 204.36 64.4727 206.892C65.3126 209.423 66.4326 220.391 66.4326 220.391C66.4326 220.391 71.1923 221.235 71.4723 220.391C71.7523 219.547 72.0323 199.579 72.0323 196.486C72.0323 193.392 71.4723 191.704 71.4723 191.142C71.4723 190.579 73.6782 163.729 73.6782 163.729L42.9137 168.642Z" fill="#2F2E41"/>
<path d="M54.3133 223.196C54.3133 223.196 52.9079 223.474 52.0647 223.196C51.2214 222.917 52.0647 221.247 52.0647 221.247H48.9727C48.9727 221.247 45.5997 228.763 44.1943 229.32C42.7889 229.876 38.2916 236 43.6322 236C46.9275 235.958 50.1434 234.993 52.9079 233.216C52.9079 233.216 53.4701 230.711 55.9998 230.433C58.5296 230.155 60.2161 227.093 60.2161 227.093L56.562 220.412C56.562 220.412 55.7187 223.474 54.3133 223.196Z" fill="#2F2E41"/>
<path d="M67.549 223C67.549 223 68.1093 224.117 68.6696 223.558C69.2299 223 69.7902 221.604 69.7902 221.604C69.7902 221.604 71.4711 220.766 71.7512 221.604C72.0314 222.442 73.1519 226.909 73.7122 227.467C74.2725 228.025 80.1556 233.889 74.2725 235.005C68.3895 236.122 67.2689 233.609 67.2689 233.609C67.2689 233.609 68.1093 232.213 66.4285 231.655C64.7476 231.097 64.4674 229.142 64.4674 229.142L65.588 220.766C65.588 220.766 66.7086 223.558 67.549 223Z" fill="#2F2E41"/>
<path d="M36.2222 149.204L35.3856 163.674C35.3856 163.674 31.4814 172.858 36.7799 172.579C42.0784 172.301 38.732 163.396 38.732 163.396L43.9196 150.481L36.2222 149.204Z" fill="#A0616A"/>
<path d="M79.6046 144.952L80.4412 159.642C80.4412 159.642 84.3453 168.965 79.0468 168.682C73.7484 168.4 77.0948 159.36 77.0948 159.36L71.9072 146.249L79.6046 144.952Z" fill="#A0616A"/>
<path d="M57.205 113.422C53.194 113.422 49.9424 110.171 49.9424 106.16C49.9424 102.149 53.194 98.897 57.205 98.897C61.216 98.897 64.4675 102.149 64.4675 106.16C64.4675 110.171 61.216 113.422 57.205 113.422Z" fill="#A0616A"/>
<path d="M51.4062 109.171C51.4062 109.171 53.3337 116.997 49.4786 118.954C45.6235 120.91 61.5947 123.705 62.6962 118.954L62.1454 116.718C62.1454 116.718 59.9425 113.923 60.4932 111.407L51.4062 109.171Z" fill="#A0616A"/>
<path d="M55.5795 118.977C55.5795 118.977 60.4264 119.429 61.9355 116.257C61.9355 116.257 73.276 117.013 75.8041 127.395L71.5906 154.333C71.5906 154.333 76.085 162.189 75.5232 163.031C75.5232 163.031 78.3322 170.888 52.4896 171.169L41.2537 170.607C41.1017 169.012 41.1965 167.403 41.5346 165.837C42.0964 163.312 45.1862 145.634 45.1862 145.634C45.1862 145.634 36.7593 132.446 37.602 130.481C38.4447 128.517 39.7942 120.772 50.6363 117.63C50.6363 117.63 50.8042 119.257 55.5795 118.977Z" fill="#E6E6E6"/>
<path d="M41.3953 125.822L37.7791 130.543C37.7791 130.543 34.1629 150.262 35.2756 150.54C36.3883 150.817 43.0643 153.039 44.177 152.206C45.2896 151.373 50.2966 134.987 50.2966 134.987L41.3953 125.822Z" fill="#E6E6E6"/>
<path d="M71.0625 124.405L75.7799 127.453C75.7799 127.453 82.7173 146.851 80.7749 147.683C78.8324 148.514 68.01 147.96 68.01 147.96L71.0625 124.405Z" fill="#E6E6E6"/>
<path d="M49.2431 99.3903C49.2431 99.3903 51.7684 93.9284 56.6087 95.1888C61.4489 96.4493 64.1847 98.34 64.3952 100.231C64.6056 102.121 64.29 104.957 64.29 104.957C64.29 104.957 63.7639 101.071 60.3967 101.911C58.6058 102.358 56.2791 102.389 54.4932 102.32C54.1431 102.306 53.7938 102.363 53.4665 102.488C53.1393 102.613 52.841 102.803 52.5898 103.047C52.3386 103.29 52.1399 103.583 52.0058 103.906C51.8716 104.229 51.8049 104.576 51.8095 104.926L51.8978 110.942C51.8978 110.942 44.8873 106.463 49.2431 99.3903Z" fill="#2F2E41"/>
<path d="M51.1825 107.399C50.4977 107.399 49.9426 106.765 49.9426 105.982C49.9426 105.2 50.4977 104.565 51.1825 104.565C51.8673 104.565 52.4225 105.2 52.4225 105.982C52.4225 106.765 51.8673 107.399 51.1825 107.399Z" fill="#A0616A"/>
<defs>
<clipPath id="clip0">
<rect width="202.054" height="238.701" fill="white" transform="matrix(-1 0 0 1 295.054 0)"/>
</clipPath>
</defs>
</svg>
