<svg width="603" height="631" viewBox="0 0 603 631" fill="none" xmlns="http://www.w3.org/2000/svg">
<rect width="603" height="631" fill="#D9742B"/>
<path d="M602.999 606.014C591.711 639.418 -0.896975 636.614 0.00101953 606.012C11.2889 572.609 603.897 575.413 602.999 606.014Z" fill="#C7D4E7"/>
<path d="M418.436 395.824L334.5 295.829L166.015 297.371L63.8091 397.061L65.8742 398.39H65.1369V605.746H418.21V398.39L418.436 395.824Z" fill="#333246"/>
<path d="M334.587 296.042L229.728 419.151V605.746H418.21V395.732L334.587 296.042Z" fill="#3C60BA"/>
<path d="M343.879 502.556H305.386V536.627H343.879V502.556Z" fill="white"/>
<path d="M343.879 443.583H305.386V477.114H343.879V443.583Z" fill="white"/>
<path d="M172.813 493.516H134.32V527.587H172.813V493.516Z" fill="white"/>
<path d="M172.813 434.543H134.32V468.073H172.813V434.543Z" fill="white"/>
<path d="M287.131 213.478C297.778 213.478 306.409 204.835 306.409 194.173C306.409 183.511 297.778 174.868 287.131 174.868C276.484 174.868 267.853 183.511 267.853 194.173C267.853 204.835 276.484 213.478 287.131 213.478Z" fill="#D35766"/>
<path d="M331.654 181.303C331.232 181.303 330.813 181.385 330.423 181.547C330.032 181.708 329.678 181.945 329.379 182.244C329.08 182.543 328.843 182.898 328.681 183.288C328.519 183.679 328.436 184.098 328.436 184.521C328.436 184.944 328.519 185.362 328.681 185.753C328.843 186.144 329.08 186.499 329.379 186.798C329.678 187.096 330.032 187.333 330.423 187.495C330.813 187.656 331.232 187.739 331.654 187.738H483.125C483.977 187.738 484.794 187.399 485.397 186.796C485.999 186.193 486.338 185.374 486.338 184.521C486.338 183.667 485.999 182.849 485.397 182.246C484.794 181.642 483.977 181.303 483.125 181.303H331.654Z" fill="#E6E6E6"/>
<path d="M331.654 200.608C331.232 200.608 330.813 200.69 330.423 200.852C330.032 201.013 329.678 201.25 329.379 201.549C329.08 201.848 328.843 202.203 328.681 202.593C328.519 202.984 328.436 203.403 328.436 203.826C328.436 204.249 328.519 204.667 328.681 205.058C328.843 205.449 329.08 205.804 329.379 206.103C329.678 206.401 330.032 206.638 330.423 206.8C330.813 206.961 331.232 207.044 331.654 207.043H396.832C397.255 207.044 397.673 206.961 398.063 206.8C398.454 206.638 398.808 206.401 399.107 206.103C399.406 205.804 399.643 205.449 399.805 205.058C399.967 204.667 400.05 204.249 400.05 203.826C400.05 203.403 399.967 202.984 399.805 202.593C399.643 202.203 399.406 201.848 399.107 201.549C398.808 201.25 398.454 201.013 398.063 200.852C397.673 200.69 397.255 200.608 396.832 200.608H331.654Z" fill="#E6E6E6"/>
<path d="M272.344 231.472C269.9 231.472 267.911 232.915 267.911 234.689C267.911 236.463 269.9 237.907 272.344 237.907H481.328C483.772 237.907 485.761 236.463 485.761 234.689C485.761 232.915 483.772 231.472 481.328 231.472H272.344Z" fill="#E6E6E6"/>
<path d="M272.344 250.777C269.9 250.777 267.911 252.22 267.911 253.994C267.911 255.768 269.9 257.212 272.344 257.212H481.328C483.772 257.212 485.761 255.768 485.761 253.994C485.761 252.22 483.772 250.777 481.328 250.777H272.344Z" fill="#E6E6E6"/>
<path d="M458.848 146.667C477.783 146.667 493.133 131.295 493.133 112.333C493.133 93.3715 477.783 78 458.848 78C439.913 78 424.563 93.3715 424.563 112.333C424.563 131.295 439.913 146.667 458.848 146.667Z" fill="#3C60BA"/>
<path d="M458.849 168.146L448.128 149.552L437.408 130.958H458.849H480.289L469.569 149.552L458.849 168.146Z" fill="#3C60BA"/>
<path d="M459.125 124.437C465.919 124.437 471.426 118.922 471.426 112.119C471.426 105.316 465.919 99.8005 459.125 99.8005C452.331 99.8005 446.824 105.316 446.824 112.119C446.824 118.922 452.331 124.437 459.125 124.437Z" fill="white"/>
<path d="M202.919 598.979C202.919 598.979 203.719 582.212 220.113 584.161Z" fill="#E6E6E6"/>
<path d="M198.286 583.023C202.817 583.023 206.491 579.348 206.491 574.813C206.491 570.279 202.817 566.604 198.286 566.604C193.754 566.604 190.081 570.279 190.081 574.813C190.081 579.348 193.754 583.023 198.286 583.023Z" fill="#FF6584"/>
<path d="M199.267 588.638H196.951V604.86H199.267V588.638Z" fill="#E6E6E6"/>
<rect x="245.5" y="153.5" width="263" height="125" rx="6.5" stroke="pink" stroke-width="3" stroke-linecap="round" stroke-linejoin="round"/>
</svg>
