<svg width="325" height="200" viewBox="0 0 325 200" fill="none" xmlns="http://www.w3.org/2000/svg">
<path d="M113.267 11.6345H145.108V44.0223H113.267V11.6345Z" fill="#2F2E41"/>
<path d="M161.696 20.7534H252.936V109.741H161.696V20.7534Z" fill="#333246"/>
<path d="M189.122 35.5322H225.51V40.8778H189.122V35.5322Z" fill="white"/>
<path d="M215.209 48.1101H240.494V51.2546H215.209V48.1101Z" fill="white"/>
<path d="M194.874 68.8633H220.159V72.0077H194.874V68.8633Z" fill="white"/>
<path d="M174.539 48.1101H199.824V51.2546H174.539V48.1101Z" fill="#3C60B9"/>
<path d="M117.816 29.8723H140.826V31.3281H117.816V29.8723Z" fill="#3C60B9"/>
<path d="M118.084 33.075H141.094V34.5307H118.084V33.075Z" fill="#3C60B9"/>
<path d="M117.816 36.2776H140.826V37.7334H117.816V36.2776Z" fill="#3C60B9"/>
<path d="M117.816 19.1812H140.826V20.6369H117.816V19.1812Z" fill="#3C60B9"/>
<path d="M225.644 89.6167H240.494V92.7611H225.644V89.6167Z" fill="#3C60B9"/>
<path d="M118.084 22.3838H141.094V23.8395H118.084V22.3838Z" fill="#3C60B9"/>
<path d="M237 91.5L219.303 124.371H190.89V125H219.5L237.5 91.8243L237 91.5Z" fill="#2F2E41"/>
<path d="M189.382 128.736C191.802 128.736 193.764 126.781 193.764 124.368C193.764 121.956 191.802 120 189.382 120C186.962 120 185 121.956 185 124.368C185 126.781 186.962 128.736 189.382 128.736Z" fill="#3C60B9"/>
<path d="M117.816 25.5864H140.826V27.0422H117.816V25.5864Z" fill="#3C60B9"/>
<path d="M104.17 22.3257H136.01V54.7135H104.17V22.3257Z" fill="#333246"/>
<path d="M108.719 40.5635H131.729V42.0192H108.719V40.5635Z" fill="#3C60B9"/>
<path d="M108.986 43.7661H131.997V45.2219H108.986V43.7661Z" fill="#3C60B9"/>
<path d="M108.719 46.9688H131.729V48.4245H108.719V46.9688Z" fill="#3C60B9"/>
<path d="M108.719 29.8723H131.729V31.3281H108.719V29.8723Z" fill="#3C60B9"/>
<path d="M108.986 33.075H131.997V34.5307H108.986V33.075Z" fill="#3C60B9"/>
<path d="M108.719 36.2776H131.729V37.7334H108.719V36.2776Z" fill="#3C60B9"/>
<path d="M293.07 34.9033H324.91V67.2911H293.07V34.9033Z" fill="#333246"/>
<path d="M297.619 53.1411H320.629V54.5969H297.619V53.1411Z" fill="#3C60B9"/>
<path d="M297.886 56.3438H320.897V57.7995H297.886V56.3438Z" fill="#3C60B9"/>
<path d="M297.619 59.5464H320.629V61.0021H297.619V59.5464Z" fill="#3C60B9"/>
<path d="M297.619 42.45H320.629V43.9057H297.619V42.45Z" fill="#3C60B9"/>
<path d="M297.886 45.6528H320.897V47.1086H297.886V45.6528Z" fill="#3C60B9"/>
<path d="M297.619 48.8555H320.629V50.3112H297.619V48.8555Z" fill="#3C60B9"/>
<path d="M174.138 58.4866H240.494V61.631H174.138V58.4866Z" fill="white"/>
<path d="M225.644 68.8633H240.494V72.0077H225.644V68.8633Z" fill="#3C60B9"/>
<path d="M174.539 68.8633H189.389V72.0077H174.539V68.8633Z" fill="white"/>
<path d="M174.138 89.6167H213.069V92.7611H174.138V89.6167Z" fill="white"/>
<path d="M180.481 49.8734L180.906 49.4912L151.929 5.03101H123.167V5.66014H151.664L180.481 49.8734Z" fill="#2F2E41"/>
<path d="M238.929 70.6744L281.396 27.9855H309.927V27.3567H281.198L238.581 70.1965L238.929 70.6744Z" fill="#2F2E41"/>
<path d="M123.067 9.53065C120.647 9.53065 118.685 7.57493 118.685 5.16242C118.685 2.74991 120.647 0.794189 123.067 0.794189C125.487 0.794189 127.448 2.74991 127.448 5.16242C127.448 7.57493 125.487 9.53065 123.067 9.53065Z" fill="#3C60B9"/>
<path d="M309.427 31.7736C307.007 31.7736 305.046 29.8178 305.046 27.4053C305.046 24.9928 307.007 23.0371 309.427 23.0371C311.848 23.0371 313.809 24.9928 313.809 27.4053C313.809 29.8178 311.848 31.7736 309.427 31.7736Z" fill="#3C60B9"/>
<path d="M163 131H194.84V163.388H163V131Z" fill="#333246"/>
<path d="M167.549 149.238H190.559V150.694H167.549V149.238Z" fill="#3C60B9"/>
<path d="M167.816 152.44H190.827V153.896H167.816V152.44Z" fill="#3C60B9"/>
<path d="M167.549 155.643H190.559V157.099H167.549V155.643Z" fill="#3C60B9"/>
<path d="M167.549 138.547H190.559V140.002H167.549V138.547Z" fill="#3C60B9"/>
<path d="M167.816 141.75H190.827V143.205H167.816V141.75Z" fill="#3C60B9"/>
<path d="M167.549 144.952H190.559V146.408H167.549V144.952Z" fill="#3C60B9"/>
<path d="M155 141H186.84V173.388H155V141Z" fill="#333246"/>
<path d="M159.549 159.238H182.559V160.694H159.549V159.238Z" fill="#3C60B9"/>
<path d="M159.816 162.44H182.827V163.896H159.816V162.44Z" fill="#3C60B9"/>
<path d="M159.549 165.643H182.559V167.099H159.549V165.643Z" fill="#3C60B9"/>
<path d="M159.549 148.547H182.559V150.002H159.549V148.547Z" fill="#3C60B9"/>
<path d="M159.816 151.75H182.827V153.205H159.816V151.75Z" fill="#3C60B9"/>
<path d="M159.549 154.952H182.559V156.408H159.549V154.952Z" fill="#3C60B9"/>
<path d="M40.5 200C18.1325 200 0 196.642 0 192.5C0 188.358 18.1325 185 40.5 185C62.8675 185 81 188.358 81 192.5C81 196.642 62.8675 200 40.5 200Z" fill="#E6E6E6"/>
<path d="M54.0686 145.218L64.0001 141.932C63.4504 137.569 62.1956 133.338 60.2905 129.424L50.359 132.71C52.6896 136.426 53.9758 140.762 54.0686 145.218Z" fill="#34C1CF"/>
<path d="M30.1976 66.4846C35.3187 66.4846 39.4702 62.0996 39.4702 56.6903C39.4702 51.2811 35.3187 46.896 30.1976 46.896C25.0765 46.896 20.925 51.2811 20.925 56.6903C20.925 62.0996 25.0765 66.4846 30.1976 66.4846Z" fill="#2F2E41"/>
<path d="M20.1942 179.425L18.4304 187.41H22.714L24.4778 178.361L20.1942 179.425Z" fill="#9F616A"/>
<path d="M40.856 179.425V186.878L45.1395 187.41V179.425H40.856Z" fill="#9F616A"/>
<path d="M18.9347 94.7891C18.9347 94.7891 19.4386 106.234 19.9426 107.032C20.4465 107.83 24.982 119.275 24.982 119.275L27.2498 111.823C27.2498 111.823 23.7222 105.701 24.2261 102.241C24.73 98.7813 24.4126 94.5237 24.4126 94.5237L18.9347 94.7891Z" fill="#9F616A"/>
<path d="M33.2966 67.1096C37.1931 67.1096 40.3518 63.7731 40.3518 59.6573C40.3518 55.5416 37.1931 52.2051 33.2966 52.2051C29.4001 52.2051 26.2413 55.5416 26.2413 59.6573C26.2413 63.7731 29.4001 67.1096 33.2966 67.1096Z" fill="#9F616A"/>
<path d="M27.5018 60.4556C27.5018 60.4556 27.7537 71.1016 25.9899 72.6985C24.2261 74.2954 36.0688 72.9647 36.0688 72.9647C36.0688 72.9647 33.5491 65.5124 35.5649 63.9155C37.5807 62.3186 27.5018 60.4556 27.5018 60.4556Z" fill="#9F616A"/>
<path d="M36.8244 72.4323C36.8244 72.4323 35.3125 69.5046 33.2967 69.7708C31.2809 70.0369 24.7296 70.5692 24.4777 71.1015C24.2257 71.6338 23.4698 73.4969 22.9658 74.0292C22.4619 74.5615 18.6823 75.3599 18.4303 78.5538C18.1783 81.7476 27.5013 101.177 27.5013 101.177C27.5013 101.177 26.2415 105.701 26.4935 106.766C26.7454 107.83 25.2336 111.024 25.4856 112.355C25.7375 113.686 21.706 121.67 23.7217 132.05V148.818C23.7217 148.818 16.9185 177.828 18.9343 179.957C20.95 182.087 27.7533 180.756 29.0132 179.957C30.273 179.159 35.5645 138.97 35.5645 138.97L38.0842 125.396L38.3362 155.205C38.3362 155.205 37.8322 180.224 39.5961 181.022C41.3599 181.82 48.1631 182.087 48.6671 180.49C49.0601 179.244 50.9858 146.106 51.8144 131.58C52.1015 126.566 51.7281 121.534 50.705 116.629C49.6563 111.605 48.1338 105.702 46.3993 103.306C43.1237 98.7812 41.1079 84.4091 41.1079 84.4091L45.3914 76.1584C45.3914 76.1584 42.8717 73.4969 41.3599 73.4969C39.848 73.4969 36.8244 72.4323 36.8244 72.4323Z" fill="#2F2E41"/>
<path d="M19.9424 76.6909L18.6136 77.6462C18.6136 77.6462 17.6746 94.7892 18.4305 95.8538C19.1864 96.9184 24.4419 96.3988 24.8379 95.4609C25.2338 94.5231 19.9424 76.6909 19.9424 76.6909Z" fill="#2F2E41"/>
<path d="M40.6039 92.66C40.6039 92.66 40.8559 103.838 42.3677 107.032C43.8795 110.226 49.4229 123.533 49.4229 123.533C49.4229 123.533 49.1012 138.18 51.9078 134.583C54.7144 130.986 52.9506 122.469 52.9506 122.469L48.1631 102.774C48.1631 102.774 45.6433 93.9907 45.8953 91.3292C46.1473 88.6677 40.6039 92.66 40.6039 92.66Z" fill="#9F616A"/>
<path d="M45.1393 182.565C45.1393 182.565 45.3913 182.353 46.1472 183.151C46.9031 183.95 48.9189 185.014 48.6669 187.942C48.415 190.87 46.9031 191.402 46.9031 191.402V190.603H46.1472V191.934C46.1472 191.934 44.8873 196.193 39.092 193.531C39.092 193.531 38.84 191.402 39.092 190.071C39.3439 188.74 39.3439 182.353 40.0999 182.619C40.8558 182.885 42.8716 183.151 43.3755 184.216C43.8795 185.28 45.3913 184.907 45.1393 182.565Z" fill="#2F2E41"/>
<path d="M19.1865 182.832C19.1865 182.832 18.9345 182.619 18.1786 183.417C17.4227 184.216 15.4069 185.28 15.6589 188.208C15.9108 191.136 17.4227 191.668 17.4227 191.668V190.87H18.1786V192.2C18.1786 192.2 19.4384 196.459 25.2338 193.797C25.2338 193.797 25.4858 191.668 25.2338 190.337C24.9818 189.007 24.9818 182.619 24.2259 182.885C23.47 183.151 21.4542 183.417 20.9503 184.482C20.4463 185.547 18.9345 185.174 19.1865 182.832Z" fill="#2F2E41"/>
<path d="M41.8639 75.3599L45.3916 76.1583C45.3916 76.1583 45.3916 82.0136 46.3994 84.409C47.4073 86.8044 49.1711 92.3935 48.4152 92.6597C47.6593 92.9258 40.6041 96.652 40.1001 94.5228C39.5962 92.3935 38.3363 75.3599 41.8639 75.3599Z" fill="#2F2E41"/>
<path d="M20.1521 53.5887C25.2732 53.5887 29.4246 49.2036 29.4246 43.7943C29.4246 38.3851 25.2732 34 20.1521 34C15.031 34 10.8795 38.3851 10.8795 43.7943C10.8795 49.2036 15.031 53.5887 20.1521 53.5887Z" fill="#2F2E41"/>
<path d="M12.1544 51.905C13.3546 52.8213 14.745 53.4206 16.2094 53.6528C17.6738 53.8851 19.1696 53.7435 20.5716 53.24C21.9736 52.7365 23.241 51.8856 24.2679 50.7586C25.2947 49.6316 26.0511 48.2612 26.4737 46.7622C26.3138 48.1056 25.8919 49.3994 25.2347 50.5619C24.5775 51.7244 23.6993 52.7304 22.6555 53.5163C21.6116 54.3022 20.4248 54.851 19.1701 55.128C17.9153 55.4049 16.6198 55.4041 15.3654 55.1256C14.1109 54.847 12.9248 54.2968 11.8818 53.5096C10.8388 52.7224 9.96171 51.7153 9.30581 50.552C8.64992 49.3886 8.22949 48.0943 8.07108 46.7507C7.91267 45.407 8.01971 44.0433 8.38545 42.7456C8.17774 44.4891 8.41806 46.2595 9.0812 47.8711C9.74435 49.4826 10.8059 50.876 12.1544 51.905Z" fill="#2F2E41"/>
<path d="M27.7249 65.5051C31.4804 65.5051 34.5248 62.2894 34.5248 58.3226C34.5248 54.3559 31.4804 51.1401 27.7249 51.1401C23.9695 51.1401 20.925 54.3559 20.925 58.3226C20.925 62.2894 23.9695 65.5051 27.7249 65.5051Z" fill="#2F2E41"/>
<path d="M33.4431 60.608C36.7718 60.608 39.4703 58.3789 39.4703 55.6292C39.4703 52.8795 36.7718 50.6504 33.4431 50.6504C30.1144 50.6504 27.4159 52.8795 27.4159 55.6292C27.4159 58.3789 30.1144 60.608 33.4431 60.608Z" fill="#2F2E41"/>
<path d="M35.0509 62.8684C35.6826 62.8684 36.1948 61.9113 36.1948 60.7307C36.1948 59.5501 35.6826 58.593 35.0509 58.593C34.4191 58.593 33.907 59.5501 33.907 60.7307C33.907 61.9113 34.4191 62.8684 35.0509 62.8684Z" fill="#A0616A"/>
</svg>
