<svg width="596" height="323" viewBox="0 0 596 323" fill="none" xmlns="http://www.w3.org/2000/svg">
<path d="M29.9395 193.33H262.921C270.389 193.33 276.444 199.385 276.444 206.854V308.976C276.444 316.445 270.389 322.5 262.921 322.5H29.9395C22.4706 322.5 16.4159 316.445 16.4159 308.976V206.854C16.4159 199.385 22.4706 193.33 29.9395 193.33Z" fill="#F2F2F2"/>
<path d="M546 39C536.611 39 529 31.3888 529 22C529 12.6112 536.611 5 546 5C555.389 5 563 12.6112 563 22C563 31.3888 555.389 39 546 39Z" fill="#D35766"/>
<path opacity="0.5" d="M519 66.5C509.611 66.5 502 58.8888 502 49.5C502 40.1112 509.611 32.5 519 32.5C528.389 32.5 536 40.1112 536 49.5C536 58.8888 528.389 66.5 519 66.5Z" stroke="#3F3D56" stroke-miterlimit="10"/>
<path d="M353 262C343.611 262 336 254.389 336 245C336 235.611 343.611 228 353 228C362.389 228 370 235.611 370 245C370 254.389 362.389 262 353 262Z" fill="#F2F2F2"/>
<path d="M312 280.5C302.611 280.5 295 272.889 295 263.5C295 254.111 302.611 246.5 312 246.5C321.389 246.5 329 254.111 329 263.5C329 272.889 321.389 280.5 312 280.5Z" stroke="#3F3D56" stroke-miterlimit="10"/>
<path d="M152 134C142.611 134 135 126.389 135 117C135 107.611 142.611 100 152 100C161.389 100 169 107.611 169 117C169 126.389 161.389 134 152 134Z" fill="#D35766"/>
<path opacity="0.5" d="M180 151.5C170.611 151.5 163 143.889 163 134.5C163 125.111 170.611 117.5 180 117.5C189.389 117.5 197 125.111 197 134.5C197 143.889 189.389 151.5 180 151.5Z" stroke="#3F3D56" stroke-miterlimit="10"/>
<path d="M255.776 94.9752H488.757C496.226 94.9752 502.281 101.03 502.281 108.499V210.622C502.281 218.09 496.226 224.145 488.757 224.145H255.776C248.307 224.145 242.252 218.09 242.252 210.622V108.499C242.252 101.03 248.307 94.9752 255.776 94.9752Z" fill="#34C1CF"/>
<path d="M240.579 84H473.56C481.029 84 487.084 90.0547 487.084 97.5236V199.646C487.084 207.115 481.029 213.17 473.56 213.17H240.579C233.11 213.17 227.056 207.115 227.056 199.646V97.5236C227.056 90.0547 233.11 84 240.579 84Z" stroke="#3F3D56" stroke-miterlimit="10"/>
<path d="M14.7431 182.355H247.724C255.193 182.355 261.248 188.41 261.248 195.878V298.001C261.248 305.47 255.193 311.525 247.724 311.525H14.7431C7.27422 311.525 1.21948 305.47 1.21948 298.001V195.878C1.21948 188.41 7.27422 182.355 14.7431 182.355Z" stroke="#3F3D56" stroke-miterlimit="10"/>
<path d="M184.861 142.791C67.3612 205.289 128.861 74.2874 152.861 118.788" stroke="black"/>
<path d="M317.485 268.791C434.985 331.289 373.485 200.287 349.485 244.788" stroke="black"/>
<path d="M523.897 58.5168C656.332 71.6792 549.666 -26.1274 544.376 24.1546" stroke="black"/>
</svg>
