<svg width="527" height="532" viewBox="0 0 527 532" fill="none" xmlns="http://www.w3.org/2000/svg">
<path d="M526.999 511.014C517.134 540.208 -0.783924 537.757 0.000891034 511.012C9.86612 481.819 527.784 484.27 526.999 511.014Z" fill="#C7D4E7"/>
<g clip-path="url(#clip0)">
<path d="M384.788 306.875L303.833 210.431L141.33 211.918L42.7537 308.068L44.7455 309.35H44.0343V509.343H384.57V309.35L384.788 306.875Z" fill="#333246"/>
<path d="M303.917 210.636L202.781 329.374V509.343H384.57V306.787L303.917 210.636Z" fill="#3C60BA"/>
<path d="M312.879 409.818H275.753V442.679H312.879V409.818Z" fill="white"/>
<path d="M312.879 352.939H275.753V385.279H312.879V352.939Z" fill="white"/>
<path d="M147.887 401.098H110.761V433.959H147.887V401.098Z" fill="white"/>
<path d="M147.887 344.219H110.761V376.559H147.887V344.219Z" fill="white"/>
<path d="M468.159 194.714H221.673C220.463 194.713 219.302 194.231 218.447 193.374C217.591 192.517 217.11 191.355 217.108 190.143V76.8061C217.11 75.5942 217.591 74.4324 218.447 73.5755C219.302 72.7186 220.463 72.2365 221.673 72.2351H468.159C469.37 72.2365 470.53 72.7186 471.385 73.5755C472.241 74.4324 472.723 75.5942 472.724 76.8061V190.143C472.723 191.355 472.241 192.517 471.385 193.374C470.53 194.231 469.37 194.713 468.159 194.714ZM221.673 74.0635C220.947 74.0643 220.25 74.3535 219.737 74.8676C219.224 75.3818 218.935 76.0789 218.934 76.8061V190.143C218.935 190.871 219.224 191.568 219.737 192.082C220.25 192.596 220.947 192.885 221.673 192.886H468.159C468.886 192.885 469.582 192.596 470.095 192.082C470.609 191.568 470.897 190.871 470.898 190.143V76.8061C470.897 76.0789 470.609 75.3818 470.095 74.8676C469.582 74.3535 468.886 74.0643 468.159 74.0635H221.673Z" fill="#E6E6E6"/>
<path d="M258.146 131.004C268.415 131.004 276.739 122.668 276.739 112.385C276.739 102.101 268.415 93.7649 258.146 93.7649C247.877 93.7649 239.552 102.101 239.552 112.385C239.552 122.668 247.877 131.004 258.146 131.004Z" fill="#D35766"/>
<path d="M301.088 99.9714C300.681 99.9708 300.277 100.051 299.901 100.206C299.524 100.362 299.182 100.59 298.894 100.879C298.605 101.167 298.377 101.509 298.221 101.886C298.065 102.263 297.984 102.667 297.984 103.075C297.984 103.483 298.065 103.887 298.221 104.263C298.377 104.64 298.605 104.983 298.894 105.271C299.182 105.559 299.524 105.787 299.901 105.943C300.277 106.099 300.681 106.179 301.088 106.178H447.181C448.003 106.178 448.791 105.851 449.372 105.269C449.953 104.687 450.28 103.898 450.28 103.075C450.28 102.252 449.953 101.462 449.372 100.88C448.791 100.298 448.003 99.9714 447.181 99.9714H301.088Z" fill="#E6E6E6"/>
<path d="M301.088 118.591C300.681 118.59 300.277 118.67 299.901 118.826C299.524 118.982 299.182 119.21 298.894 119.498C298.605 119.787 298.377 120.129 298.221 120.506C298.065 120.883 297.984 121.286 297.984 121.694C297.984 122.102 298.065 122.506 298.221 122.883C298.377 123.26 298.605 123.602 298.894 123.89C299.182 124.179 299.524 124.407 299.901 124.563C300.277 124.718 300.681 124.798 301.088 124.798H363.952C364.359 124.798 364.763 124.718 365.139 124.563C365.516 124.407 365.858 124.179 366.146 123.89C366.435 123.602 366.663 123.26 366.819 122.883C366.975 122.506 367.056 122.102 367.056 121.694C367.056 121.286 366.975 120.883 366.819 120.506C366.663 120.129 366.435 119.787 366.146 119.498C365.858 119.21 365.516 118.982 365.139 118.826C364.763 118.67 364.359 118.59 363.952 118.591H301.088Z" fill="#E6E6E6"/>
<path d="M243.884 148.359C241.527 148.359 239.608 149.751 239.608 151.462C239.608 153.173 241.527 154.565 243.884 154.565H445.447C447.804 154.565 449.723 153.173 449.723 151.462C449.723 149.751 447.804 148.359 445.447 148.359H243.884Z" fill="#E6E6E6"/>
<path d="M243.884 166.978C241.527 166.978 239.608 168.37 239.608 170.081C239.608 171.792 241.527 173.185 243.884 173.185H445.447C447.804 173.185 449.723 171.792 449.723 170.081C449.723 168.37 447.804 166.978 445.447 166.978H243.884Z" fill="#E6E6E6"/>
<path d="M423.766 66.5647C442.029 66.5647 456.834 51.739 456.834 33.4506C456.834 15.1621 442.029 0.336426 423.766 0.336426C405.503 0.336426 390.698 15.1621 390.698 33.4506C390.698 51.739 405.503 66.5647 423.766 66.5647Z" fill="#3C60BA"/>
<path d="M423.766 87.2819L413.426 69.3481L403.087 51.4143H423.766H444.445L434.106 69.3481L423.766 87.2819Z" fill="#3C60BA"/>
<path d="M424.033 45.1248C430.585 45.1248 435.897 39.8055 435.897 33.2439C435.897 26.6823 430.585 21.363 424.033 21.363C417.48 21.363 412.169 26.6823 412.169 33.2439C412.169 39.8055 417.48 45.1248 424.033 45.1248Z" fill="white"/>
<path d="M176.924 502.816C176.924 502.816 177.695 486.645 193.507 488.525L176.924 502.816Z" fill="#E6E6E6"/>
<path d="M172.455 487.427C176.826 487.427 180.369 483.882 180.369 479.509C180.369 475.136 176.826 471.59 172.455 471.59C168.085 471.59 164.542 475.136 164.542 479.509C164.542 483.882 168.085 487.427 172.455 487.427Z" fill="#FF6584"/>
<path d="M173.402 492.843H171.168V508.489H173.402V492.843Z" fill="#E6E6E6"/>
</g>
<defs>
<clipPath id="clip0">
<rect width="431.102" height="509.292" fill="white" transform="translate(41.9734 0.336426)"/>
</clipPath>
</defs>
</svg>
