<svg width="763" height="639" viewBox="0 0 763 639" fill="none" xmlns="http://www.w3.org/2000/svg">
<path fill-rule="evenodd" clip-rule="evenodd" d="M349.285 637.909C211.528 631.781 101.28 548.72 52.4982 432.5C-6.20715 292.636 -40.91 116.207 93.4682 28.4336C227.629 -59.1971 388.852 78.2359 522.5 166.5C653.628 253.1 801.557 324.007 752.443 463.636C702.663 605.156 513.877 645.23 349.285 637.909Z" fill="#FFEFEF"/>
<g clip-path="url(#clip0)">
<path d="M76.2646 69.2971H156.195V150.855H76.2646V69.2971Z" fill="#2F2E41"/>
<path d="M197.839 92.2603H426.883V316.348H197.839V92.2603Z" fill="#333246"/>
<path d="M266.686 129.476H358.035V142.937H266.686V129.476Z" fill="white"/>
<path d="M332.176 161.149H395.65V169.067H332.176V161.149Z" fill="white"/>
<path d="M281.128 213.41H344.602V221.328H281.128V213.41Z" fill="white"/>
<path d="M230.08 161.149H293.554V169.067H230.08V161.149Z" fill="#3C60B9"/>
<path d="M87.6832 115.223H145.448V118.889H87.6832V115.223Z" fill="#3C60B9"/>
<path d="M88.3548 123.288H146.119V126.954H88.3548V123.288Z" fill="#3C60B9"/>
<path d="M87.6832 131.353H145.448V135.019H87.6832V131.353Z" fill="#3C60B9"/>
<path d="M87.6832 88.301H145.448V91.9669H87.6832V88.301Z" fill="#3C60B9"/>
<path d="M88.3548 96.366H146.119V100.032H88.3548V96.366Z" fill="#3C60B9"/>
<path d="M87.6832 104.431H145.448V108.097H87.6832V104.431Z" fill="#3C60B9"/>
<path d="M53.4272 96.2192H133.357V177.778H53.4272V96.2192Z" fill="#333246"/>
<path d="M64.8459 142.145H122.611V145.811H64.8459V142.145Z" fill="#3C60B9"/>
<path d="M65.5176 150.21H123.282V153.876H65.5176V150.21Z" fill="#3C60B9"/>
<path d="M64.8459 158.275H122.611V161.941H64.8459V158.275Z" fill="#3C60B9"/>
<path d="M64.8459 115.223H122.611V118.889H64.8459V115.223Z" fill="#3C60B9"/>
<path d="M65.5176 123.288H123.282V126.954H65.5176V123.288Z" fill="#3C60B9"/>
<path d="M64.8459 131.353H122.611V135.019H64.8459V131.353Z" fill="#3C60B9"/>
<path d="M527.635 127.893H607.565V209.451H527.635V127.893Z" fill="#333246"/>
<path d="M539.054 173.819H596.818V177.484H539.054V173.819Z" fill="#3C60B9"/>
<path d="M539.726 181.883H597.49V185.549H539.726V181.883Z" fill="#3C60B9"/>
<path d="M539.054 189.948H596.818V193.614H539.054V189.948Z" fill="#3C60B9"/>
<path d="M539.054 146.896H596.818V150.562H539.054V146.896Z" fill="#3C60B9"/>
<path d="M539.726 154.961H597.49V158.627H539.726V154.961Z" fill="#3C60B9"/>
<path d="M539.054 163.026H596.818V166.692H539.054V163.026Z" fill="#3C60B9"/>
<path d="M229.072 187.28H395.65V195.198H229.072V187.28Z" fill="white"/>
<path d="M358.371 213.41H395.65V221.328H358.371V213.41Z" fill="#3C60B9"/>
<path d="M358.371 265.671H395.65V273.589H358.371V265.671Z" fill="white"/>
<path d="M230.08 213.41H267.358V221.328H230.08V213.41Z" fill="white"/>
<path d="M229.072 265.671H326.802V273.589H229.072V265.671Z" fill="white"/>
<path d="M244.995 165.59L246.062 164.627L173.319 52.6685H101.116V54.2527H172.655L244.995 165.59Z" fill="#2F2E41"/>
<path d="M391.72 217.97L498.329 110.472H569.951V108.889H497.833L390.847 216.767L391.72 217.97Z" fill="#2F2E41"/>
<path d="M100.864 63.9995C94.7889 63.9995 89.864 59.0746 89.864 52.9995C89.864 46.9244 94.7889 41.9995 100.864 41.9995C106.939 41.9995 111.864 46.9244 111.864 52.9995C111.864 59.0746 106.939 63.9995 100.864 63.9995Z" fill="#3C60B9"/>
<path d="M568.698 120.011C562.623 120.011 557.698 115.086 557.698 109.011C557.698 102.936 562.623 98.0112 568.698 98.0112C574.773 98.0112 579.698 102.936 579.698 109.011C579.698 115.086 574.773 120.011 568.698 120.011Z" fill="#3C60B9"/>
</g>
<path d="M641.576 550.639C633.122 568.411 189.328 566.919 190.001 550.637C198.454 532.866 642.248 534.358 641.576 550.639Z" fill="#C7D4E7"/>
<path d="M597.955 538.679C597.955 538.679 612.561 483.192 557.017 451.602L597.955 538.679Z" fill="#C7D4E7"/>
<path d="M599.776 538.975C599.776 538.975 605.565 484.213 670.254 480.78L599.776 538.975Z" fill="#C7D4E7"/>
<path d="M351.602 530.211L336.504 529.075L341.537 554.644L358.647 546.689L351.602 530.211Z" fill="#FFB9B9"/>
<path d="M489.998 482.48L454.77 443.842L434.64 461.456L394.882 515.437L399.411 523.392L447.725 486.458L480.436 534.757L511.638 517.142L489.998 482.48Z" fill="#2F2E41"/>
<path opacity="0.1" d="M489.998 482.48L454.77 443.842L434.64 461.456L394.882 515.437L399.411 523.392L447.725 486.458L480.436 534.757L511.638 517.142L489.998 482.48Z" fill="black"/>
<path d="M493.017 508.05L488.488 512.028L451.75 497.822L443.195 493.845L426.084 497.822C426.084 497.822 426.084 481.912 442.188 482.48L458.796 487.026L478.423 488.731L493.017 508.05Z" fill="#FFB9B9"/>
<path d="M525.729 550.099L514.658 558.054H501.573L440.678 532.484L351.602 550.667L349.085 529.075L430.613 488.731L502.076 515.437L525.729 550.099Z" fill="#2F2E41"/>
<path d="M454.267 448.955L446.718 450.66L445.073 448.493C443.771 446.777 442.946 444.666 442.701 442.424C442.457 440.181 442.804 437.907 443.699 435.886L464.836 404.634C464.836 404.634 470.875 389.292 480.437 395.542C489.999 401.793 472.385 412.021 472.385 412.021L461.816 430.772L462.823 440.432L454.267 448.955Z" fill="#FFB9B9"/>
<path d="M502.076 412.021C512.916 412.021 521.704 402.1 521.704 389.861C521.704 377.622 512.916 367.7 502.076 367.7C491.237 367.7 482.449 377.622 482.449 389.861C482.449 402.1 491.237 412.021 502.076 412.021Z" fill="#FFB9B9"/>
<path d="M493.269 406.055L502.327 430.488L523.968 420.26C523.968 420.26 516.922 400.941 516.922 400.372C516.922 399.804 493.269 406.055 493.269 406.055Z" fill="#FFB9B9"/>
<path d="M552.86 478.338C552.86 491.712 550.993 505.003 547.329 517.722L545.86 522.824L538.814 559.19L531.265 561.463L525.729 553.508L514.658 544.417L506.605 529.643L499.701 516.653L497.547 512.596L489.998 469.979L461.312 451.796L451.75 450.092L453.763 443.841L462.319 430.772L470.874 429.636L473.39 427.363L475.403 428.499L483.455 423.385L485.972 424.522L500.687 426.067L509.625 423.953L522.478 416.163L527.742 417.135L545.86 434.181C550.491 448.316 552.861 463.267 552.86 478.338Z" fill="#D35766"/>
<path d="M341.139 539.01C341.139 539.01 345.646 530.384 343.742 529.377C341.838 528.37 333.753 524.355 333.753 524.355L321.895 519.918C321.895 519.918 304.786 491.208 304.411 516.175C304.035 541.142 316.868 547.143 316.868 547.143C316.868 547.143 328.314 574.955 334.797 570.52C341.281 566.085 347.769 551.031 347.769 551.031C347.769 551.031 336.077 543.934 341.139 539.01Z" fill="#2F2E41"/>
<path opacity="0.1" d="M547.37 473.389L528.246 487.594L499.701 516.654L497.547 512.596L491.508 478.503H493.018L508.619 446.114L547.37 473.389Z" fill="black"/>
<path d="M508.618 442.705L493.017 475.093H487.481L483.959 486.458L475.906 488.731L497.546 515.437L528.245 484.185L547.369 469.98L508.618 442.705Z" fill="#D35766"/>
<path d="M486.811 373.383L484.684 374.307C484.357 374.057 484.077 373.735 483.862 373.362C483.646 372.988 483.498 372.57 483.428 372.131C483.357 371.692 483.365 371.242 483.45 370.806C483.535 370.371 483.697 369.959 483.925 369.595L479.995 369.387C482.518 365.594 485.725 362.448 489.405 360.159C493.085 357.87 497.153 356.489 501.341 356.108C505.529 355.727 509.741 356.354 513.698 357.948C517.655 359.542 521.267 362.067 524.296 365.356C524.475 364.66 526.425 366.014 527.221 367.386C527.489 366.254 529.318 371.727 529.964 375.595C530.264 374.307 531.415 376.387 530.407 378.382C531.046 378.277 531.334 380.123 530.84 381.152C531.539 380.781 531.421 382.985 530.663 384.458C531.661 384.357 522.794 399.895 519.204 408.975C518.162 403.567 516.99 397.873 513.628 393.844C513.057 393.16 512.432 392.536 511.807 391.914L508.429 388.546C504.5 384.631 500.927 379.799 495.693 378.336C492.097 377.33 489.823 377.103 491.783 372.527C490.012 373.362 488.358 374.602 486.572 375.377C486.596 374.738 486.845 374.023 486.811 373.383Z" fill="#2F2E41"/>
<path d="M511.889 396.395C513.835 396.395 515.412 394.614 515.412 392.417C515.412 390.221 513.835 388.44 511.889 388.44C509.944 388.44 508.366 390.221 508.366 392.417C508.366 394.614 509.944 396.395 511.889 396.395Z" fill="#FFB9B9"/>
<defs>
<clipPath id="clip0">
<rect width="554.791" height="277" fill="white" transform="matrix(-1 0 0 1 607.791 39.9995)"/>
</clipPath>
</defs>
</svg>
