<svg width="763" height="639" viewBox="0 0 763 639" fill="none" xmlns="http://www.w3.org/2000/svg">
<path fill-rule="evenodd" clip-rule="evenodd" d="M349.285 637.909C211.528 631.781 101.28 548.72 52.4982 432.5C-6.20715 292.636 -40.91 116.207 93.4682 28.4336C227.629 -59.1971 388.852 78.2359 522.5 166.5C653.628 253.1 801.557 324.007 752.443 463.636C702.663 605.156 513.877 645.23 349.285 637.909Z" fill="#FFEFEF"/>
<g clip-path="url(#clip0)">
<path d="M76.2646 69.2495H156.195V150.808H76.2646V69.2495Z" fill="#2F2E41"/>
<path d="M197.839 92.2126H426.883V316.3H197.839V92.2126Z" fill="#333246"/>
<path d="M266.686 129.428H358.035V142.89H266.686V129.428Z" fill="white"/>
<path d="M332.176 161.102H395.65V169.02H332.176V161.102Z" fill="white"/>
<path d="M281.128 213.362H344.602V221.281H281.128V213.362Z" fill="white"/>
<path d="M230.08 161.102H293.554V169.02H230.08V161.102Z" fill="#3C60B9"/>
<path d="M87.6832 115.176H145.448V118.841H87.6832V115.176Z" fill="#3C60B9"/>
<path d="M88.3548 123.24H146.119V126.906H88.3548V123.24Z" fill="#3C60B9"/>
<path d="M87.6832 131.305H145.448V134.971H87.6832V131.305Z" fill="#3C60B9"/>
<path d="M87.6832 88.2534H145.448V91.9193H87.6832V88.2534Z" fill="#3C60B9"/>
<path d="M88.3548 96.3184H146.119V99.9842H88.3548V96.3184Z" fill="#3C60B9"/>
<path d="M87.6832 104.383H145.448V108.049H87.6832V104.383Z" fill="#3C60B9"/>
<path d="M53.4272 96.1716H133.357V177.73H53.4272V96.1716Z" fill="#333246"/>
<path d="M64.8459 142.098H122.611V145.764H64.8459V142.098Z" fill="#3C60B9"/>
<path d="M65.5176 150.163H123.282V153.828H65.5176V150.163Z" fill="#3C60B9"/>
<path d="M64.8459 158.228H122.611V161.893H64.8459V158.228Z" fill="#3C60B9"/>
<path d="M64.8459 115.176H122.611V118.841H64.8459V115.176Z" fill="#3C60B9"/>
<path d="M65.5176 123.24H123.282V126.906H65.5176V123.24Z" fill="#3C60B9"/>
<path d="M64.8459 131.305H122.611V134.971H64.8459V131.305Z" fill="#3C60B9"/>
<path d="M527.635 127.845H607.565V209.403H527.635V127.845Z" fill="#333246"/>
<path d="M539.054 173.771H596.818V177.437H539.054V173.771Z" fill="#3C60B9"/>
<path d="M539.726 181.836H597.49V185.502H539.726V181.836Z" fill="#3C60B9"/>
<path d="M539.054 189.901H596.818V193.567H539.054V189.901Z" fill="#3C60B9"/>
<path d="M539.054 146.849H596.818V150.514H539.054V146.849Z" fill="#3C60B9"/>
<path d="M539.726 154.914H597.49V158.579H539.726V154.914Z" fill="#3C60B9"/>
<path d="M539.054 162.979H596.818V166.644H539.054V162.979Z" fill="#3C60B9"/>
<path d="M229.072 187.232H395.65V195.15H229.072V187.232Z" fill="white"/>
<path d="M358.371 213.362H395.65V221.281H358.371V213.362Z" fill="#3C60B9"/>
<path d="M358.371 265.623H395.65V273.541H358.371V265.623Z" fill="white"/>
<path d="M230.08 213.362H267.358V221.281H230.08V213.362Z" fill="white"/>
<path d="M229.072 265.623H326.802V273.541H229.072V265.623Z" fill="white"/>
<path d="M100.864 63.9519C94.7889 63.9519 89.864 59.027 89.864 52.9519C89.864 46.8768 94.7889 41.9519 100.864 41.9519C106.939 41.9519 111.864 46.8768 111.864 52.9519C111.864 59.027 106.939 63.9519 100.864 63.9519Z" fill="#3C60B9"/>
<path d="M247 165.498L174.5 53.9529L111 53.9548" stroke="#34C1CF" stroke-width="2"/>
<path d="M391 217.489L498.5 109.986L557.5 109.989" stroke="#10C3D5" stroke-width="2"/>
<path d="M568.698 119.964C562.623 119.964 557.698 115.039 557.698 108.964C557.698 102.888 562.623 97.9636 568.698 97.9636C574.773 97.9636 579.698 102.888 579.698 108.964C579.698 115.039 574.773 119.964 568.698 119.964Z" fill="#3C60B9"/>
</g>
<path d="M641.576 550.591C633.122 568.364 189.328 566.872 190.001 550.59C198.454 532.818 642.248 534.31 641.576 550.591Z" fill="#C7D4E7"/>
<path d="M597.955 538.631C597.955 538.631 612.561 483.145 557.017 451.554L597.955 538.631Z" fill="#C7D4E7"/>
<path d="M599.776 538.928C599.776 538.928 605.565 484.165 670.254 480.732L599.776 538.928Z" fill="#C7D4E7"/>
<path d="M351.602 530.163L336.504 529.027L341.537 554.597L358.647 546.642L351.602 530.163Z" fill="#FFB9B9"/>
<path d="M489.998 482.432L454.77 443.794L434.64 461.408L394.882 515.389L399.411 523.344L447.725 486.411L480.436 534.709L511.638 517.094L489.998 482.432Z" fill="#2F2E41"/>
<path opacity="0.1" d="M489.998 482.432L454.77 443.794L434.64 461.408L394.882 515.389L399.411 523.344L447.725 486.411L480.436 534.709L511.638 517.094L489.998 482.432Z" fill="black"/>
<path d="M493.017 508.003L488.488 511.98L451.75 497.775L443.195 493.797L426.084 497.775C426.084 497.775 426.084 481.864 442.188 482.433L458.796 486.978L478.423 488.683L493.017 508.003Z" fill="#FFB9B9"/>
<path d="M525.729 550.051L514.658 558.006H501.573L440.678 532.436L351.602 550.619L349.085 529.027L430.613 488.683L502.076 515.39L525.729 550.051Z" fill="#2F2E41"/>
<path d="M454.267 448.908L446.718 450.612L445.073 448.445C443.771 446.73 442.946 444.619 442.701 442.376C442.457 440.133 442.804 437.859 443.699 435.838L464.836 404.586C464.836 404.586 470.875 389.244 480.437 395.495C489.999 401.745 472.385 411.973 472.385 411.973L461.816 430.724L462.823 440.384L454.267 448.908Z" fill="#FFB9B9"/>
<path d="M502.076 411.974C512.916 411.974 521.704 402.052 521.704 389.813C521.704 377.574 512.916 367.652 502.076 367.652C491.237 367.652 482.449 377.574 482.449 389.813C482.449 402.052 491.237 411.974 502.076 411.974Z" fill="#FFB9B9"/>
<path d="M493.269 406.007L502.327 430.441L523.968 420.213C523.968 420.213 516.922 400.893 516.922 400.325C516.922 399.757 493.269 406.007 493.269 406.007Z" fill="#FFB9B9"/>
<path d="M552.86 478.29C552.86 491.665 550.993 504.956 547.329 517.674L545.86 522.777L538.814 559.143L531.265 561.416L525.729 553.461L514.658 544.369L506.605 529.595L499.701 516.606L497.547 512.549L489.998 469.932L461.312 451.749L451.75 450.044L453.763 443.794L462.319 430.725L470.874 429.588L473.39 427.315L475.403 428.452L483.455 423.338L485.972 424.474L500.687 426.02L509.625 423.906L522.478 416.115L527.742 417.087L545.86 434.134C550.491 448.268 552.861 463.22 552.86 478.29Z" fill="#D35766"/>
<path d="M341.139 538.962C341.139 538.962 345.646 530.336 343.742 529.329C341.838 528.322 333.753 524.308 333.753 524.308L321.895 519.871C321.895 519.871 304.786 491.161 304.411 516.127C304.035 541.094 316.868 547.096 316.868 547.096C316.868 547.096 328.314 574.908 334.797 570.473C341.281 566.038 347.769 550.983 347.769 550.983C347.769 550.983 336.077 543.887 341.139 538.962Z" fill="#2F2E41"/>
<path opacity="0.1" d="M547.37 473.342L528.246 487.547L499.701 516.606L497.547 512.549L491.508 478.455H493.018L508.619 446.067L547.37 473.342Z" fill="black"/>
<path d="M508.618 442.657L493.017 475.046H487.481L483.959 486.411L475.906 488.684L497.546 515.39L528.245 484.137L547.369 469.932L508.618 442.657Z" fill="#D35766"/>
<path d="M486.811 373.335L484.684 374.259C484.357 374.009 484.077 373.688 483.862 373.314C483.646 372.94 483.498 372.522 483.428 372.083C483.357 371.644 483.365 371.194 483.45 370.759C483.535 370.323 483.697 369.911 483.925 369.547L479.995 369.34C482.518 365.546 485.725 362.401 489.405 360.111C493.085 357.822 497.153 356.441 501.341 356.06C505.529 355.679 509.741 356.306 513.698 357.901C517.655 359.495 521.267 362.02 524.296 365.308C524.475 364.612 526.425 365.966 527.221 367.338C527.489 366.206 529.318 371.679 529.964 375.548C530.264 374.26 531.415 376.339 530.407 378.335C531.046 378.229 531.334 380.075 530.84 381.104C531.539 380.733 531.421 382.937 530.663 384.41C531.661 384.31 522.794 399.847 519.204 408.927C518.162 403.519 516.99 397.825 513.628 393.797C513.057 393.112 512.432 392.488 511.807 391.866L508.429 388.499C504.5 384.584 500.927 379.751 495.693 378.288C492.097 377.282 489.823 377.055 491.783 372.48C490.012 373.314 488.358 374.555 486.572 375.33C486.596 374.69 486.845 373.975 486.811 373.335Z" fill="#2F2E41"/>
<path d="M511.889 396.347C513.835 396.347 515.412 394.566 515.412 392.37C515.412 390.173 513.835 388.392 511.889 388.392C509.944 388.392 508.366 390.173 508.366 392.37C508.366 394.566 509.944 396.347 511.889 396.347Z" fill="#FFB9B9"/>
<defs>
<clipPath id="clip0">
<rect width="554.791" height="277" fill="white" transform="matrix(-1 0 0 1 607.791 39.9519)"/>
</clipPath>
</defs>
</svg>
