<svg width="541" height="291" viewBox="0 0 541 291" fill="none" xmlns="http://www.w3.org/2000/svg">
<path d="M29.9395 161.33H262.921C270.39 161.33 276.444 167.385 276.444 174.854V276.976C276.444 284.445 270.39 290.5 262.921 290.5H29.9395C22.4707 290.5 16.416 284.445 16.416 276.976V174.854C16.416 167.385 22.4707 161.33 29.9395 161.33Z" fill="#F2F2F2"/>
<path d="M524 40.5C514.611 40.5 507 32.8888 507 23.5C507 14.1112 514.611 6.5 524 6.5C533.389 6.5 541 14.1112 541 23.5C541 32.8888 533.389 40.5 524 40.5Z" fill="#34C1CF"/>
<path opacity="0.5" d="M519 34.5C509.611 34.5 502 26.8888 502 17.5C502 8.11116 509.611 0.5 519 0.5C528.389 0.5 536 8.11116 536 17.5C536 26.8888 528.389 34.5 519 34.5Z" stroke="#3F3D56" stroke-miterlimit="10"/>
<path d="M317 254.5C307.611 254.5 300 246.889 300 237.5C300 228.111 307.611 220.5 317 220.5C326.389 220.5 334 228.111 334 237.5C334 246.889 326.389 254.5 317 254.5Z" fill="#F2F2F2"/>
<path d="M312 248.5C302.611 248.5 295 240.889 295 231.5C295 222.111 302.611 214.5 312 214.5C321.389 214.5 329 222.111 329 231.5C329 240.889 321.389 248.5 312 248.5Z" stroke="#3F3D56" stroke-miterlimit="10"/>
<path d="M185 125.5C175.611 125.5 168 117.889 168 108.5C168 99.1112 175.611 91.5 185 91.5C194.389 91.5 202 99.1112 202 108.5C202 117.889 194.389 125.5 185 125.5Z" fill="#34C1CF"/>
<path opacity="0.5" d="M180 119.5C170.611 119.5 163 111.889 163 102.5C163 93.1112 170.611 85.5 180 85.5C189.389 85.5 197 93.1112 197 102.5C197 111.889 189.389 119.5 180 119.5Z" stroke="#3F3D56" stroke-miterlimit="10"/>
<path d="M255.776 62.9752H488.757C496.226 62.9752 502.281 69.03 502.281 76.4988V178.622C502.281 186.09 496.226 192.145 488.757 192.145H255.776C248.307 192.145 242.252 186.09 242.252 178.622V76.4988C242.252 69.03 248.307 62.9752 255.776 62.9752Z" fill="#34C1CF"/>
<path d="M240.579 52H473.56C481.029 52 487.084 58.0547 487.084 65.5236V167.646C487.084 175.115 481.029 181.17 473.56 181.17H240.579C233.11 181.17 227.056 175.115 227.056 167.646V65.5236C227.056 58.0547 233.11 52 240.579 52Z" stroke="#3F3D56" stroke-miterlimit="10"/>
<path d="M14.7431 150.355H247.724C255.193 150.355 261.248 156.41 261.248 163.878V266.001C261.248 273.47 255.193 279.525 247.724 279.525H14.7431C7.27422 279.525 1.21948 273.47 1.21948 266.001V163.878C1.21948 156.41 7.27422 150.355 14.7431 150.355Z" stroke="#3F3D56" stroke-miterlimit="10"/>
</svg>
