<svg width="266" height="327" viewBox="0 0 266 327" fill="none" xmlns="http://www.w3.org/2000/svg">
<path fill-rule="evenodd" clip-rule="evenodd" d="M173.972 39.6688C177.875 34.4975 180.517 28.16 180.075 21.0586C178.804 0.597582 153.571 5.09875 148.663 15.4257C143.755 25.7527 144.338 51.9479 150.681 53.7936C153.211 54.5297 158.6 52.7266 164.085 48.9948L160.642 76.4882H180.971L173.972 39.6688Z" fill="#B28B67"/>
<path fill-rule="evenodd" clip-rule="evenodd" d="M175.534 44.2748C178.085 31.462 185.354 22.7279 184.244 17.0012C183.504 13.1833 181.531 10.8091 178.326 9.87859C176.669 2.30947 171.323 -0.909973 162.289 0.220264C148.738 1.91562 140.467 8.26815 144.039 22.2465C147.322 22.2465 151.286 20.9061 156.766 23.2026C158.506 23.9313 159.749 26.1909 160.498 29.9815H162.975C165.379 25.4831 167.749 23.83 170.086 25.0224C172.422 26.2147 172.953 29.1108 171.679 33.7108L172.899 44.2748H175.534Z" fill="#191847"/>
<path fill-rule="evenodd" clip-rule="evenodd" d="M117.796 118.854L84.354 113.704C77.6642 109.504 71.5099 106.661 65.8911 105.174C64.3099 105.122 61.7945 105.771 65.5417 109.297C69.2889 112.823 73.091 116.724 72.4233 118.606C71.7557 120.488 68.2708 119.787 67.6935 122.682C67.3087 124.612 72.9644 124.925 84.6606 123.623L111.796 135.766L117.796 118.854ZM222.851 127.591L204.304 127.67C224.641 179.332 235.246 206.381 236.117 208.818C238.077 214.301 233.929 222.651 232.156 227.138C237.932 230.056 237.317 219.25 244.604 223.077C251.255 226.57 256.315 232.899 263.999 227.547C264.944 226.889 265.98 224.411 263.478 222.475C257.246 217.651 248.265 209.209 247.052 206.43C245.397 202.641 237.33 176.361 222.851 127.591Z" fill="#997659"/>
<path fill-rule="evenodd" clip-rule="evenodd" d="M172.048 61.1905L157.526 62.2825C153.949 98.8067 134.469 121.877 90.8521 114.067L85.0575 161.102C125.824 167.049 161.576 148.626 168.903 98.7446C170.8 85.832 172.297 72.3939 172.048 61.1905Z" fill="#AFB9C5"/>
<path fill-rule="evenodd" clip-rule="evenodd" d="M179.212 56.4253L157.21 62.1134C157.21 104.831 145.155 132.086 138.972 163.493H198.395C199.232 174.346 199.746 185.501 200.014 196.957H244.508C234.425 136.401 213.144 89.5523 180.665 56.41H179.224L179.212 56.4253Z" fill="#C5CFD6"/>
<path fill-rule="evenodd" clip-rule="evenodd" d="M189.019 102.551C190.551 129.17 189.65 149.484 186.317 163.493H198.395C196.736 141.994 193.81 121.68 189.019 102.551V102.551Z" fill="black" fill-opacity="0.1"/>
<path fill-rule="evenodd" clip-rule="evenodd" d="M40.5839 316.181C57.2834 293.162 68.5827 276.096 74.4817 264.985C84.5824 245.959 92.8493 229.03 95.4581 222.563C101.679 207.142 81.1362 199.921 76.4868 207.114C69.4499 218.001 54.4214 252.258 31.4014 309.887L40.5839 316.181Z" fill="#B28B67"/>
<path fill-rule="evenodd" clip-rule="evenodd" d="M74.8042 309.488L105.883 221.179C112.53 205.081 80.4298 194.499 75.5447 201.991C64.4539 219 38.0937 286.096 34.7894 291.163L74.8042 309.488Z" fill="#0F7F8B"/>
<path fill-rule="evenodd" clip-rule="evenodd" d="M157.578 291.778C151.524 281.81 129.504 248.273 117.51 234.397C114.063 230.409 110.7 226.582 107.52 223.015C98.0651 212.415 79.2381 230.232 88.675 239.888C112.177 263.934 146.467 296.396 149.332 299.29C153.348 303.347 161.383 298.043 157.578 291.778Z" fill="#B28B67"/>
<path fill-rule="evenodd" clip-rule="evenodd" d="M156.162 287.275C158.247 289.213 159.604 290.796 160.232 292.023C160.996 293.516 161.89 295.839 162.914 298.991C161.38 299.991 147.589 308.978 121.542 325.954C118.414 322.642 117.927 320.072 120.08 318.242C122.233 316.413 124.009 314.87 125.41 313.613L139.69 291.405C139.964 290.977 140.494 290.882 140.873 291.193C140.879 291.198 140.886 291.203 140.892 291.209L143.859 293.788C146.581 293.52 148.612 292.949 149.953 292.075C151.042 291.365 152.293 289.888 153.704 287.644L153.704 287.644C154.246 286.783 155.303 286.581 156.066 287.192C156.099 287.218 156.131 287.246 156.162 287.275Z" fill="#E4E4E4"/>
<path fill-rule="evenodd" clip-rule="evenodd" d="M47.7671 312.74C48.7147 315.596 49.1885 317.732 49.1885 319.15C49.1885 320.874 48.934 323.39 48.4251 326.698C46.6532 326.698 30.7289 326.698 0.652256 326.698C-0.589191 322.065 0.127441 319.564 2.80216 319.194C5.47688 318.825 7.69881 318.491 9.46796 318.194L31.6723 307.02C32.0996 306.805 32.6004 307.022 32.7908 307.504C32.7941 307.512 32.7972 307.521 32.8003 307.529L34.2276 311.437C36.7037 312.741 38.7157 313.393 40.2638 313.393C41.5216 313.393 43.2586 312.82 45.4748 311.673L45.4748 311.673C46.3253 311.233 47.3308 311.654 47.7206 312.614C47.7374 312.656 47.7529 312.698 47.7671 312.74Z" fill="#E4E4E4"/>
<path fill-rule="evenodd" clip-rule="evenodd" d="M117.066 225.59C142.897 220.84 160.199 217.591 168.972 215.845C193.978 210.868 201.271 195.679 196.959 162.537H150.885C144.788 164.525 119.312 176.817 74.457 199.413C66.3867 203.936 67.8896 217.269 69.3648 221.662C69.4249 221.841 83.0299 248.157 110.18 300.608L147.87 273.505L116.995 228.784C116.18 226.93 116.204 225.865 117.066 225.59Z" fill="#1D9CAA"/>
</svg>
