<svg width="179" height="80" viewBox="0 0 179 80" fill="none" xmlns="http://www.w3.org/2000/svg">
<path d="M168.029 72.4241C164.883 79.0372 -0.249947 78.4821 0.000284098 72.4237C3.14572 65.811 168.279 66.3662 168.029 72.4241Z" fill="#C7D4E7"/>
<path d="M151.798 67.974C151.798 67.974 157.232 47.3277 136.565 35.573L151.798 67.974Z" fill="#C7D4E7"/>
<path d="M152.475 68.0843C152.475 68.0843 154.629 47.7075 178.7 46.4302L152.475 68.0843Z" fill="#C7D4E7"/>
<path d="M60.1309 64.8229L54.5132 64.4001L56.3858 73.9144L62.7525 70.9544L60.1309 64.8229Z" fill="#FFB9B9"/>
<path d="M111.627 47.0625L98.5193 32.6853L91.0289 39.2396L76.2352 59.3256L77.9206 62.2855L95.8977 48.5427L108.069 66.5144L119.679 59.9599L111.627 47.0625Z" fill="#2F2E41"/>
<path opacity="0.1" d="M111.627 47.0625L98.5193 32.6853L91.0289 39.2396L76.2352 59.3256L77.9206 62.2855L95.8977 48.5427L108.069 66.5144L119.679 59.9599L111.627 47.0625Z" fill="black"/>
<path d="M112.751 56.5772L111.066 58.0572L97.3957 52.7714L94.2123 51.2913L87.8455 52.7713C87.8455 52.7713 87.8455 46.8512 93.8378 47.0627L100.017 48.7541L107.32 49.3884L112.751 56.5772Z" fill="#FFB9B9"/>
<path d="M124.923 72.2233L120.803 75.1833H115.934L93.2759 65.6688L60.131 72.4347L59.1946 64.4004L89.5307 49.3887L116.122 59.3259L124.923 72.2233Z" fill="#2F2E41"/>
<path d="M98.3323 34.5884L95.5234 35.2227L94.9113 34.4164C94.4267 33.7781 94.1197 32.9925 94.0287 32.1581C93.9377 31.3236 94.0668 30.4774 94.3998 29.7255L102.265 18.0967C102.265 18.0967 104.512 12.3881 108.07 14.7138C111.628 17.0396 105.074 20.8453 105.074 20.8453L101.141 27.8226L101.516 31.4169L98.3323 34.5884Z" fill="#FFB9B9"/>
<path d="M116.122 20.8454C120.155 20.8454 123.425 17.1536 123.425 12.5996C123.425 8.04555 120.155 4.35376 116.122 4.35376C112.088 4.35376 108.819 8.04555 108.819 12.5996C108.819 17.1536 112.088 20.8454 116.122 20.8454Z" fill="#FFB9B9"/>
<path d="M112.844 18.6252L116.215 27.7168L124.267 23.911C124.267 23.911 121.646 16.7223 121.646 16.5109C121.646 16.2995 112.844 18.6252 112.844 18.6252Z" fill="#FFB9B9"/>
<path d="M135.018 45.5211C135.018 50.4976 134.323 55.4431 132.96 60.1755L132.413 62.0742L129.792 75.6058L126.983 76.4515L124.923 73.4915L120.803 70.1086L117.807 64.6113L115.238 59.778L114.436 58.2684L111.627 42.411L100.954 35.6451L97.3956 35.0108L98.1447 32.6851L101.328 27.8222L104.511 27.3993L105.448 26.5536L106.197 26.9764L109.193 25.0735L110.129 25.4964L115.605 26.0715L118.931 25.285L123.713 22.3862L125.672 22.7478L132.413 29.0907C134.137 34.3501 135.019 39.9134 135.018 45.5211Z" fill="#25929D"/>
<path d="M56.2377 68.0969C56.2377 68.0969 57.915 64.8873 57.2065 64.5126C56.4981 64.1379 53.4895 62.6441 53.4895 62.6441L49.0775 60.9932C49.0775 60.9932 42.7112 50.3103 42.5715 59.6003C42.4318 68.8903 47.2069 71.1235 47.2069 71.1235C47.2069 71.1235 51.4658 81.472 53.8783 79.8218C56.2907 78.1716 58.7048 72.5699 58.7048 72.5699C58.7048 72.5699 54.3544 69.9294 56.2377 68.0969Z" fill="#2F2E41"/>
<path opacity="0.1" d="M132.975 43.6796L125.859 48.9652L115.238 59.778L114.437 58.2684L112.189 45.5823H112.751L118.556 33.5308L132.975 43.6796Z" fill="black"/>
<path d="M118.556 32.2627L112.751 44.3142H110.691L109.38 48.543L106.384 49.3887L114.436 59.3259L125.859 47.6971L132.975 42.4115L118.556 32.2627Z" fill="#25929D"/>
<path d="M110.441 6.46822L109.65 6.81195C109.528 6.71891 109.424 6.59938 109.344 6.46036C109.264 6.32135 109.209 6.16563 109.183 6.00236C109.156 5.83908 109.159 5.67153 109.191 5.5095C109.223 5.34747 109.283 5.19423 109.368 5.05876L107.906 4.9815C108.844 3.56996 110.038 2.39956 111.407 1.54775C112.776 0.695933 114.29 0.182117 115.848 0.0403025C117.407 -0.101512 118.974 0.131907 120.446 0.725111C121.919 1.31832 123.263 2.25778 124.389 3.48136C124.456 3.22247 125.182 3.72616 125.478 4.23688C125.578 3.81561 126.258 5.85204 126.499 7.29153C126.61 6.81224 127.039 7.58599 126.663 8.32844C126.901 8.28921 127.008 8.9762 126.824 9.35894C127.085 9.22093 127.041 10.041 126.759 10.589C127.13 10.5518 123.831 16.3331 122.495 19.7118C122.107 17.6996 121.671 15.5807 120.42 14.0818C120.208 13.8271 119.975 13.595 119.742 13.3634L118.485 12.1105C117.024 10.6537 115.694 8.85563 113.747 8.31115C112.408 7.93697 111.562 7.85249 112.292 6.14987C111.633 6.46033 111.017 6.92201 110.353 7.21037C110.361 6.97247 110.454 6.70625 110.441 6.46822Z" fill="#2F2E41"/>
<path d="M119.773 15.0308C120.497 15.0308 121.084 14.3682 121.084 13.5508C121.084 12.7334 120.497 12.0708 119.773 12.0708C119.049 12.0708 118.462 12.7334 118.462 13.5508C118.462 14.3682 119.049 15.0308 119.773 15.0308Z" fill="#FFB9B9"/>
</svg>
