<svg width="121" height="352" viewBox="0 0 121 352" fill="none" xmlns="http://www.w3.org/2000/svg">
<path d="M69.7246 351.663C97.6204 351.663 120.234 346.702 120.234 340.583C120.234 334.463 97.6204 329.502 69.7246 329.502C41.8288 329.502 19.2147 334.463 19.2147 340.583C19.2147 346.702 41.8288 351.663 69.7246 351.663Z" fill="#E6E6E6"/>
<path d="M22.2125 239.405L0.916019 232.358C2.0947 223.003 4.78534 213.931 8.87064 205.537L30.1671 212.584C25.1696 220.551 22.4116 229.85 22.2125 239.405Z" fill="#34C1CF"/>
<path d="M73.4 70.5727C62.4186 70.5727 53.5164 61.1696 53.5164 49.5703C53.5164 37.971 62.4186 28.5679 73.4 28.5679C84.3814 28.5679 93.2836 37.971 93.2836 49.5703C93.2836 61.1696 84.3814 70.5727 73.4 70.5727Z" fill="#2F2E41"/>
<path d="M94.8508 312.756L98.633 329.878H89.4476L85.6654 310.473L94.8508 312.756Z" fill="#9F616A"/>
<path d="M50.5446 312.756V328.736L41.3591 329.878V312.756H50.5446Z" fill="#9F616A"/>
<path d="M97.5518 131.267C97.5518 131.267 96.4712 155.808 95.3905 157.52C94.3099 159.232 84.5842 183.773 84.5842 183.773L79.7214 167.793C79.7214 167.793 87.2858 154.667 86.2052 147.247C85.1245 139.828 85.8053 130.698 85.8053 130.698L97.5518 131.267Z" fill="#9F616A"/>
<path d="M66.7546 71.9122C58.3992 71.9122 51.6257 64.7577 51.6257 55.9321C51.6257 47.1065 58.3992 39.9519 66.7546 39.9519C75.11 39.9519 81.8835 47.1065 81.8835 55.9321C81.8835 64.7577 75.11 71.9122 66.7546 71.9122Z" fill="#9F616A"/>
<path d="M79.1808 57.6443C79.1808 57.6443 78.6405 80.4731 82.4227 83.8974C86.205 87.3217 60.8101 84.4681 60.8101 84.4681C60.8101 84.4681 66.2133 68.488 61.8907 65.0637C57.5682 61.6393 79.1808 57.6443 79.1808 57.6443Z" fill="#9F616A"/>
<path d="M59.1896 83.3266C59.1896 83.3266 62.4315 77.0487 66.7541 77.6194C71.0766 78.1902 85.1249 79.3316 85.6652 80.473C86.2055 81.6145 87.8264 85.6095 88.9071 86.751C89.9877 87.8924 98.0925 89.6046 98.6328 96.4532C99.1731 103.302 79.1814 144.964 79.1814 144.964C79.1814 144.964 81.883 154.667 81.3426 156.95C80.8023 159.232 84.0442 166.081 83.5039 168.935C82.9636 171.788 91.6087 188.91 87.2861 211.168V247.123C87.2861 247.123 101.875 309.332 97.5522 313.898C93.2296 318.463 78.6411 315.61 75.9395 313.898C73.2379 312.185 61.8912 226.007 61.8912 226.007L56.488 196.9L55.9477 260.821C55.9477 260.821 57.0284 314.468 53.2461 316.18C49.4639 317.893 34.8753 318.463 33.7947 315.039C32.9519 312.368 28.8225 241.308 27.0457 210.16C26.4302 199.408 27.2308 188.618 29.4246 178.099C31.6735 167.325 34.9383 154.668 38.6576 149.53C45.6817 139.828 50.0042 109.009 50.0042 109.009L40.8188 91.3167C40.8188 91.3167 46.222 85.6095 49.4639 85.6095C52.7058 85.6095 59.1896 83.3266 59.1896 83.3266Z" fill="#2F2E41"/>
<path d="M95.3904 92.4583L98.2399 94.5068C98.2399 94.5068 100.253 131.267 98.6324 133.55C97.0114 135.833 85.7418 134.719 84.8928 132.708C84.0438 130.697 95.3904 92.4583 95.3904 92.4583Z" fill="#2F2E41"/>
<path d="M51.0852 126.701C51.0852 126.701 50.5448 150.672 47.3029 157.52C44.061 164.369 32.174 192.905 32.174 192.905C32.174 192.905 32.864 224.313 26.8457 216.599C20.8274 208.885 24.6096 190.622 24.6096 190.622L34.8756 148.389C34.8756 148.389 40.2788 129.555 39.7385 123.848C39.1982 118.141 51.0852 126.701 51.0852 126.701Z" fill="#9F616A"/>
<path d="M41.3596 319.49C41.3596 319.49 40.8193 319.034 39.1983 320.746C37.5774 322.458 33.2549 324.741 33.7952 331.019C34.3355 337.297 37.5774 338.439 37.5774 338.439V336.726H39.1983V339.58C39.1983 339.58 41.8999 348.711 54.3272 343.004C54.3272 343.004 54.8675 338.439 54.3272 335.585C53.7869 332.731 53.7869 319.034 52.1659 319.605C50.545 320.175 46.2225 320.746 45.1418 323.029C44.0612 325.312 40.8193 324.512 41.3596 319.49Z" fill="#2F2E41"/>
<path d="M97.0118 320.061C97.0118 320.061 97.5521 319.605 99.173 321.317C100.794 323.029 105.117 325.312 104.576 331.59C104.036 337.868 100.794 339.009 100.794 339.009V337.297H99.173V340.151C99.173 340.151 96.4714 349.282 84.0441 343.575C84.0441 343.575 83.5038 339.009 84.0441 336.156C84.5845 333.302 84.5845 319.605 86.2054 320.175C87.8264 320.746 92.1489 321.317 93.2295 323.6C94.3102 325.883 97.5521 325.083 97.0118 320.061Z" fill="#2F2E41"/>
<path d="M48.3831 89.6045L40.8187 91.3167C40.8187 91.3167 40.8187 103.872 38.6574 109.009C36.4962 114.145 32.7139 126.131 34.3349 126.701C35.9558 127.272 51.0847 135.262 52.1653 130.696C53.246 126.131 55.9475 89.6045 48.3831 89.6045Z" fill="#2F2E41"/>
<path d="M94.941 42.9194C83.9596 42.9194 75.0574 33.5163 75.0574 21.917C75.0574 10.3177 83.9596 0.914551 94.941 0.914551C105.922 0.914551 114.825 10.3177 114.825 21.917C114.825 33.5163 105.922 42.9194 94.941 42.9194Z" fill="#2F2E41"/>
<path d="M112.091 39.3082C109.517 41.2729 106.535 42.5581 103.395 43.0561C100.255 43.5541 97.0477 43.2506 94.0413 42.1709C91.035 41.0911 88.3172 39.2666 86.1153 36.8499C83.9133 34.4332 82.2914 31.4947 81.3851 28.2801C81.728 31.1609 82.6326 33.9353 84.0419 36.4281C85.4512 38.921 87.3344 41.0781 89.5728 42.7633C91.8111 44.4486 94.356 45.6253 97.0466 46.2193C99.7373 46.8132 102.515 46.8115 105.205 46.2142C107.895 45.6169 110.439 44.4369 112.675 42.7489C114.912 41.0608 116.793 38.9014 118.199 36.4068C119.605 33.9122 120.507 31.1367 120.847 28.2555C121.186 25.3743 120.957 22.45 120.173 19.6672C120.618 23.4059 120.103 27.2022 118.681 30.658C117.259 34.1138 114.982 37.1017 112.091 39.3082Z" fill="#2F2E41"/>
<path d="M78.7023 68.4722C70.6493 68.4722 64.121 61.5766 64.121 53.0705C64.121 44.5643 70.6493 37.6687 78.7023 37.6687C86.7553 37.6687 93.2836 44.5643 93.2836 53.0705C93.2836 61.5766 86.7553 68.4722 78.7023 68.4722Z" fill="#2F2E41"/>
<path d="M66.4403 57.9711C59.3024 57.9711 53.516 53.1912 53.516 47.2949C53.516 41.3986 59.3024 36.6187 66.4403 36.6187C73.5783 36.6187 79.3647 41.3986 79.3647 47.2949C79.3647 53.1912 73.5783 57.9711 66.4403 57.9711Z" fill="#2F2E41"/>
<path d="M62.9929 62.8185C61.6382 62.8185 60.54 60.7663 60.54 58.2346C60.54 55.7029 61.6382 53.6506 62.9929 53.6506C64.3476 53.6506 65.4458 55.7029 65.4458 58.2346C65.4458 60.7663 64.3476 62.8185 62.9929 62.8185Z" fill="#A0616A"/>
</svg>
