<svg width="906" height="711" viewBox="0 0 906 711" fill="none" xmlns="http://www.w3.org/2000/svg">
<path fill-rule="evenodd" clip-rule="evenodd" d="M5.44828 523.077C34.6998 635.471 282.368 716.396 552.534 665.965C628.817 643.074 737.564 655.279 824.378 665.023C891.295 672.533 945.181 678.581 961.123 665.965C961.123 648.423 935.823 610.73 903.991 563.303C863.203 502.534 811.69 425.786 788.929 354.974C749.988 233.824 734.896 228.897 734.896 228.897C705.645 116.503 428.89 108.521 255.352 178.466C81.8127 248.411 -23.8033 410.684 5.44828 523.077ZM419.063 387.611C425.328 403.622 442.022 409.064 455.831 412.764C487.219 421.174 519.651 385.336 533.383 334.087C547.115 282.838 536.947 235.585 505.56 227.175C474.173 218.765 437.596 253.493 423.864 304.742C416.174 333.443 411.089 367.231 419.063 387.611Z" fill="white" fill-opacity="0.1"/>
<path d="M610.608 54.546C610.608 68.8424 609.753 86.3768 597.1 96.5719C580.994 109.549 549.962 113.382 522.804 113.382C474.311 113.382 435 87.0404 435 54.546C435 22.0517 474.311 0 522.804 0C571.297 0 610.608 22.0517 610.608 54.546Z" fill="#4AB1CE"/>
<path opacity="0.1" d="M271.486 710.992C227.703 710.992 192.21 707.493 192.21 703.175C192.21 698.858 227.703 695.358 271.486 695.358C315.269 695.358 350.762 698.858 350.762 703.175C350.762 707.493 315.269 710.992 271.486 710.992Z" fill="#00BFA6"/>
<path opacity="0.3" d="M675.609 406.966H661.819V393.343H675.609V406.966ZM675.4 386.477H662.028C662.028 365.368 682.086 366.598 682.086 353.229C682.079 351.48 681.728 349.749 681.052 348.136C680.376 346.523 679.389 345.059 678.147 343.827C676.905 342.596 675.433 341.621 673.814 340.959C672.196 340.297 670.462 339.96 668.714 339.968C665.182 340.05 661.82 341.497 659.332 344.006C656.845 346.514 655.425 349.889 655.372 353.422H642C642.089 346.402 644.932 339.698 649.916 334.755C654.901 329.813 661.627 327.028 668.646 327C675.664 326.973 682.413 329.705 687.436 334.609C692.458 339.513 695.354 346.194 695.497 353.213C695.459 369.915 675.4 371.817 675.4 386.446V386.477Z" fill="white"/>
<path opacity="0.3" d="M572.671 573.935H558.881V560.35H572.671V573.935ZM572.47 553.453H559.097C559.097 532.337 579.156 533.574 579.156 520.206C579.149 518.457 578.797 516.727 578.121 515.114C577.445 513.501 576.458 512.038 575.216 510.807C573.974 509.576 572.502 508.602 570.883 507.941C569.265 507.279 567.532 506.944 565.783 506.953C562.237 507.017 558.855 508.458 556.352 510.972C553.849 513.486 552.422 516.875 552.372 520.422H539C539.089 513.402 541.932 506.698 546.916 501.755C551.901 496.813 558.627 494.028 565.646 494C572.664 493.973 579.413 496.705 584.436 501.609C589.458 506.513 592.354 513.194 592.497 520.213C592.52 536.915 572.47 538.824 572.47 553.453Z" fill="white"/>
<path opacity="0.3" d="M577.38 231.253H567.385V221.426H577.38V231.253ZM577.233 216.4H567.54C567.54 201.106 582.079 201.995 582.079 192.315C582.073 191.048 581.818 189.794 581.327 188.626C580.837 187.457 580.121 186.397 579.221 185.505C578.321 184.613 577.254 183.908 576.081 183.428C574.909 182.949 573.653 182.705 572.386 182.712C569.821 182.763 567.376 183.81 565.568 185.631C563.76 187.451 562.729 189.903 562.693 192.469H553C552.98 187.326 555.002 182.386 558.624 178.735C562.245 175.083 567.167 173.021 572.309 173C577.451 172.98 582.39 175.003 586.04 178.625C589.69 182.247 591.752 187.172 591.772 192.315C591.757 204.415 577.233 205.799 577.233 216.4Z" fill="white"/>
<path opacity="0.9" d="M399.011 376H349.026V326.914H399.047L399.011 376ZM398.288 301.99H349.748C349.748 225.711 422.504 230.168 422.504 181.911C422.504 155.33 400.673 134.035 374 134.035C347.327 134.035 325.504 156.993 325.504 182.667H277C276.978 169.966 279.472 157.386 284.339 145.648C289.206 133.91 296.35 123.245 305.362 114.264C314.374 105.284 325.075 98.1642 336.854 93.314C348.632 88.4638 361.256 85.9783 374 86.0001C427.577 86.0001 471 128.597 471 181.911C471 242.253 398.252 249.123 398.252 301.99H398.288Z" fill="white"/>
<path opacity="0.3" d="M246.813 284.623H241.163V279.056H246.813V284.623ZM246.728 276.234H241.217C241.217 267.59 249.433 268.092 249.433 262.618C249.433 261.902 249.291 261.193 249.016 260.532C248.74 259.872 248.336 259.272 247.827 258.769C247.318 258.265 246.714 257.868 246.05 257.6C245.387 257.331 244.676 257.197 243.961 257.206C242.511 257.235 241.13 257.827 240.108 258.855C239.086 259.883 238.502 261.269 238.48 262.719H233C233.064 259.861 234.241 257.142 236.28 255.14C238.319 253.138 241.058 252.011 243.915 252C246.773 251.989 249.521 253.094 251.575 255.081C253.63 257.067 254.828 259.777 254.914 262.633C254.945 269.43 246.728 270.242 246.728 276.234Z" fill="white"/>
<path opacity="0.3" d="M161.782 518.623H156.132V513.056H161.782V518.623ZM161.697 510.234H156.217C156.217 501.582 164.441 502.092 164.441 496.618C164.431 495.174 163.848 493.792 162.82 492.778C161.793 491.763 160.405 491.197 158.961 491.206C157.511 491.234 156.128 491.824 155.106 492.853C154.083 493.882 153.5 495.268 153.48 496.718H148C148.064 493.861 149.241 491.142 151.28 489.14C153.319 487.138 156.058 486.011 158.915 486C161.773 485.989 164.521 487.094 166.575 489.08C168.63 491.067 169.828 493.777 169.914 496.633C169.945 503.461 161.728 504.242 161.728 510.234H161.697Z" fill="white"/>
<path fill-rule="evenodd" clip-rule="evenodd" d="M275.468 342.454C269.991 338.724 265.553 333.53 264.192 326.721C260.271 307.102 288.226 303.998 296.099 312.286C303.972 320.574 310.102 345.387 303.841 348.968C301.344 350.396 295.157 350.267 288.371 348.352L299.111 373.215L277.524 379.127L275.468 342.454Z" fill="#FFC0C0"/>
<path fill-rule="evenodd" clip-rule="evenodd" d="M285.964 316.302C283.484 318.743 282.24 322.385 280.833 327.1C280.156 327.027 279.455 327.077 278.758 327.268C275.778 328.084 274.023 331.162 274.839 334.143C275.254 335.656 276.251 336.853 277.523 337.558C276.757 339.663 275.861 341.887 274.778 344.227C267.81 342.275 260.493 333.03 263.441 321.363C262.815 299.782 294.112 304.712 298.537 299.831C301.72 306.853 299.563 313.809 285.964 316.302Z" fill="#191847"/>
<g clip-path="url(#clip0)">
<path fill-rule="evenodd" clip-rule="evenodd" d="M277.488 428.536L306.984 532.34L328.504 608.85H344.2L321.332 428.536H277.488Z" fill="#191847"/>
<path fill-rule="evenodd" clip-rule="evenodd" d="M269.6 428.536C268.918 482.038 266.592 511.219 265.875 516.08C265.159 520.941 254.328 551.864 233.382 608.85H249.642C276.308 554.182 291.193 523.259 294.299 516.08C297.404 508.902 306.987 479.72 321.421 428.536H269.6Z" fill="#2F3676"/>
<path fill-rule="evenodd" clip-rule="evenodd" d="M231.929 623.536L232.743 606.402H249.827C257.928 612.113 268.505 616.737 281.556 620.272V623.536H250.641L240.065 621.904V623.536H231.929Z" fill="#191847"/>
<path fill-rule="evenodd" clip-rule="evenodd" d="M326.302 623.536L327.115 606.402H344.2C352.301 612.113 362.878 616.737 375.929 620.272V623.536H345.014L334.438 621.904V623.536H326.302Z" fill="#191847"/>
</g>
<path fill-rule="evenodd" clip-rule="evenodd" d="M315.805 383.538L340.493 363.753C344.086 357.556 347.824 352.575 351.708 348.812C352.957 348.011 355.253 347.255 353.739 351.556C352.225 355.856 350.825 360.448 352.161 361.455C353.496 362.463 355.999 360.285 357.692 362.051C358.82 363.229 354.409 366.181 344.457 370.908L327.806 392.59L315.805 383.538ZM360.831 388.62L371.671 379.909C372.226 373.203 373.67 369.624 376.006 369.171C377.657 368.016 375.952 376.667 379.239 375.363C382.526 374.059 389.76 366.399 391.416 367.403C393.867 368.889 392.981 374.934 391.253 378.168C388.022 384.213 384.891 386.637 376.783 390.519C372.543 392.548 368.161 395.89 363.638 400.545L360.831 388.62Z" fill="#FFB9B9"/>
<path fill-rule="evenodd" clip-rule="evenodd" d="M301.909 382.551C311.463 380.762 323.87 376.49 335.965 365.444L343.416 376.428C335.666 387.407 323.808 397.396 312.201 399.108C303.054 400.458 296.461 390.268 301.909 382.551Z" fill="#17194B"/>
<path fill-rule="evenodd" clip-rule="evenodd" d="M318.17 399.406C328.778 400.149 345.291 394.156 367.709 381.427C375.806 392.655 380.092 400.922 380.566 406.227C361.937 420.564 345.193 428.443 330.76 431.313C332.736 439.829 333.132 448.194 330.935 456.289C326.418 472.93 281.592 466.16 267.858 471.47C253.845 444.104 269 429.307 265.749 410.789C262.189 390.51 272.966 356.429 275.362 356.007L297.207 352.155C301.142 367.428 310.218 383.424 318.17 399.406Z" fill="#22418C"/>
<defs>
<clipPath id="clip0">
<rect width="144" height="195" fill="white" transform="translate(231 436)"/>
</clipPath>
</defs>
</svg>
