<svg preserveAspectRatio = "none" viewBox="0 0 1600 1296" fill="none" xmlns="http://www.w3.org/2000/svg">
<path d="M-2.25653 129.357C810.205 727.191 559.705 211.191 1598.24 568.357C2636.78 925.523 1598.24 1199.86 1598.24 1199.86L-4.75671 1199.86C-4.75671 1199.86 -814.718 -468.477 -2.25653 129.357Z" fill="#DAF0F7"/>
<path d="M-2.46179 198.166C787.038 822.666 737.5 76 1598.04 657C2458.58 1238 1598.04 1268.67 1598.04 1268.67L-4.96198 1268.66C-4.96198 1268.66 -791.962 -426.335 -2.46179 198.166Z" fill="#BDD8EC"/>
<path d="M2.49988 225.501C792 850.002 697.502 131.001 1603 664.501C2508.5 1198 1603 1296 1603 1296L-0.000305176 1296C-0.000305176 1296 -787 -398.999 2.49988 225.501Z" fill="url(#paint0_linear)"/>
<defs>
<linearGradient id="paint0_linear" x1="-2.50019" y1="257" x2="1578" y2="1281" gradientUnits="userSpaceOnUse">
<stop stop-color="#3C60B9"/>
<stop offset="1" stop-color="#34C1CE"/>
</linearGradient>
</defs>
</svg>
