<?xml version="1.0" encoding="UTF-8" standalone="no"?><!DOCTYPE svg PUBLIC "-//W3C//DTD SVG 1.1//EN" "http://www.w3.org/Graphics/SVG/1.1/DTD/svg11.dtd"><svg width="100%" height="100%" viewBox="0 0 145 146" version="1.1" xmlns="http://www.w3.org/2000/svg" xmlns:xlink="http://www.w3.org/1999/xlink" xml:space="preserve" xmlns:serif="http://www.serif.com/" style="fill-rule:evenodd;clip-rule:evenodd;stroke-linecap:round;stroke-linejoin:round;stroke-miterlimit:1.5;"><g id="stroked-circle" serif:id="stroked circle"><path d="M120.952,17.008c29.772,25.832 32.232,71.828 5.489,102.65c-26.743,30.822 -72.626,34.873 -102.398,9.04c-29.773,-25.832 -32.232,-71.828 -5.49,-102.65c26.743,-30.821 72.626,-34.872 102.399,-9.04Z" style="fill:#fff;"/><clipPath id="_clip1"><path d="M120.952,17.008c29.772,25.832 32.232,71.828 5.489,102.65c-26.743,30.822 -72.626,34.873 -102.398,9.04c-29.773,-25.832 -32.232,-71.828 -5.49,-102.65c26.743,-30.821 72.626,-34.872 102.399,-9.04Z"/></clipPath><g clip-path="url(#_clip1)"><g id="Lines"><path d="M-45.335,65.007c48.147,-36.327 94.08,-72.171 142.06,-108.371" style="fill:none;stroke:#000;stroke-width:0.68px;"/><path d="M-40.655,71.21c48.148,-36.327 94.081,-72.171 142.06,-108.37" style="fill:none;stroke:#000;stroke-width:0.68px;"/><path d="M-35.975,77.413c48.148,-36.326 94.081,-72.17 142.061,-108.37" style="fill:none;stroke:#000;stroke-width:0.68px;"/><path d="M-31.294,83.616c48.147,-36.326 94.08,-72.17 142.06,-108.37" style="fill:none;stroke:#000;stroke-width:0.68px;"/><path d="M-26.614,89.819c48.147,-36.326 94.08,-72.17 142.06,-108.37" style="fill:none;stroke:#000;stroke-width:0.68px;"/><path d="M-21.934,96.022c48.147,-36.326 94.08,-72.17 142.06,-108.37" style="fill:none;stroke:#000;stroke-width:0.68px;"/><path d="M-17.254,102.226c48.148,-36.327 94.081,-72.171 142.06,-108.371" style="fill:none;stroke:#000;stroke-width:0.68px;"/><path d="M-12.574,108.429c48.148,-36.327 94.081,-72.171 142.061,-108.37" style="fill:none;stroke:#000;stroke-width:0.68px;"/><path d="M-7.893,114.632c48.147,-36.326 94.08,-72.17 142.06,-108.37" style="fill:none;stroke:#000;stroke-width:0.68px;"/><path d="M-3.213,120.835c48.147,-36.326 94.08,-72.17 142.06,-108.37" style="fill:none;stroke:#000;stroke-width:0.68px;"/><path d="M1.467,127.038c48.147,-36.326 94.08,-72.17 142.06,-108.37" style="fill:none;stroke:#000;stroke-width:0.68px;"/><path d="M6.147,133.242c48.148,-36.327 94.081,-72.171 142.06,-108.371" style="fill:none;stroke:#000;stroke-width:0.68px;"/><path d="M10.827,139.445c48.148,-36.327 94.081,-72.171 142.061,-108.37" style="fill:none;stroke:#000;stroke-width:0.68px;"/><path d="M15.508,145.648c48.147,-36.327 94.08,-72.17 142.06,-108.37" style="fill:none;stroke:#000;stroke-width:0.68px;"/><path d="M20.188,151.851c48.147,-36.326 94.08,-72.17 142.06,-108.37" style="fill:none;stroke:#000;stroke-width:0.68px;"/><path d="M24.868,158.054c48.147,-36.326 94.08,-72.17 142.06,-108.37" style="fill:none;stroke:#000;stroke-width:0.68px;"/><path d="M29.548,164.257c48.148,-36.326 94.081,-72.17 142.06,-108.37" style="fill:none;stroke:#000;stroke-width:0.68px;"/><path d="M34.228,170.461c48.148,-36.327 94.081,-72.171 142.061,-108.371" style="fill:none;stroke:#000;stroke-width:0.68px;"/><path d="M38.909,176.664c48.147,-36.327 94.08,-72.171 142.06,-108.37" style="fill:none;stroke:#000;stroke-width:0.68px;"/><path d="M43.589,182.867c48.147,-36.326 94.08,-72.17 142.06,-108.37" style="fill:none;stroke:#000;stroke-width:0.68px;"/><path d="M48.269,189.07c48.147,-36.326 94.08,-72.17 142.06,-108.37" style="fill:none;stroke:#000;stroke-width:0.68px;"/></g></g></g></svg>