<svg width="239" height="47" viewBox="0 0 239 47" fill="none" xmlns="http://www.w3.org/2000/svg">
<path d="M45.0338 3.52231C45.0338 4.4455 44.9722 5.57778 44.0621 6.23613C42.9037 7.07415 40.6716 7.32166 38.7182 7.32166C35.2302 7.32166 32.4026 5.62063 32.4026 3.52231C32.4026 1.42399 35.2302 0 38.7182 0C42.2062 0 45.0338 1.42399 45.0338 3.52231Z" fill="white"/>
<path fill-rule="evenodd" clip-rule="evenodd" d="M0.34866 35.9122C2.45267 43.17 20.267 48.3958 39.6996 45.1392C44.6468 43.8064 50.4119 44.5344 55.7773 45.2119C60.9495 45.865 65.7502 46.4713 69.0886 45.1392C68.5854 41.9534 66.113 38.8985 63.4289 35.582C60.8729 32.4237 58.1249 29.0283 56.7031 25.0569C53.9021 17.2336 52.8166 16.9155 52.8166 16.9155C50.7125 9.65767 30.8061 9.1422 18.3238 13.6589C5.84141 18.1756 -1.75535 28.6544 0.34866 35.9122ZM30.306 33.0228C32.8206 34.0434 37.709 32.6667 39.4021 26.5142C40.926 20.977 39.7209 17.3923 36.781 16.9267C32.3392 17.1404 30.0457 19.7057 28.6507 23.996C27.5148 28.3003 26.915 31.3647 30.306 33.0228Z" fill="white"/>
<path d="M81.4378 32.1127C80.6238 32.1127 79.8411 32.0063 79.0898 31.7934C78.3384 31.568 77.7498 31.2862 77.324 30.9481L78.0754 29.5205C78.5137 29.8335 79.0459 30.084 79.6721 30.2718C80.2982 30.4597 80.9306 30.5536 81.5693 30.5536C83.1472 30.5536 83.9361 30.1028 83.9361 29.2011C83.9361 28.9006 83.8297 28.6626 83.6168 28.4873C83.4039 28.312 83.1347 28.1868 82.8091 28.1116C82.496 28.024 82.0452 27.93 81.4566 27.8299C80.6551 27.7046 79.9977 27.5606 79.4842 27.3978C78.9833 27.235 78.5513 26.9595 78.1881 26.5713C77.8249 26.1831 77.6434 25.6384 77.6434 24.9371C77.6434 24.0354 78.0191 23.3154 78.7704 22.7769C79.5218 22.2259 80.5299 21.9504 81.7947 21.9504C82.4584 21.9504 83.1221 22.0318 83.7859 22.1945C84.4496 22.3573 84.9943 22.5765 85.4201 22.852L84.6499 24.2796C83.836 23.7537 82.878 23.4907 81.7759 23.4907C81.012 23.4907 80.4297 23.6159 80.029 23.8664C79.6283 24.1168 79.4279 24.4487 79.4279 24.8619C79.4279 25.1875 79.5406 25.4442 79.766 25.6321C79.9914 25.8199 80.2669 25.9577 80.5925 26.0453C80.9306 26.133 81.4002 26.2332 82.0013 26.3459C82.8028 26.4837 83.4477 26.6339 83.9361 26.7967C84.4371 26.947 84.8628 27.21 85.2135 27.5857C85.5641 27.9614 85.7394 28.4873 85.7394 29.1636C85.7394 30.0652 85.3512 30.7853 84.5748 31.3238C83.8109 31.8497 82.7652 32.1127 81.4378 32.1127ZM100.466 22.0443V32H98.7566V30.4972C98.3934 31.0107 97.9113 31.4114 97.3102 31.6994C96.7216 31.975 96.0767 32.1127 95.3754 32.1127C94.048 32.1127 93.0023 31.7495 92.2384 31.0232C91.4745 30.2844 91.0926 29.2011 91.0926 27.7735V22.0443H92.8959V27.5669C92.8959 28.5311 93.1275 29.2637 93.5909 29.7647C94.0542 30.2531 94.7179 30.4972 95.582 30.4972C96.5338 30.4972 97.2851 30.2092 97.8361 29.6332C98.3872 29.0571 98.6627 28.2431 98.6627 27.1912V22.0443H100.466ZM112.371 21.9504C113.335 21.9504 114.199 22.1632 114.963 22.589C115.727 23.0148 116.322 23.6096 116.747 24.3735C117.186 25.1374 117.405 26.0203 117.405 27.0221C117.405 28.024 117.186 28.9131 116.747 29.6895C116.322 30.4534 115.727 31.0483 114.963 31.474C114.199 31.8998 113.335 32.1127 112.371 32.1127C111.632 32.1127 110.956 31.9687 110.342 31.6807C109.728 31.3926 109.221 30.9731 108.82 30.4221V32H107.092V18.062H108.896V23.547C109.296 23.0211 109.797 22.6266 110.398 22.3636C110.999 22.0881 111.657 21.9504 112.371 21.9504ZM112.22 30.5348C112.859 30.5348 113.429 30.3908 113.93 30.1028C114.443 29.8022 114.844 29.389 115.132 28.863C115.433 28.3245 115.583 27.7109 115.583 27.0221C115.583 26.3334 115.433 25.726 115.132 25.2001C114.844 24.6616 114.443 24.2483 113.93 23.9603C113.429 23.6723 112.859 23.5282 112.22 23.5282C111.594 23.5282 111.024 23.6723 110.511 23.9603C109.998 24.2483 109.597 24.6616 109.309 25.2001C109.021 25.726 108.877 26.3334 108.877 27.0221C108.877 27.7109 109.021 28.3245 109.309 28.863C109.597 29.389 109.998 29.8022 110.511 30.1028C111.024 30.3908 111.594 30.5348 112.22 30.5348ZM125.945 32.1127C125.131 32.1127 124.348 32.0063 123.597 31.7934C122.846 31.568 122.257 31.2862 121.831 30.9481L122.583 29.5205C123.021 29.8335 123.553 30.084 124.179 30.2718C124.805 30.4597 125.438 30.5536 126.077 30.5536C127.654 30.5536 128.443 30.1028 128.443 29.2011C128.443 28.9006 128.337 28.6626 128.124 28.4873C127.911 28.312 127.642 28.1868 127.316 28.1116C127.003 28.024 126.552 27.93 125.964 27.8299C125.162 27.7046 124.505 27.5606 123.992 27.3978C123.491 27.235 123.059 26.9595 122.695 26.5713C122.332 26.1831 122.151 25.6384 122.151 24.9371C122.151 24.0354 122.526 23.3154 123.278 22.7769C124.029 22.2259 125.037 21.9504 126.302 21.9504C126.966 21.9504 127.629 22.0318 128.293 22.1945C128.957 22.3573 129.502 22.5765 129.927 22.852L129.157 24.2796C128.343 23.7537 127.385 23.4907 126.283 23.4907C125.519 23.4907 124.937 23.6159 124.536 23.8664C124.136 24.1168 123.935 24.4487 123.935 24.8619C123.935 25.1875 124.048 25.4442 124.273 25.6321C124.499 25.8199 124.774 25.9577 125.1 26.0453C125.438 26.133 125.908 26.2332 126.509 26.3459C127.31 26.4837 127.955 26.6339 128.443 26.7967C128.944 26.947 129.37 27.21 129.721 27.5857C130.071 27.9614 130.247 28.4873 130.247 29.1636C130.247 30.0652 129.858 30.7853 129.082 31.3238C128.318 31.8497 127.273 32.1127 125.945 32.1127ZM141.291 31.4177C141.029 31.6431 140.703 31.8184 140.315 31.9436C139.926 32.0564 139.526 32.1127 139.112 32.1127C138.111 32.1127 137.334 31.8435 136.783 31.305C136.232 30.7665 135.957 29.9963 135.957 28.9945V23.5282H134.266V22.0443H135.957V19.8653H137.76V22.0443H140.615V23.5282H137.76V28.9194C137.76 29.4578 137.892 29.8711 138.154 30.1591C138.43 30.4472 138.818 30.5912 139.319 30.5912C139.87 30.5912 140.34 30.4346 140.728 30.1216L141.291 31.4177ZM150.29 21.9504C151.668 21.9504 152.72 22.2885 153.446 22.9647C154.185 23.6409 154.554 24.649 154.554 25.989V32H152.845V30.6851C152.545 31.1484 152.112 31.5053 151.549 31.7558C150.998 31.9937 150.34 32.1127 149.577 32.1127C148.462 32.1127 147.567 31.8435 146.89 31.305C146.227 30.7665 145.895 30.0589 145.895 29.1823C145.895 28.3057 146.214 27.6045 146.853 27.0785C147.492 26.54 148.506 26.2708 149.896 26.2708H152.751V25.9139C152.751 25.1374 152.526 24.5426 152.075 24.1293C151.624 23.7161 150.96 23.5095 150.084 23.5095C149.495 23.5095 148.919 23.6096 148.356 23.81C147.792 23.9978 147.316 24.2546 146.928 24.5802L146.177 23.2277C146.69 22.8144 147.304 22.5014 148.017 22.2885C148.731 22.0631 149.489 21.9504 150.29 21.9504ZM149.877 30.7227C150.566 30.7227 151.161 30.5724 151.662 30.2718C152.163 29.9588 152.526 29.5205 152.751 28.9569V27.5669H149.971C148.443 27.5669 147.679 28.0803 147.679 29.1072C147.679 29.6081 147.873 30.0026 148.262 30.2906C148.65 30.5786 149.188 30.7227 149.877 30.7227ZM166.401 21.9504C167.666 21.9504 168.668 22.3198 169.406 23.0586C170.158 23.785 170.533 24.8557 170.533 26.2708V32H168.73V26.4774C168.73 25.5131 168.499 24.7868 168.035 24.2984C167.572 23.81 166.908 23.5658 166.044 23.5658C165.067 23.5658 164.297 23.8538 163.734 24.4299C163.17 24.9934 162.888 25.8074 162.888 26.8719V32H161.085V22.0443H162.813V23.547C163.176 23.0336 163.665 22.6391 164.278 22.3636C164.904 22.0881 165.612 21.9504 166.401 21.9504ZM181.458 32.1127C180.444 32.1127 179.536 31.8936 178.735 31.4553C177.946 31.017 177.326 30.4158 176.875 29.652C176.424 28.8755 176.199 27.9989 176.199 27.0221C176.199 26.0453 176.424 25.175 176.875 24.4111C177.326 23.6347 177.946 23.0336 178.735 22.6078C179.536 22.1695 180.444 21.9504 181.458 21.9504C182.36 21.9504 183.161 22.1319 183.863 22.4951C184.577 22.8583 185.128 23.3842 185.516 24.073L184.145 24.9559C183.831 24.48 183.443 24.1231 182.98 23.8851C182.517 23.6472 182.003 23.5282 181.44 23.5282C180.788 23.5282 180.2 23.6723 179.674 23.9603C179.16 24.2483 178.753 24.6616 178.453 25.2001C178.165 25.726 178.021 26.3334 178.021 27.0221C178.021 27.7234 178.165 28.3433 178.453 28.8818C178.753 29.4078 179.16 29.8147 179.674 30.1028C180.2 30.3908 180.788 30.5348 181.44 30.5348C182.003 30.5348 182.517 30.4158 182.98 30.1779C183.443 29.94 183.831 29.5831 184.145 29.1072L185.516 29.9713C185.128 30.66 184.577 31.1923 183.863 31.568C183.161 31.9311 182.36 32.1127 181.458 32.1127ZM199.895 27.0785C199.895 27.2162 199.882 27.3978 199.857 27.6232H191.78C191.893 28.4998 192.275 29.2074 192.926 29.7459C193.59 30.2718 194.41 30.5348 195.387 30.5348C196.576 30.5348 197.534 30.1341 198.261 29.3326L199.256 30.4972C198.805 31.0232 198.242 31.4239 197.566 31.6994C196.902 31.975 196.157 32.1127 195.33 32.1127C194.278 32.1127 193.345 31.8998 192.531 31.474C191.717 31.0357 191.085 30.4284 190.634 29.652C190.196 28.8755 189.977 27.9989 189.977 27.0221C189.977 26.0579 190.19 25.1875 190.615 24.4111C191.054 23.6347 191.648 23.0336 192.4 22.6078C193.164 22.1695 194.022 21.9504 194.973 21.9504C195.925 21.9504 196.77 22.1695 197.509 22.6078C198.261 23.0336 198.843 23.6347 199.256 24.4111C199.682 25.1875 199.895 26.0767 199.895 27.0785ZM194.973 23.4719C194.109 23.4719 193.383 23.7349 192.794 24.2608C192.218 24.7868 191.88 25.4756 191.78 26.3271H198.167C198.066 25.4881 197.722 24.8056 197.134 24.2796C196.557 23.7411 195.837 23.4719 194.973 23.4719ZM214.984 22.0443V35.6442H213.181V30.4972C212.768 31.0232 212.261 31.4239 211.66 31.6994C211.071 31.975 210.42 32.1127 209.706 32.1127C208.742 32.1127 207.878 31.8998 207.114 31.474C206.35 31.0483 205.749 30.4534 205.31 29.6895C204.885 28.9131 204.672 28.024 204.672 27.0221C204.672 26.0203 204.885 25.1374 205.31 24.3735C205.749 23.6096 206.35 23.0148 207.114 22.589C207.878 22.1632 208.742 21.9504 209.706 21.9504C210.445 21.9504 211.121 22.0944 211.735 22.3824C212.348 22.6579 212.856 23.0712 213.256 23.6222V22.0443H214.984ZM209.856 30.5348C210.482 30.5348 211.052 30.3908 211.566 30.1028C212.079 29.8022 212.48 29.389 212.768 28.863C213.056 28.3245 213.2 27.7109 213.2 27.0221C213.2 26.3334 213.05 25.726 212.749 25.2001C212.461 24.6741 212.06 24.2671 211.547 23.9791C211.046 23.6785 210.482 23.5282 209.856 23.5282C209.218 23.5282 208.642 23.6723 208.128 23.9603C207.627 24.2483 207.226 24.6616 206.926 25.2001C206.638 25.726 206.494 26.3334 206.494 27.0221C206.494 27.7109 206.638 28.3245 206.926 28.863C207.226 29.389 207.627 29.8022 208.128 30.1028C208.642 30.3908 209.218 30.5348 209.856 30.5348ZM221.59 22.0443H223.393V32H221.59V22.0443ZM222.491 20.1283C222.141 20.1283 221.846 20.0156 221.609 19.7901C221.383 19.5647 221.27 19.2892 221.27 18.9636C221.27 18.638 221.383 18.3625 221.609 18.1371C221.846 17.8992 222.141 17.7802 222.491 17.7802C222.842 17.7802 223.13 17.8929 223.355 18.1183C223.593 18.3312 223.712 18.6005 223.712 18.9261C223.712 19.2642 223.593 19.5522 223.355 19.7901C223.13 20.0156 222.842 20.1283 222.491 20.1283Z" fill="white"/>
</svg>
