<svg width="307" height="71" viewBox="0 0 307 71" fill="none" xmlns="http://www.w3.org/2000/svg">
<path d="M51.6346 7.52231C51.6346 8.4455 51.5695 9.57778 50.6069 10.2361C49.3815 11.0741 47.0207 11.3217 44.9545 11.3217C41.2652 11.3217 38.2745 9.62063 38.2745 7.52231C38.2745 5.42399 41.2652 4 44.9545 4C48.6438 4 51.6346 5.42399 51.6346 7.52231Z" fill="white"/>
<path d="M45.9924 49.1391C25.4384 52.3957 6.59602 47.17 4.37059 39.9121C2.14516 32.6543 10.1803 22.1755 23.383 17.6588C36.5857 13.1421 57.6409 13.6576 59.8663 20.9154C59.8663 20.9154 61.0145 21.2336 63.9771 29.0569C67.0602 37.1983 76.0383 42.9195 77.0774 49.1391C69.8835 51.853 56.2694 46.5216 45.9924 49.1391Z" fill="white"/>
<path d="M45.6777 30.5141C43.8869 36.6666 38.7164 38.0433 36.0567 37.0228C32.47 35.3646 33.1044 32.3002 34.3058 27.9959C35.7813 23.7056 38.2071 21.1403 42.9053 20.9266C46.0149 21.3923 47.2895 24.9769 45.6777 30.5141Z" fill="#3B67BB"/>
<path d="M89.7838 24.137C88.794 24.137 87.8423 24.0076 86.9287 23.7488C86.0151 23.4747 85.2995 23.1321 84.7818 22.721L85.6954 20.9851C86.2283 21.3658 86.8755 21.6703 87.6368 21.8987C88.3981 22.1271 89.1671 22.2413 89.9436 22.2413C91.8622 22.2413 92.8215 21.6931 92.8215 20.5968C92.8215 20.2314 92.6921 19.9421 92.4332 19.7289C92.1744 19.5157 91.847 19.3635 91.4511 19.2721C91.0704 19.1655 90.5223 19.0513 89.8066 18.9295C88.8321 18.7772 88.0327 18.6021 87.4084 18.4042C86.7993 18.2062 86.274 17.8712 85.8324 17.3992C85.3908 16.9272 85.1701 16.2648 85.1701 15.4121C85.1701 14.3158 85.6269 13.4403 86.5405 12.7855C87.4541 12.1155 88.6798 11.7805 90.2177 11.7805C91.0247 11.7805 91.8318 11.8795 92.6388 12.0775C93.4458 12.2754 94.1082 12.5419 94.6259 12.8769L93.6894 14.6127C92.6997 13.9732 91.5348 13.6534 90.1949 13.6534C89.266 13.6534 88.558 13.8057 88.0708 14.1102C87.5835 14.4148 87.3399 14.8183 87.3399 15.3208C87.3399 15.7167 87.4769 16.0288 87.751 16.2572C88.0251 16.4856 88.3601 16.6531 88.756 16.7597C89.1671 16.8663 89.7381 16.9881 90.469 17.1251C91.4435 17.2926 92.2277 17.4753 92.8215 17.6733C93.4306 17.856 93.9483 18.1758 94.3746 18.6326C94.801 19.0894 95.0141 19.7289 95.0141 20.5511C95.0141 21.6475 94.5421 22.523 93.5981 23.1778C92.6692 23.8173 91.3978 24.137 89.7838 24.137ZM112.92 11.8947V24H110.842V22.1728C110.4 22.7971 109.814 23.2843 109.083 23.6346C108.367 23.9695 107.583 24.137 106.731 24.137C105.117 24.137 103.845 23.6955 102.916 22.8123C101.987 21.9139 101.523 20.5968 101.523 18.861V11.8947H103.716V18.6097C103.716 19.7822 103.997 20.673 104.561 21.282C105.124 21.8759 105.931 22.1728 106.982 22.1728C108.139 22.1728 109.053 21.8226 109.723 21.1221C110.393 20.4217 110.728 19.432 110.728 18.1529V11.8947H112.92ZM127.395 11.7805C128.568 11.7805 129.618 12.0394 130.547 12.5571C131.476 13.0748 132.199 13.7981 132.717 14.7269C133.25 15.6557 133.517 16.7292 133.517 17.9474C133.517 19.1655 133.25 20.2466 132.717 21.1907C132.199 22.1195 131.476 22.8428 130.547 23.3605C129.618 23.8782 128.568 24.137 127.395 24.137C126.497 24.137 125.675 23.9619 124.929 23.6117C124.183 23.2615 123.566 22.7514 123.079 22.0814V24H120.977V7.05264H123.17V13.7219C123.657 13.0824 124.266 12.6028 124.997 12.283C125.728 11.948 126.527 11.7805 127.395 11.7805ZM127.213 22.2185C127.989 22.2185 128.682 22.0434 129.291 21.6931C129.915 21.3277 130.403 20.8252 130.753 20.1857C131.118 19.531 131.301 18.7848 131.301 17.9474C131.301 17.1099 131.118 16.3714 130.753 15.7319C130.403 15.0771 129.915 14.5746 129.291 14.2244C128.682 13.8742 127.989 13.6991 127.213 13.6991C126.451 13.6991 125.758 13.8742 125.134 14.2244C124.51 14.5746 124.023 15.0771 123.672 15.7319C123.322 16.3714 123.147 17.1099 123.147 17.9474C123.147 18.7848 123.322 19.531 123.672 20.1857C124.023 20.8252 124.51 21.3277 125.134 21.6931C125.758 22.0434 126.451 22.2185 127.213 22.2185ZM143.901 24.137C142.911 24.137 141.959 24.0076 141.046 23.7488C140.132 23.4747 139.416 23.1321 138.899 22.721L139.812 20.9851C140.345 21.3658 140.992 21.6703 141.754 21.8987C142.515 22.1271 143.284 22.2413 144.06 22.2413C145.979 22.2413 146.938 21.6931 146.938 20.5968C146.938 20.2314 146.809 19.9421 146.55 19.7289C146.291 19.5157 145.964 19.3635 145.568 19.2721C145.187 19.1655 144.639 19.0513 143.923 18.9295C142.949 18.7772 142.149 18.6021 141.525 18.4042C140.916 18.2062 140.391 17.8712 139.949 17.3992C139.508 16.9272 139.287 16.2648 139.287 15.4121C139.287 14.3158 139.744 13.4403 140.657 12.7855C141.571 12.1155 142.797 11.7805 144.335 11.7805C145.142 11.7805 145.949 11.8795 146.756 12.0775C147.563 12.2754 148.225 12.5419 148.743 12.8769L147.806 14.6127C146.816 13.9732 145.652 13.6534 144.312 13.6534C143.383 13.6534 142.675 13.8057 142.188 14.1102C141.7 14.4148 141.457 14.8183 141.457 15.3208C141.457 15.7167 141.594 16.0288 141.868 16.2572C142.142 16.4856 142.477 16.6531 142.873 16.7597C143.284 16.8663 143.855 16.9881 144.586 17.1251C145.56 17.2926 146.344 17.4753 146.938 17.6733C147.547 17.856 148.065 18.1758 148.491 18.6326C148.918 19.0894 149.131 19.7289 149.131 20.5511C149.131 21.6475 148.659 22.523 147.715 23.1778C146.786 23.8173 145.515 24.137 143.901 24.137ZM162.56 23.292C162.241 23.566 161.845 23.7792 161.373 23.9315C160.901 24.0685 160.413 24.137 159.911 24.137C158.693 24.137 157.749 23.8097 157.079 23.1549C156.409 22.5002 156.074 21.5637 156.074 20.3456V13.6991H154.018V11.8947H156.074V9.24529H158.266V11.8947H161.738V13.6991H158.266V20.2542C158.266 20.909 158.426 21.4115 158.746 21.7617C159.081 22.1119 159.553 22.287 160.162 22.287C160.832 22.287 161.403 22.0967 161.875 21.716L162.56 23.292ZM173.502 11.7805C175.177 11.7805 176.456 12.1917 177.339 13.0139C178.238 13.8362 178.687 15.0619 178.687 16.6912V24H176.608V22.4012C176.243 22.9646 175.718 23.3985 175.033 23.7031C174.363 23.9924 173.563 24.137 172.634 24.137C171.279 24.137 170.19 23.8097 169.368 23.1549C168.561 22.5002 168.158 21.6399 168.158 20.574C168.158 19.5081 168.546 18.6554 169.322 18.0159C170.099 17.3611 171.332 17.0338 173.023 17.0338H176.494V16.5998C176.494 15.6557 176.22 14.9325 175.672 14.43C175.124 13.9275 174.317 13.6763 173.251 13.6763C172.535 13.6763 171.835 13.7981 171.15 14.0417C170.464 14.2701 169.886 14.5823 169.414 14.9782L168.5 13.3337C169.125 12.8312 169.871 12.4505 170.739 12.1917C171.606 11.9176 172.528 11.7805 173.502 11.7805ZM173 22.4469C173.837 22.4469 174.56 22.2642 175.17 21.8987C175.779 21.518 176.22 20.9851 176.494 20.2999V18.6097H173.114C171.256 18.6097 170.327 19.234 170.327 20.4826C170.327 21.0917 170.563 21.5713 171.035 21.9215C171.508 22.2718 172.162 22.4469 173 22.4469ZM193.091 11.7805C194.629 11.7805 195.847 12.2297 196.746 13.1281C197.659 14.0113 198.116 15.3131 198.116 17.0338V24H195.923V17.285C195.923 16.1125 195.642 15.2294 195.078 14.6356C194.515 14.0417 193.708 13.7448 192.657 13.7448C191.47 13.7448 190.533 14.095 189.848 14.7954C189.163 15.4806 188.82 16.4704 188.82 17.7646V24H186.627V11.8947H188.729V13.7219C189.17 13.0977 189.764 12.618 190.51 12.283C191.272 11.948 192.132 11.7805 193.091 11.7805ZM211.4 24.137C210.166 24.137 209.062 23.8706 208.088 23.3376C207.129 22.8047 206.375 22.0738 205.827 21.145C205.279 20.2009 205.004 19.1351 205.004 17.9474C205.004 16.7597 205.279 15.7014 205.827 14.7726C206.375 13.8285 207.129 13.0977 208.088 12.5799C209.062 12.047 210.166 11.7805 211.4 11.7805C212.496 11.7805 213.471 12.0013 214.323 12.4429C215.191 12.8845 215.861 13.524 216.333 14.3615L214.666 15.435C214.285 14.8563 213.813 14.4224 213.25 14.1331C212.686 13.8438 212.062 13.6991 211.377 13.6991C210.585 13.6991 209.869 13.8742 209.23 14.2244C208.606 14.5746 208.111 15.0771 207.745 15.7319C207.395 16.3714 207.22 17.1099 207.22 17.9474C207.22 18.8001 207.395 19.5538 207.745 20.2085C208.111 20.8481 208.606 21.3429 209.23 21.6931C209.869 22.0434 210.585 22.2185 211.377 22.2185C212.062 22.2185 212.686 22.0738 213.25 21.7845C213.813 21.4952 214.285 21.0612 214.666 20.4826L216.333 21.5333C215.861 22.3707 215.191 23.0179 214.323 23.4747C213.471 23.9163 212.496 24.137 211.4 24.137ZM233.817 18.0159C233.817 18.1834 233.801 18.4042 233.771 18.6783H223.95C224.087 19.7441 224.551 20.6044 225.343 21.2592C226.15 21.8987 227.147 22.2185 228.335 22.2185C229.782 22.2185 230.946 21.7312 231.83 20.7567L233.04 22.1728C232.492 22.8123 231.807 23.2996 230.985 23.6346C230.178 23.9695 229.272 24.137 228.267 24.137C226.988 24.137 225.853 23.8782 224.863 23.3605C223.874 22.8275 223.105 22.089 222.557 21.145C222.024 20.2009 221.757 19.1351 221.757 17.9474C221.757 16.7749 222.016 15.7167 222.534 14.7726C223.067 13.8285 223.79 13.0977 224.704 12.5799C225.632 12.047 226.675 11.7805 227.833 11.7805C228.99 11.7805 230.018 12.047 230.916 12.5799C231.83 13.0977 232.538 13.8285 233.04 14.7726C233.558 15.7167 233.817 16.7978 233.817 18.0159ZM227.833 13.6306C226.782 13.6306 225.899 13.9504 225.183 14.5899C224.483 15.2294 224.072 16.0669 223.95 17.1023H231.715C231.594 16.0821 231.175 15.2522 230.459 14.6127C229.759 13.958 228.883 13.6306 227.833 13.6306ZM252.164 11.8947V28.431H249.972V22.1728C249.469 22.8123 248.852 23.2996 248.122 23.6346C247.406 23.9695 246.614 24.137 245.746 24.137C244.574 24.137 243.523 23.8782 242.594 23.3605C241.665 22.8428 240.935 22.1195 240.402 21.1907C239.884 20.2466 239.625 19.1655 239.625 17.9474C239.625 16.7292 239.884 15.6557 240.402 14.7269C240.935 13.7981 241.665 13.0748 242.594 12.5571C243.523 12.0394 244.574 11.7805 245.746 11.7805C246.645 11.7805 247.467 11.9556 248.213 12.3059C248.959 12.6409 249.576 13.1433 250.063 13.8133V11.8947H252.164ZM245.929 22.2185C246.69 22.2185 247.383 22.0434 248.007 21.6931C248.632 21.3277 249.119 20.8252 249.469 20.1857C249.819 19.531 249.994 18.7848 249.994 17.9474C249.994 17.1099 249.812 16.3714 249.446 15.7319C249.096 15.0924 248.609 14.5975 247.985 14.2473C247.375 13.8818 246.69 13.6991 245.929 13.6991C245.152 13.6991 244.452 13.8742 243.828 14.2244C243.219 14.5746 242.731 15.0771 242.366 15.7319C242.016 16.3714 241.841 17.1099 241.841 17.9474C241.841 18.7848 242.016 19.531 242.366 20.1857C242.731 20.8252 243.219 21.3277 243.828 21.6931C244.452 22.0434 245.152 22.2185 245.929 22.2185ZM260.196 11.8947H262.388V24H260.196V11.8947ZM261.292 9.56505C260.866 9.56505 260.508 9.42801 260.219 9.15393C259.945 8.87985 259.808 8.54486 259.808 8.14896C259.808 7.75307 259.945 7.41808 260.219 7.144C260.508 6.85469 260.866 6.71004 261.292 6.71004C261.718 6.71004 262.069 6.84708 262.343 7.12116C262.632 7.38001 262.777 7.70739 262.777 8.10328C262.777 8.5144 262.632 8.86462 262.343 9.15393C262.069 9.42801 261.718 9.56505 261.292 9.56505Z" fill="white"/>
<path d="M88.8062 42.9653V48.6216H87.7206V42.9653H88.8062ZM89.0122 41.2172C89.0122 41.3174 88.9918 41.4139 88.951 41.5067C88.9102 41.5957 88.8545 41.6755 88.784 41.7461C88.7172 41.8129 88.6374 41.8667 88.5446 41.9075C88.4518 41.9446 88.3553 41.9632 88.2551 41.9632C88.1549 41.9632 88.0602 41.9446 87.9711 41.9075C87.8821 41.8667 87.8023 41.8129 87.7318 41.7461C87.6649 41.6755 87.6111 41.5957 87.5703 41.5067C87.5332 41.4139 87.5146 41.3174 87.5146 41.2172C87.5146 41.1132 87.5332 41.0167 87.5703 40.9277C87.6111 40.8349 87.6649 40.7551 87.7318 40.6883C87.8023 40.6178 87.8821 40.5639 87.9711 40.5268C88.0602 40.486 88.1549 40.4656 88.2551 40.4656C88.3553 40.4656 88.4518 40.486 88.5446 40.5268C88.6374 40.5639 88.7172 40.6178 88.784 40.6883C88.8545 40.7551 88.9102 40.8349 88.951 40.9277C88.9918 41.0167 89.0122 41.1132 89.0122 41.2172ZM93.1227 43.7503C93.2451 43.6204 93.3732 43.5016 93.5068 43.394C93.6404 43.2863 93.7815 43.1954 93.9299 43.1212C94.0821 43.0432 94.2435 42.9838 94.4143 42.943C94.5887 42.8985 94.7743 42.8762 94.971 42.8762C95.2827 42.8762 95.5555 42.9282 95.7894 43.0321C96.0269 43.136 96.2255 43.2826 96.3851 43.4719C96.5447 43.6575 96.6653 43.882 96.7469 44.1455C96.8286 44.409 96.8694 44.7004 96.8694 45.0196V48.6216H95.7782V45.0196C95.7782 44.615 95.6854 44.3014 95.4999 44.0787C95.3143 43.8523 95.0304 43.7391 94.6481 43.7391C94.3697 43.7391 94.1081 43.8059 93.8631 43.9395C93.6219 44.0694 93.3973 44.2476 93.1895 44.474V48.6216H92.1039V42.9653H92.7552C92.9074 42.9653 93.002 43.0376 93.0392 43.1824L93.1227 43.7503ZM101.079 43.7503C101.202 43.6204 101.33 43.5016 101.463 43.394C101.597 43.2863 101.738 43.1954 101.886 43.1212C102.038 43.0432 102.2 42.9838 102.371 42.943C102.545 42.8985 102.731 42.8762 102.927 42.8762C103.239 42.8762 103.512 42.9282 103.746 43.0321C103.983 43.136 104.182 43.2826 104.341 43.4719C104.501 43.6575 104.622 43.882 104.703 44.1455C104.785 44.409 104.826 44.7004 104.826 45.0196V48.6216H103.735V45.0196C103.735 44.615 103.642 44.3014 103.456 44.0787C103.271 43.8523 102.987 43.7391 102.604 43.7391C102.326 43.7391 102.064 43.8059 101.819 43.9395C101.578 44.0694 101.354 44.2476 101.146 44.474V48.6216H100.06V42.9653H100.712C100.864 42.9653 100.958 43.0376 100.996 43.1824L101.079 43.7503ZM110.427 42.8762C110.843 42.8762 111.218 42.9449 111.552 43.0822C111.89 43.2158 112.175 43.4107 112.409 43.6667C112.647 43.9191 112.829 44.2253 112.955 44.5853C113.081 44.9416 113.144 45.3425 113.144 45.7879C113.144 46.2332 113.081 46.6359 112.955 46.996C112.829 47.356 112.647 47.6622 112.409 47.9145C112.175 48.1669 111.89 48.3618 111.552 48.4991C111.218 48.6327 110.843 48.6995 110.427 48.6995C110.008 48.6995 109.629 48.6327 109.291 48.4991C108.957 48.3618 108.672 48.1669 108.434 47.9145C108.197 47.6622 108.013 47.356 107.883 46.996C107.757 46.6359 107.694 46.2332 107.694 45.7879C107.694 45.3425 107.757 44.9416 107.883 44.5853C108.013 44.2253 108.197 43.9191 108.434 43.6667C108.672 43.4107 108.957 43.2158 109.291 43.0822C109.629 42.9449 110.008 42.8762 110.427 42.8762ZM110.427 47.8533C110.962 47.8533 111.361 47.6733 111.624 47.3133C111.888 46.9533 112.019 46.4467 112.019 45.7934C112.019 45.1402 111.888 44.6336 111.624 44.2736C111.361 43.9098 110.962 43.728 110.427 43.728C109.885 43.728 109.481 43.9098 109.214 44.2736C108.95 44.6336 108.818 45.1402 108.818 45.7934C108.818 46.4467 108.95 46.9533 109.214 47.3133C109.481 47.6733 109.885 47.8533 110.427 47.8533ZM120.829 42.9653L118.535 48.6216H117.555L115.262 42.9653H116.158C116.243 42.9653 116.314 42.9857 116.37 43.0265C116.425 43.0673 116.462 43.1193 116.481 43.1824L117.834 46.6563C117.882 46.8011 117.923 46.9458 117.956 47.0906C117.993 47.2316 118.027 47.3727 118.056 47.5137C118.086 47.3727 118.119 47.2316 118.157 47.0906C118.194 46.9496 118.238 46.8048 118.29 46.6563L119.66 43.1824C119.682 43.1193 119.721 43.0673 119.777 43.0265C119.832 42.9857 119.899 42.9653 119.977 42.9653H120.829ZM126.327 46.1108C125.886 46.1256 125.511 46.1609 125.203 46.2165C124.895 46.2685 124.644 46.339 124.451 46.4281C124.258 46.5172 124.119 46.6229 124.034 46.7454C123.948 46.8642 123.906 46.9978 123.906 47.1463C123.906 47.2873 123.928 47.4098 123.973 47.5137C124.021 47.6139 124.084 47.6974 124.162 47.7642C124.243 47.8273 124.338 47.8737 124.446 47.9034C124.553 47.9331 124.67 47.9479 124.796 47.9479C124.963 47.9479 125.116 47.9312 125.253 47.8978C125.394 47.8644 125.526 47.818 125.648 47.7587C125.771 47.6956 125.888 47.6195 125.999 47.5304C126.11 47.4413 126.22 47.3393 126.327 47.2242V46.1108ZM123.143 43.7558C123.458 43.4552 123.8 43.2306 124.167 43.0822C124.539 42.9337 124.945 42.8595 125.387 42.8595C125.709 42.8595 125.995 42.9133 126.244 43.0209C126.493 43.1249 126.702 43.2715 126.873 43.4608C127.044 43.65 127.172 43.8764 127.257 44.14C127.346 44.4035 127.391 44.6948 127.391 45.014V48.6216H126.906C126.799 48.6216 126.717 48.6049 126.661 48.5715C126.606 48.5344 126.561 48.4676 126.528 48.3711L126.411 47.8756C126.266 48.0092 126.123 48.128 125.982 48.2319C125.841 48.3321 125.693 48.4193 125.537 48.4935C125.385 48.5641 125.221 48.6179 125.047 48.655C124.873 48.6921 124.68 48.7107 124.468 48.7107C124.245 48.7107 124.036 48.681 123.839 48.6216C123.646 48.5585 123.477 48.4638 123.332 48.3377C123.188 48.2115 123.072 48.0537 122.987 47.8644C122.905 47.6752 122.865 47.4543 122.865 47.2019C122.865 46.9792 122.924 46.7658 123.043 46.5617C123.165 46.3539 123.362 46.1683 123.633 46.005C123.908 45.8417 124.264 45.7081 124.702 45.6041C125.143 45.5002 125.685 45.4408 126.327 45.426V45.014C126.327 44.5872 126.237 44.268 126.055 44.0565C125.873 43.8449 125.606 43.7391 125.253 43.7391C125.015 43.7391 124.815 43.7688 124.652 43.8282C124.492 43.8876 124.353 43.9544 124.234 44.0286C124.119 44.0991 124.017 44.1641 123.928 44.2235C123.843 44.2829 123.754 44.3125 123.661 44.3125C123.587 44.3125 123.522 44.2921 123.466 44.2513C123.414 44.2105 123.371 44.1622 123.338 44.1066L123.143 43.7558ZM135.855 48.6216H134.764V43.8449H131.925V47.1574C131.925 47.3801 131.978 47.5471 132.086 47.6585C132.197 47.7661 132.338 47.8199 132.509 47.8199C132.609 47.8199 132.695 47.8069 132.765 47.7809C132.839 47.7549 132.903 47.7271 132.955 47.6974C133.007 47.664 133.051 47.6343 133.088 47.6083C133.125 47.5824 133.159 47.5694 133.188 47.5694C133.225 47.5694 133.253 47.5787 133.272 47.5972C133.294 47.6121 133.316 47.638 133.339 47.6752L133.662 48.1985C133.483 48.3618 133.272 48.488 133.027 48.577C132.782 48.6661 132.528 48.7107 132.264 48.7107C131.808 48.7107 131.455 48.5826 131.206 48.3265C130.961 48.0704 130.839 47.7048 130.839 47.2298V43.8449H130.182C130.119 43.8449 130.065 43.8263 130.021 43.7892C129.98 43.7484 129.959 43.689 129.959 43.6111V43.1713L130.884 43.0432L131.123 41.3563C131.138 41.2932 131.166 41.245 131.206 41.2116C131.251 41.1745 131.307 41.1559 131.373 41.1559H131.925V43.0544H135.855V48.6216ZM136.1 41.1838C136.1 41.284 136.08 41.3805 136.039 41.4733C135.998 41.5623 135.942 41.6421 135.872 41.7126C135.805 41.7795 135.725 41.8333 135.632 41.8741C135.54 41.9112 135.443 41.9298 135.343 41.9298C135.243 41.9298 135.148 41.9112 135.059 41.8741C134.97 41.8333 134.89 41.7795 134.82 41.7126C134.753 41.6421 134.699 41.5623 134.658 41.4733C134.621 41.3805 134.602 41.284 134.602 41.1838C134.602 41.0798 134.621 40.9815 134.658 40.8887C134.699 40.7959 134.753 40.7161 134.82 40.6493C134.89 40.5788 134.97 40.525 135.059 40.4879C135.148 40.447 135.243 40.4266 135.343 40.4266C135.443 40.4266 135.54 40.447 135.632 40.4879C135.725 40.525 135.805 40.5788 135.872 40.6493C135.942 40.7161 135.998 40.7959 136.039 40.8887C136.08 40.9815 136.1 41.0798 136.1 41.1838ZM144.067 42.9653L141.774 48.6216H140.794L138.5 42.9653H139.396C139.482 42.9653 139.552 42.9857 139.608 43.0265C139.664 43.0673 139.701 43.1193 139.719 43.1824L141.072 46.6563C141.12 46.8011 141.161 46.9458 141.195 47.0906C141.232 47.2316 141.265 47.3727 141.295 47.5137C141.324 47.3727 141.358 47.2316 141.395 47.0906C141.432 46.9496 141.477 46.8048 141.529 46.6563L142.898 43.1824C142.92 43.1193 142.959 43.0673 143.015 43.0265C143.071 42.9857 143.138 42.9653 143.215 42.9653H144.067ZM150.24 45.1643C150.24 44.9491 150.209 44.7505 150.146 44.5686C150.086 44.3868 149.997 44.229 149.878 44.0954C149.76 43.9618 149.615 43.8579 149.444 43.7837C149.273 43.7094 149.077 43.6723 148.854 43.6723C148.398 43.6723 148.038 43.8041 147.774 44.0676C147.514 44.3311 147.349 44.6967 147.279 45.1643H150.24ZM151.137 47.8143C151.003 47.9702 150.849 48.1057 150.675 48.2207C150.5 48.3321 150.315 48.423 150.118 48.4935C149.921 48.5641 149.717 48.616 149.505 48.6494C149.298 48.6828 149.092 48.6995 148.887 48.6995C148.498 48.6995 148.136 48.6346 147.802 48.5047C147.472 48.3711 147.184 48.1781 146.939 47.9257C146.698 47.6696 146.508 47.3541 146.371 46.9792C146.237 46.6007 146.171 46.1664 146.171 45.6765C146.171 45.2831 146.232 44.9175 146.354 44.5798C146.477 44.2383 146.651 43.9414 146.878 43.689C147.108 43.4366 147.388 43.2381 147.718 43.0933C148.049 42.9486 148.42 42.8762 148.832 42.8762C149.177 42.8762 149.494 42.9337 149.784 43.0488C150.077 43.1601 150.329 43.3234 150.541 43.5387C150.752 43.754 150.918 44.0193 151.036 44.3348C151.159 44.6503 151.22 45.0103 151.22 45.4149C151.22 45.5819 151.202 45.6951 151.164 45.7545C151.127 45.8101 151.059 45.838 150.958 45.838H147.251C147.262 46.1757 147.31 46.4708 147.395 46.7232C147.481 46.9718 147.598 47.1797 147.746 47.3467C147.898 47.5137 148.078 47.638 148.286 47.7197C148.494 47.8013 148.726 47.8422 148.982 47.8422C149.223 47.8422 149.431 47.8143 149.606 47.7587C149.784 47.703 149.936 47.6436 150.062 47.5805C150.192 47.5137 150.3 47.4525 150.385 47.3968C150.474 47.3411 150.552 47.3133 150.619 47.3133C150.708 47.3133 150.777 47.3467 150.825 47.4135L151.137 47.8143ZM162.619 44.023C162.585 44.0639 162.552 44.0973 162.519 44.1233C162.489 44.1455 162.444 44.1567 162.385 44.1567C162.326 44.1567 162.262 44.1344 162.196 44.0899C162.133 44.0416 162.051 43.9915 161.951 43.9395C161.854 43.8839 161.735 43.8338 161.594 43.7892C161.457 43.741 161.286 43.7169 161.082 43.7169C160.815 43.7169 160.579 43.7651 160.375 43.8616C160.171 43.9581 160 44.0954 159.863 44.2736C159.729 44.4517 159.627 44.6688 159.557 44.9249C159.486 45.181 159.451 45.4687 159.451 45.7879C159.451 46.1182 159.488 46.4132 159.562 46.6731C159.637 46.9291 159.742 47.1463 159.88 47.3244C160.017 47.4989 160.184 47.6325 160.381 47.7253C160.577 47.8143 160.796 47.8589 161.038 47.8589C161.271 47.8589 161.464 47.831 161.617 47.7754C161.769 47.716 161.895 47.6529 161.995 47.5861C162.095 47.5193 162.179 47.458 162.246 47.4024C162.313 47.343 162.381 47.3133 162.452 47.3133C162.541 47.3133 162.609 47.3467 162.658 47.4135L162.969 47.8143C162.84 47.9739 162.693 48.1094 162.53 48.2207C162.37 48.3321 162.199 48.423 162.018 48.4935C161.836 48.5641 161.644 48.616 161.444 48.6494C161.247 48.6828 161.047 48.6995 160.843 48.6995C160.49 48.6995 160.16 48.6346 159.852 48.5047C159.548 48.3748 159.282 48.1855 159.056 47.9368C158.833 47.6881 158.657 47.3838 158.527 47.0238C158.397 46.6601 158.332 46.2481 158.332 45.7879C158.332 45.3685 158.39 44.9806 158.505 44.6243C158.623 44.268 158.796 43.9618 159.022 43.7057C159.252 43.4459 159.535 43.2436 159.869 43.0989C160.203 42.9504 160.585 42.8762 161.015 42.8762C161.42 42.8762 161.776 42.9411 162.084 43.0711C162.392 43.201 162.667 43.3847 162.908 43.6222L162.619 44.023ZM166.733 44.0509C166.915 43.6797 167.134 43.3884 167.39 43.1768C167.646 42.9653 167.954 42.8595 168.314 42.8595C168.437 42.8595 168.552 42.8743 168.659 42.904C168.771 42.93 168.867 42.9708 168.949 43.0265L168.877 43.8449C168.851 43.9451 168.789 43.9952 168.693 43.9952C168.641 43.9952 168.563 43.9859 168.459 43.9674C168.355 43.9451 168.244 43.934 168.125 43.934C167.95 43.934 167.796 43.96 167.663 44.0119C167.529 44.0602 167.409 44.1344 167.301 44.2346C167.197 44.3311 167.104 44.4517 167.023 44.5965C166.941 44.7375 166.865 44.899 166.794 45.0808V48.6216H165.709V42.9653H166.332C166.451 42.9653 166.531 42.9875 166.572 43.0321C166.616 43.0729 166.648 43.1471 166.666 43.2548L166.733 44.0509ZM175.052 45.1643C175.052 44.9491 175.021 44.7505 174.958 44.5686C174.898 44.3868 174.809 44.229 174.69 44.0954C174.572 43.9618 174.427 43.8579 174.256 43.7837C174.085 43.7094 173.889 43.6723 173.666 43.6723C173.21 43.6723 172.85 43.8041 172.586 44.0676C172.326 44.3311 172.161 44.6967 172.091 45.1643H175.052ZM175.949 47.8143C175.815 47.9702 175.661 48.1057 175.487 48.2207C175.312 48.3321 175.127 48.423 174.93 48.4935C174.733 48.5641 174.529 48.616 174.317 48.6494C174.11 48.6828 173.904 48.6995 173.699 48.6995C173.31 48.6995 172.948 48.6346 172.614 48.5047C172.284 48.3711 171.996 48.1781 171.751 47.9257C171.51 47.6696 171.32 47.3541 171.183 46.9792C171.049 46.6007 170.983 46.1664 170.983 45.6765C170.983 45.2831 171.044 44.9175 171.166 44.5798C171.289 44.2383 171.463 43.9414 171.69 43.689C171.92 43.4366 172.2 43.2381 172.53 43.0933C172.861 42.9486 173.232 42.8762 173.644 42.8762C173.989 42.8762 174.306 42.9337 174.596 43.0488C174.889 43.1601 175.141 43.3234 175.353 43.5387C175.564 43.754 175.73 44.0193 175.848 44.3348C175.971 44.6503 176.032 45.0103 176.032 45.4149C176.032 45.5819 176.014 45.6951 175.976 45.7545C175.939 45.8101 175.871 45.838 175.77 45.838H172.063C172.074 46.1757 172.122 46.4708 172.207 46.7232C172.293 46.9718 172.41 47.1797 172.558 47.3467C172.71 47.5137 172.89 47.638 173.098 47.7197C173.306 47.8013 173.538 47.8422 173.794 47.8422C174.035 47.8422 174.243 47.8143 174.418 47.7587C174.596 47.703 174.748 47.6436 174.874 47.5805C175.004 47.5137 175.112 47.4525 175.197 47.3968C175.286 47.3411 175.364 47.3133 175.431 47.3133C175.52 47.3133 175.589 47.3467 175.637 47.4135L175.949 47.8143ZM181.965 46.1108C181.523 46.1256 181.148 46.1609 180.84 46.2165C180.532 46.2685 180.281 46.339 180.088 46.4281C179.895 46.5172 179.756 46.6229 179.671 46.7454C179.585 46.8642 179.543 46.9978 179.543 47.1463C179.543 47.2873 179.565 47.4098 179.61 47.5137C179.658 47.6139 179.721 47.6974 179.799 47.7642C179.881 47.8273 179.975 47.8737 180.083 47.9034C180.19 47.9331 180.307 47.9479 180.434 47.9479C180.601 47.9479 180.753 47.9312 180.89 47.8978C181.031 47.8644 181.163 47.818 181.285 47.7587C181.408 47.6956 181.525 47.6195 181.636 47.5304C181.747 47.4413 181.857 47.3393 181.965 47.2242V46.1108ZM178.78 43.7558C179.096 43.4552 179.437 43.2306 179.804 43.0822C180.176 42.9337 180.582 42.8595 181.024 42.8595C181.347 42.8595 181.632 42.9133 181.881 43.0209C182.13 43.1249 182.339 43.2715 182.51 43.4608C182.681 43.65 182.809 43.8764 182.894 44.14C182.983 44.4035 183.028 44.6948 183.028 45.014V48.6216H182.544C182.436 48.6216 182.354 48.6049 182.299 48.5715C182.243 48.5344 182.198 48.4676 182.165 48.3711L182.048 47.8756C181.903 48.0092 181.76 48.128 181.619 48.2319C181.478 48.3321 181.33 48.4193 181.174 48.4935C181.022 48.5641 180.859 48.6179 180.684 48.655C180.51 48.6921 180.317 48.7107 180.105 48.7107C179.882 48.7107 179.673 48.681 179.476 48.6216C179.283 48.5585 179.114 48.4638 178.969 48.3377C178.825 48.2115 178.71 48.0537 178.624 47.8644C178.543 47.6752 178.502 47.4543 178.502 47.2019C178.502 46.9792 178.561 46.7658 178.68 46.5617C178.802 46.3539 178.999 46.1683 179.27 46.005C179.545 45.8417 179.901 45.7081 180.339 45.6041C180.781 45.5002 181.322 45.4408 181.965 45.426V45.014C181.965 44.5872 181.874 44.268 181.692 44.0565C181.51 43.8449 181.243 43.7391 180.89 43.7391C180.653 43.7391 180.452 43.7688 180.289 43.8282C180.129 43.8876 179.99 43.9544 179.871 44.0286C179.756 44.0991 179.654 44.1641 179.565 44.2235C179.48 44.2829 179.391 44.3125 179.298 44.3125C179.224 44.3125 179.159 44.2921 179.103 44.2513C179.051 44.2105 179.008 44.1622 178.975 44.1066L178.78 43.7558ZM191.492 48.6216H190.401V43.8449H187.562V47.1574C187.562 47.3801 187.616 47.5471 187.723 47.6585C187.834 47.7661 187.976 47.8199 188.146 47.8199C188.246 47.8199 188.332 47.8069 188.402 47.7809C188.477 47.7549 188.54 47.7271 188.592 47.6974C188.644 47.664 188.688 47.6343 188.725 47.6083C188.762 47.5824 188.796 47.5694 188.825 47.5694C188.863 47.5694 188.89 47.5787 188.909 47.5972C188.931 47.6121 188.954 47.638 188.976 47.6752L189.299 48.1985C189.121 48.3618 188.909 48.488 188.664 48.577C188.419 48.6661 188.165 48.7107 187.901 48.7107C187.445 48.7107 187.092 48.5826 186.844 48.3265C186.599 48.0704 186.476 47.7048 186.476 47.2298V43.8449H185.819C185.756 43.8449 185.702 43.8263 185.658 43.7892C185.617 43.7484 185.596 43.689 185.596 43.6111V43.1713L186.521 43.0432L186.76 41.3563C186.775 41.2932 186.803 41.245 186.844 41.2116C186.888 41.1745 186.944 41.1559 187.011 41.1559H187.562V43.0544H191.492V48.6216ZM191.737 41.1838C191.737 41.284 191.717 41.3805 191.676 41.4733C191.635 41.5623 191.579 41.6421 191.509 41.7126C191.442 41.7795 191.362 41.8333 191.269 41.8741C191.177 41.9112 191.08 41.9298 190.98 41.9298C190.88 41.9298 190.785 41.9112 190.696 41.8741C190.607 41.8333 190.527 41.7795 190.457 41.7126C190.39 41.6421 190.336 41.5623 190.295 41.4733C190.258 41.3805 190.24 41.284 190.24 41.1838C190.24 41.0798 190.258 40.9815 190.295 40.8887C190.336 40.7959 190.39 40.7161 190.457 40.6493C190.527 40.5788 190.607 40.525 190.696 40.4879C190.785 40.447 190.88 40.4266 190.98 40.4266C191.08 40.4266 191.177 40.447 191.269 40.4879C191.362 40.525 191.442 40.5788 191.509 40.6493C191.579 40.7161 191.635 40.7959 191.676 40.8887C191.717 40.9815 191.737 41.0798 191.737 41.1838ZM199.704 42.9653L197.411 48.6216H196.431L194.137 42.9653H195.033C195.119 42.9653 195.189 42.9857 195.245 43.0265C195.301 43.0673 195.338 43.1193 195.356 43.1824L196.709 46.6563C196.757 46.8011 196.798 46.9458 196.832 47.0906C196.869 47.2316 196.902 47.3727 196.932 47.5137C196.962 47.3727 196.995 47.2316 197.032 47.0906C197.069 46.9496 197.114 46.8048 197.166 46.6563L198.535 43.1824C198.558 43.1193 198.596 43.0673 198.652 43.0265C198.708 42.9857 198.775 42.9653 198.853 42.9653H199.704ZM205.877 45.1643C205.877 44.9491 205.846 44.7505 205.783 44.5686C205.723 44.3868 205.634 44.229 205.516 44.0954C205.397 43.9618 205.252 43.8579 205.081 43.7837C204.911 43.7094 204.714 43.6723 204.491 43.6723C204.035 43.6723 203.675 43.8041 203.411 44.0676C203.151 44.3311 202.986 44.6967 202.916 45.1643H205.877ZM206.774 47.8143C206.64 47.9702 206.486 48.1057 206.312 48.2207C206.137 48.3321 205.952 48.423 205.755 48.4935C205.558 48.5641 205.354 48.616 205.143 48.6494C204.935 48.6828 204.729 48.6995 204.525 48.6995C204.135 48.6995 203.773 48.6346 203.439 48.5047C203.109 48.3711 202.821 48.1781 202.576 47.9257C202.335 47.6696 202.145 47.3541 202.008 46.9792C201.875 46.6007 201.808 46.1664 201.808 45.6765C201.808 45.2831 201.869 44.9175 201.991 44.5798C202.114 44.2383 202.288 43.9414 202.515 43.689C202.745 43.4366 203.025 43.2381 203.355 43.0933C203.686 42.9486 204.057 42.8762 204.469 42.8762C204.814 42.8762 205.131 42.9337 205.421 43.0488C205.714 43.1601 205.966 43.3234 206.178 43.5387C206.39 43.754 206.555 44.0193 206.673 44.3348C206.796 44.6503 206.857 45.0103 206.857 45.4149C206.857 45.5819 206.839 45.6951 206.802 45.7545C206.764 45.8101 206.696 45.838 206.596 45.838H202.888C202.899 46.1757 202.947 46.4708 203.033 46.7232C203.118 46.9718 203.235 47.1797 203.383 47.3467C203.535 47.5137 203.715 47.638 203.923 47.7197C204.131 47.8013 204.363 47.8422 204.619 47.8422C204.86 47.8422 205.068 47.8143 205.243 47.7587C205.421 47.703 205.573 47.6436 205.699 47.5805C205.829 47.5137 205.937 47.4525 206.022 47.3968C206.111 47.3411 206.189 47.3133 206.256 47.3133C206.345 47.3133 206.414 47.3467 206.462 47.4135L206.774 47.8143ZM215.316 44.0509C215.498 43.6797 215.717 43.3884 215.973 43.1768C216.229 42.9653 216.537 42.8595 216.897 42.8595C217.02 42.8595 217.135 42.8743 217.243 42.904C217.354 42.93 217.45 42.9708 217.532 43.0265L217.46 43.8449C217.434 43.9451 217.373 43.9952 217.276 43.9952C217.224 43.9952 217.146 43.9859 217.042 43.9674C216.938 43.9451 216.827 43.934 216.708 43.934C216.534 43.934 216.38 43.96 216.246 44.0119C216.112 44.0602 215.992 44.1344 215.884 44.2346C215.78 44.3311 215.687 44.4517 215.606 44.5965C215.524 44.7375 215.448 44.899 215.378 45.0808V48.6216H214.292V42.9653H214.916C215.034 42.9653 215.114 42.9875 215.155 43.0321C215.199 43.0729 215.231 43.1471 215.25 43.2548L215.316 44.0509ZM223.636 45.1643C223.636 44.9491 223.604 44.7505 223.541 44.5686C223.482 44.3868 223.392 44.229 223.274 44.0954C223.155 43.9618 223.01 43.8579 222.839 43.7837C222.669 43.7094 222.472 43.6723 222.249 43.6723C221.793 43.6723 221.433 43.8041 221.169 44.0676C220.909 44.3311 220.744 44.6967 220.674 45.1643H223.636ZM224.532 47.8143C224.398 47.9702 224.244 48.1057 224.07 48.2207C223.895 48.3321 223.71 48.423 223.513 48.4935C223.316 48.5641 223.112 48.616 222.901 48.6494C222.693 48.6828 222.487 48.6995 222.283 48.6995C221.893 48.6995 221.531 48.6346 221.197 48.5047C220.867 48.3711 220.579 48.1781 220.334 47.9257C220.093 47.6696 219.904 47.3541 219.766 46.9792C219.633 46.6007 219.566 46.1664 219.566 45.6765C219.566 45.2831 219.627 44.9175 219.75 44.5798C219.872 44.2383 220.047 43.9414 220.273 43.689C220.503 43.4366 220.783 43.2381 221.114 43.0933C221.444 42.9486 221.815 42.8762 222.227 42.8762C222.572 42.8762 222.89 42.9337 223.179 43.0488C223.472 43.1601 223.725 43.3234 223.936 43.5387C224.148 43.754 224.313 44.0193 224.432 44.3348C224.554 44.6503 224.615 45.0103 224.615 45.4149C224.615 45.5819 224.597 45.6951 224.56 45.7545C224.523 45.8101 224.454 45.838 224.354 45.838H220.646C220.657 46.1757 220.705 46.4708 220.791 46.7232C220.876 46.9718 220.993 47.1797 221.141 47.3467C221.294 47.5137 221.474 47.638 221.681 47.7197C221.889 47.8013 222.121 47.8422 222.377 47.8422C222.619 47.8422 222.826 47.8143 223.001 47.7587C223.179 47.703 223.331 47.6436 223.457 47.5805C223.587 47.5137 223.695 47.4525 223.78 47.3968C223.869 47.3411 223.947 47.3133 224.014 47.3133C224.103 47.3133 224.172 47.3467 224.22 47.4135L224.532 47.8143ZM230.843 43.9395C230.813 43.9878 230.782 44.023 230.748 44.0453C230.715 44.0639 230.672 44.0732 230.62 44.0732C230.561 44.0732 230.494 44.0527 230.42 44.0119C230.349 43.9711 230.262 43.9265 230.158 43.8783C230.058 43.8301 229.939 43.7855 229.802 43.7447C229.664 43.7039 229.501 43.6834 229.312 43.6834C229.156 43.6834 229.013 43.7039 228.883 43.7447C228.757 43.7818 228.649 43.8356 228.56 43.9061C228.471 43.9729 228.403 44.0546 228.354 44.1511C228.306 44.2439 228.282 44.3441 228.282 44.4517C228.282 44.5928 228.323 44.7097 228.404 44.8025C228.49 44.8952 228.599 44.975 228.733 45.0419C228.87 45.1087 229.024 45.1699 229.195 45.2256C229.369 45.2775 229.546 45.3332 229.724 45.3926C229.906 45.452 230.082 45.5206 230.253 45.5986C230.427 45.6728 230.581 45.7674 230.715 45.8825C230.852 45.9938 230.962 46.1293 231.043 46.2889C231.129 46.4485 231.171 46.6434 231.171 46.8735C231.171 47.137 231.123 47.3819 231.027 47.6083C230.934 47.831 230.795 48.024 230.609 48.1873C230.427 48.3506 230.201 48.4787 229.93 48.5715C229.659 48.6643 229.349 48.7107 229 48.7107C228.61 48.7107 228.25 48.6457 227.92 48.5158C227.59 48.3859 227.313 48.2207 227.091 48.0203L227.347 47.6028C227.376 47.5508 227.413 47.5118 227.458 47.4859C227.503 47.4562 227.562 47.4413 227.636 47.4413C227.707 47.4413 227.779 47.4673 227.853 47.5193C227.927 47.5712 228.017 47.6288 228.12 47.6919C228.224 47.7512 228.351 47.8069 228.499 47.8589C228.647 47.9071 228.833 47.9312 229.056 47.9312C229.241 47.9312 229.403 47.909 229.54 47.8644C229.677 47.8162 229.791 47.7531 229.88 47.6752C229.972 47.5935 230.041 47.5007 230.086 47.3968C230.13 47.2929 230.153 47.1834 230.153 47.0683C230.153 46.9199 230.11 46.7974 230.024 46.7009C229.943 46.6007 229.833 46.5153 229.696 46.4448C229.562 46.3743 229.408 46.313 229.234 46.2611C229.059 46.2091 228.881 46.1534 228.699 46.0941C228.518 46.0347 228.339 45.966 228.165 45.8881C227.991 45.8101 227.835 45.7118 227.697 45.593C227.564 45.4742 227.454 45.3295 227.369 45.1588C227.287 44.988 227.246 44.7802 227.246 44.5352C227.246 44.3163 227.291 44.1066 227.38 43.9061C227.473 43.7057 227.605 43.5294 227.775 43.3772C227.95 43.2251 228.163 43.1045 228.416 43.0154C228.672 42.9226 228.963 42.8762 229.29 42.8762C229.664 42.8762 230.002 42.9356 230.303 43.0544C230.607 43.1731 230.867 43.3364 231.082 43.5443L230.843 43.9395ZM237.819 45.1643C237.819 44.9491 237.788 44.7505 237.725 44.5686C237.665 44.3868 237.576 44.229 237.457 44.0954C237.339 43.9618 237.194 43.8579 237.023 43.7837C236.853 43.7094 236.656 43.6723 236.433 43.6723C235.977 43.6723 235.617 43.8041 235.353 44.0676C235.093 44.3311 234.928 44.6967 234.858 45.1643H237.819ZM238.716 47.8143C238.582 47.9702 238.428 48.1057 238.254 48.2207C238.079 48.3321 237.894 48.423 237.697 48.4935C237.5 48.5641 237.296 48.616 237.084 48.6494C236.877 48.6828 236.671 48.6995 236.467 48.6995C236.077 48.6995 235.715 48.6346 235.381 48.5047C235.051 48.3711 234.763 48.1781 234.518 47.9257C234.277 47.6696 234.087 47.3541 233.95 46.9792C233.817 46.6007 233.75 46.1664 233.75 45.6765C233.75 45.2831 233.811 44.9175 233.933 44.5798C234.056 44.2383 234.23 43.9414 234.457 43.689C234.687 43.4366 234.967 43.2381 235.297 43.0933C235.628 42.9486 235.999 42.8762 236.411 42.8762C236.756 42.8762 237.073 42.9337 237.363 43.0488C237.656 43.1601 237.908 43.3234 238.12 43.5387C238.332 43.754 238.497 44.0193 238.615 44.3348C238.738 44.6503 238.799 45.0103 238.799 45.4149C238.799 45.5819 238.781 45.6951 238.744 45.7545C238.706 45.8101 238.638 45.838 238.538 45.838H234.83C234.841 46.1757 234.889 46.4708 234.975 46.7232C235.06 46.9718 235.177 47.1797 235.325 47.3467C235.477 47.5137 235.657 47.638 235.865 47.7197C236.073 47.8013 236.305 47.8422 236.561 47.8422C236.802 47.8422 237.01 47.8143 237.185 47.7587C237.363 47.703 237.515 47.6436 237.641 47.5805C237.771 47.5137 237.879 47.4525 237.964 47.3968C238.053 47.3411 238.131 47.3133 238.198 47.3133C238.287 47.3133 238.356 47.3467 238.404 47.4135L238.716 47.8143ZM244.732 46.1108C244.29 46.1256 243.915 46.1609 243.607 46.2165C243.299 46.2685 243.048 46.339 242.855 46.4281C242.662 46.5172 242.523 46.6229 242.438 46.7454C242.353 46.8642 242.31 46.9978 242.31 47.1463C242.31 47.2873 242.332 47.4098 242.377 47.5137C242.425 47.6139 242.488 47.6974 242.566 47.7642C242.648 47.8273 242.742 47.8737 242.85 47.9034C242.958 47.9331 243.074 47.9479 243.201 47.9479C243.368 47.9479 243.52 47.9312 243.657 47.8978C243.798 47.8644 243.93 47.818 244.052 47.7587C244.175 47.6956 244.292 47.6195 244.403 47.5304C244.514 47.4413 244.624 47.3393 244.732 47.2242V46.1108ZM241.547 43.7558C241.863 43.4552 242.204 43.2306 242.572 43.0822C242.943 42.9337 243.349 42.8595 243.791 42.8595C244.114 42.8595 244.399 42.9133 244.648 43.0209C244.897 43.1249 245.106 43.2715 245.277 43.4608C245.448 43.65 245.576 43.8764 245.661 44.14C245.75 44.4035 245.795 44.6948 245.795 45.014V48.6216H245.311C245.203 48.6216 245.121 48.6049 245.066 48.5715C245.01 48.5344 244.965 48.4676 244.932 48.3711L244.815 47.8756C244.67 48.0092 244.527 48.128 244.386 48.2319C244.245 48.3321 244.097 48.4193 243.941 48.4935C243.789 48.5641 243.626 48.6179 243.451 48.655C243.277 48.6921 243.084 48.7107 242.872 48.7107C242.649 48.7107 242.44 48.681 242.243 48.6216C242.05 48.5585 241.881 48.4638 241.736 48.3377C241.592 48.2115 241.477 48.0537 241.391 47.8644C241.31 47.6752 241.269 47.4543 241.269 47.2019C241.269 46.9792 241.328 46.7658 241.447 46.5617C241.569 46.3539 241.766 46.1683 242.037 46.005C242.312 45.8417 242.668 45.7081 243.106 45.6041C243.548 45.5002 244.09 45.4408 244.732 45.426V45.014C244.732 44.5872 244.641 44.268 244.459 44.0565C244.277 43.8449 244.01 43.7391 243.657 43.7391C243.42 43.7391 243.219 43.7688 243.056 43.8282C242.896 43.8876 242.757 43.9544 242.638 44.0286C242.523 44.0991 242.421 44.1641 242.332 44.2235C242.247 44.2829 242.158 44.3125 242.065 44.3125C241.991 44.3125 241.926 44.2921 241.87 44.2513C241.818 44.2105 241.775 44.1622 241.742 44.1066L241.547 43.7558ZM249.998 44.0509C250.18 43.6797 250.399 43.3884 250.655 43.1768C250.911 42.9653 251.22 42.8595 251.58 42.8595C251.702 42.8595 251.817 42.8743 251.925 42.904C252.036 42.93 252.133 42.9708 252.214 43.0265L252.142 43.8449C252.116 43.9451 252.055 43.9952 251.958 43.9952C251.906 43.9952 251.828 43.9859 251.724 43.9674C251.62 43.9451 251.509 43.934 251.39 43.934C251.216 43.934 251.062 43.96 250.928 44.0119C250.795 44.0602 250.674 44.1344 250.566 44.2346C250.462 44.3311 250.37 44.4517 250.288 44.5965C250.206 44.7375 250.13 44.899 250.06 45.0808V48.6216H248.974V42.9653H249.598C249.716 42.9653 249.796 42.9875 249.837 43.0321C249.882 43.0729 249.913 43.1471 249.932 43.2548L249.998 44.0509ZM258.535 44.023C258.501 44.0639 258.468 44.0973 258.435 44.1233C258.405 44.1455 258.36 44.1567 258.301 44.1567C258.242 44.1567 258.178 44.1344 258.112 44.0899C258.049 44.0416 257.967 43.9915 257.867 43.9395C257.77 43.8839 257.651 43.8338 257.51 43.7892C257.373 43.741 257.202 43.7169 256.998 43.7169C256.731 43.7169 256.495 43.7651 256.291 43.8616C256.087 43.9581 255.916 44.0954 255.779 44.2736C255.645 44.4517 255.543 44.6688 255.473 44.9249C255.402 45.181 255.367 45.4687 255.367 45.7879C255.367 46.1182 255.404 46.4132 255.478 46.6731C255.553 46.9291 255.658 47.1463 255.796 47.3244C255.933 47.4989 256.1 47.6325 256.297 47.7253C256.493 47.8143 256.712 47.8589 256.954 47.8589C257.188 47.8589 257.381 47.831 257.533 47.7754C257.685 47.716 257.811 47.6529 257.911 47.5861C258.011 47.5193 258.095 47.458 258.162 47.4024C258.229 47.343 258.297 47.3133 258.368 47.3133C258.457 47.3133 258.525 47.3467 258.574 47.4135L258.886 47.8143C258.756 47.9739 258.609 48.1094 258.446 48.2207C258.286 48.3321 258.115 48.423 257.934 48.4935C257.752 48.5641 257.561 48.616 257.36 48.6494C257.163 48.6828 256.963 48.6995 256.759 48.6995C256.406 48.6995 256.076 48.6346 255.768 48.5047C255.464 48.3748 255.198 48.1855 254.972 47.9368C254.749 47.6881 254.573 47.3838 254.443 47.0238C254.313 46.6601 254.248 46.2481 254.248 45.7879C254.248 45.3685 254.306 44.9806 254.421 44.6243C254.539 44.268 254.712 43.9618 254.938 43.7057C255.168 43.4459 255.451 43.2436 255.785 43.0989C256.119 42.9504 256.501 42.8762 256.931 42.8762C257.336 42.8762 257.692 42.9411 258 43.0711C258.308 43.201 258.583 43.3847 258.824 43.6222L258.535 44.023ZM262.71 43.6834C262.948 43.4422 263.21 43.2473 263.495 43.0989C263.785 42.9504 264.117 42.8762 264.492 42.8762C264.804 42.8762 265.076 42.9282 265.31 43.0321C265.548 43.136 265.746 43.2826 265.906 43.4719C266.066 43.6575 266.186 43.882 266.268 44.1455C266.349 44.409 266.39 44.7004 266.39 45.0196V48.6216H265.299V45.0196C265.299 44.615 265.206 44.3014 265.021 44.0787C264.835 43.8523 264.551 43.7391 264.169 43.7391C263.891 43.7391 263.629 43.8059 263.384 43.9395C263.143 44.0694 262.918 44.2476 262.71 44.474V48.6216H261.625V40.4043H262.71V43.6834Z" fill="white"/>
</svg>
